<svg width="146" height="146" viewBox="0 0 146 146" fill="none" xmlns="http://www.w3.org/2000/svg">
<circle cx="72.7808" cy="72.9569" r="72.0097" stroke="#B1B8D0"/>
<path d="M40.4084 34.0576H63.4032C66.1646 34.0576 68.4032 36.2962 68.4032 39.0576V72.0193C68.4032 74.7807 66.1646 77.0193 63.4032 77.0193H40.4084C37.647 77.0193 35.4084 74.7807 35.4084 72.0193V39.0576C35.4084 36.2962 37.647 34.0576 40.4084 34.0576Z" stroke="#AFBBDB" stroke-width="2"/>
<path d="M50.3916 110.056H105.395V95.0807H107.395V110.056C107.395 111.161 106.5 112.056 105.395 112.056H50.3916C49.2871 112.056 48.3916 111.161 48.3916 110.056L48.3916 81.1046H50.3916L50.3916 110.056Z" fill="#AFBBDB"/>
<path d="M105.396 55.5232L90.6578 41.0483H72.3931V39.0483H90.6578C91.1817 39.0483 91.6847 39.2539 92.0587 39.6209L106.796 54.0958C107.18 54.4719 107.396 54.9862 107.396 55.5232V74.0447H105.396V55.5232Z" fill="#AFBBDB"/>
<path fill-rule="evenodd" clip-rule="evenodd" d="M67.416 84.0247C67.9683 84.0247 68.416 84.4724 68.416 85.0247V103.025C68.416 103.577 67.9683 104.025 67.416 104.025C66.8637 104.025 66.416 103.577 66.416 103.025V85.0247C66.416 84.4724 66.8637 84.0247 67.416 84.0247Z" fill="#2D4ADE"/>
<path fill-rule="evenodd" clip-rule="evenodd" d="M61.734 87.3427C62.5779 86.4988 63.7225 86.0247 64.916 86.0247H72.416C72.9683 86.0247 73.416 86.4724 73.416 87.0247C73.416 87.5769 72.9683 88.0247 72.416 88.0247H64.916C64.253 88.0247 63.6171 88.2881 63.1482 88.7569C62.6794 89.2257 62.416 89.8616 62.416 90.5247C62.416 91.1877 62.6794 91.8236 63.1482 92.2924C63.6171 92.7613 64.253 93.0247 64.916 93.0247H69.916C71.1095 93.0247 72.2541 93.4988 73.098 94.3427C73.9419 95.1866 74.416 96.3312 74.416 97.5247C74.416 98.7181 73.9419 99.8627 73.098 100.707C72.2541 101.551 71.1095 102.025 69.916 102.025H61.416C60.8637 102.025 60.416 101.577 60.416 101.025C60.416 100.472 60.8637 100.025 61.416 100.025H69.916C70.5791 100.025 71.2149 99.7613 71.6838 99.2924C72.1526 98.8236 72.416 98.1877 72.416 97.5247C72.416 96.8616 72.1526 96.2257 71.6838 95.7569C71.2149 95.2881 70.5791 95.0247 69.916 95.0247H64.916C63.7225 95.0247 62.5779 94.5506 61.734 93.7066C60.8901 92.8627 60.416 91.7181 60.416 90.5247C60.416 89.3312 60.8901 88.1866 61.734 87.3427Z" fill="#2D4ADE"/>
<path d="M42.9047 54.0277C41.5343 54.0277 40.4023 52.8875 40.4023 51.4938C40.4023 50.1002 41.5343 48.96 42.9047 48.96C44.275 48.96 45.407 50.1002 45.407 51.4938C45.407 52.8875 44.275 54.0277 42.9047 54.0277Z" stroke="#2D4ADE" stroke-width="2"/>
<path d="M51.9015 54.0277C50.5311 54.0277 49.3992 52.8875 49.3992 51.4938C49.3992 50.1002 50.5311 48.96 51.9015 48.96C53.2718 48.96 54.4038 50.1002 54.4038 51.4938C54.4038 52.8875 53.2718 54.0277 51.9015 54.0277Z" stroke="#2D4ADE" stroke-width="2"/>
<path d="M60.8981 54.0277C59.5277 54.0277 58.3958 52.8875 58.3958 51.4938C58.3958 50.1002 59.5277 48.96 60.8981 48.96C62.2684 48.96 63.4004 50.1002 63.4004 51.4938C63.4004 52.8875 62.2684 54.0277 60.8981 54.0277Z" stroke="#2D4ADE" stroke-width="2"/>
<path d="M42.9047 63.1435C41.5343 63.1435 40.4023 62.0033 40.4023 60.6096C40.4023 59.2159 41.5343 58.0757 42.9047 58.0757C44.275 58.0757 45.407 59.2159 45.407 60.6096C45.407 62.0033 44.275 63.1435 42.9047 63.1435Z" stroke="#2D4ADE" stroke-width="2"/>
<path d="M51.9015 63.1435C50.5311 63.1435 49.3992 62.0033 49.3992 60.6096C49.3992 59.2159 50.5311 58.0757 51.9015 58.0757C53.2718 58.0757 54.4038 59.2159 54.4038 60.6096C54.4038 62.0033 53.2718 63.1435 51.9015 63.1435Z" stroke="#2D4ADE" stroke-width="2"/>
<path d="M60.8981 63.1435C59.5277 63.1435 58.3958 62.0033 58.3958 60.6096C58.3958 59.2159 59.5277 58.0757 60.8981 58.0757C62.2684 58.0757 63.4004 59.2159 63.4004 60.6096C63.4004 62.0033 62.2684 63.1435 60.8981 63.1435Z" stroke="#2D4ADE" stroke-width="2"/>
<path d="M42.9047 72.0609C41.5343 72.0609 40.4023 70.9207 40.4023 69.5271C40.4023 68.1334 41.5343 66.9932 42.9047 66.9932C44.275 66.9932 45.407 68.1334 45.407 69.5271C45.407 70.9207 44.275 72.0609 42.9047 72.0609Z" stroke="#2D4ADE" stroke-width="2"/>
<path d="M51.9015 72.0609C50.5311 72.0609 49.3992 70.9207 49.3992 69.5271C49.3992 68.1334 50.5311 66.9932 51.9015 66.9932C53.2718 66.9932 54.4038 68.1334 54.4038 69.5271C54.4038 70.9207 53.2718 72.0609 51.9015 72.0609Z" stroke="#2D4ADE" stroke-width="2"/>
<path d="M60.8981 72.0609C59.5277 72.0609 58.3958 70.9207 58.3958 69.5271C58.3958 68.1334 59.5277 66.9932 60.8981 66.9932C62.2684 66.9932 63.4004 68.1334 63.4004 69.5271C63.4004 70.9207 62.2684 72.0609 60.8981 72.0609Z" stroke="#2D4ADE" stroke-width="2"/>
<path d="M36.4376 42.9983H68.3715V45.0743H36.4376V42.9983Z" fill="#AFBBDB"/>
<path d="M79.4205 61.5732H99.4025C99.6815 61.5732 99.9077 61.7994 99.9077 62.0784C99.9077 62.3575 99.6815 62.5837 99.4025 62.5837H79.4205C79.1415 62.5837 78.9153 62.3575 78.9153 62.0784C78.9153 61.7994 79.1415 61.5732 79.4205 61.5732Z" fill="#0080E4" stroke="#AFBBDB"/>
<rect x="89.427" y="54.0173" width="16.9685" height="2.01041" rx="1.00521" fill="#AFBBDB"/>
<rect x="89.427" y="56.0278" width="16.0067" height="2.01041" rx="1.00521" transform="rotate(-90 89.427 56.0278)" fill="#AFBBDB"/>
<path d="M79.4205 66.5369H99.4025C99.6815 66.5369 99.9077 66.7631 99.9077 67.0421C99.9077 67.3211 99.6815 67.5473 99.4025 67.5473H79.4205C79.1415 67.5473 78.9153 67.3211 78.9153 67.0421C78.9153 66.7631 79.1415 66.5369 79.4205 66.5369Z" fill="#0080E4" stroke="#AFBBDB"/>
<path d="M79.4205 71.5474H99.4025C99.6815 71.5474 99.9077 71.7736 99.9077 72.0526C99.9077 72.3316 99.6815 72.5578 99.4025 72.5578H79.4205C79.1415 72.5578 78.9153 72.3316 78.9153 72.0526C78.9153 71.7736 79.1415 71.5474 79.4205 71.5474Z" fill="#0080E4" stroke="#AFBBDB"/>
<path d="M79.4205 76.5579H93.4025C93.6815 76.5579 93.9077 76.784 93.9077 77.0631C93.9077 77.3421 93.6815 77.5683 93.4025 77.5683H79.4205C79.1415 77.5683 78.9153 77.3421 78.9153 77.0631C78.9153 76.7841 79.1415 76.5579 79.4205 76.5579Z" fill="#0080E4" stroke="#AFBBDB"/>
<path d="M109.481 78.099L113.381 81.9985C113.578 82.1958 113.578 82.5156 113.381 82.7129C113.183 82.9102 112.864 82.9102 112.666 82.7129L108.767 78.8135C108.57 78.6162 108.57 78.2963 108.767 78.099C108.964 77.9017 109.284 77.9017 109.481 78.099Z" fill="#0080E4" stroke="#2D4ADE"/>
<circle cx="106.396" cy="74.0524" r="0.5" fill="#0080E4" stroke="#AFBBDB" stroke-width="0.999783"/>
<circle cx="106.396" cy="95.0246" r="0.5" fill="#0080E4" stroke="#AFBBDB" stroke-width="0.999783"/>
<path fill-rule="evenodd" clip-rule="evenodd" d="M111.419 73.6015C112.321 72.6993 113.477 72.806 114.273 73.6015L117.973 77.2501C118.678 77.9554 118.784 78.9745 117.845 79.9131L94.1026 103.76C93.9151 103.948 93.6607 104.053 93.3955 104.053H88.3955C87.8432 104.053 87.3955 103.606 87.3955 103.053V98.0534C87.3955 97.7882 87.5009 97.5338 87.6884 97.3463L111.419 73.6015ZM89.3955 98.4676V102.053H92.9813L116.464 78.5696L112.878 74.9838L89.3955 98.4676Z" fill="#2D4ADE"/>
<circle cx="72.4027" cy="40.0525" r="0.504189" fill="#0080E4"/>
<circle cx="72.4027" cy="40.0525" r="0.504189" fill="#0080E4"/>
<circle cx="72.4027" cy="40.0525" r="0.504189" stroke="#AFBBDB"/>
<circle cx="49.3958" cy="81.16" r="0.504189" fill="#0080E4"/>
<circle cx="49.3958" cy="81.16" r="0.504189" fill="#0080E4"/>
<circle cx="49.3958" cy="81.16" r="0.504189" stroke="#AFBBDB"/>
</svg>
