<svg width="146" height="146" viewBox="0 0 146 146" fill="none" xmlns="http://www.w3.org/2000/svg">
<circle cx="72.7808" cy="73.3973" r="72.0097" stroke="#B1B8D0"/>
<mask id="path-2-inside-1" fill="white">
<path d="M100.382 102.979L100.382 40.9763C100.382 38.7672 98.5908 36.9763 96.3817 36.9763L81.9312 36.9764L81.9312 36.9763L44.3971 36.9764C42.188 36.9764 40.3971 38.7673 40.3971 40.9764L40.3971 102.971C40.3971 105.18 42.1879 106.971 44.3971 106.971L61.9147 106.971L61.9147 108.971L44.3971 108.971C41.0834 108.971 38.3971 106.284 38.3971 102.971L38.3971 40.9764C38.3971 37.6627 41.0834 34.9764 44.3971 34.9764L81.941 34.9763L81.941 34.9764L96.3817 34.9763C99.6954 34.9763 102.382 37.6626 102.382 40.9763L102.382 102.979C102.382 106.292 99.6954 108.979 96.3817 108.979L94.9108 108.979L94.9108 106.979L96.3817 106.979C98.5908 106.979 100.382 105.188 100.382 102.979Z"/>
</mask>
<path d="M100.382 102.979L100.382 40.9763C100.382 38.7672 98.5908 36.9763 96.3817 36.9763L81.9312 36.9764L81.9312 36.9763L44.3971 36.9764C42.188 36.9764 40.3971 38.7673 40.3971 40.9764L40.3971 102.971C40.3971 105.18 42.1879 106.971 44.3971 106.971L61.9147 106.971L61.9147 108.971L44.3971 108.971C41.0834 108.971 38.3971 106.284 38.3971 102.971L38.3971 40.9764C38.3971 37.6627 41.0834 34.9764 44.3971 34.9764L81.941 34.9763L81.941 34.9764L96.3817 34.9763C99.6954 34.9763 102.382 37.6626 102.382 40.9763L102.382 102.979C102.382 106.292 99.6954 108.979 96.3817 108.979L94.9108 108.979L94.9108 106.979L96.3817 106.979C98.5908 106.979 100.382 105.188 100.382 102.979Z" fill="#C4C4C4"/>
<path d="M81.9312 36.9763L80.9312 36.9763L80.9312 37.9763L81.9312 37.9763L81.9312 36.9763ZM81.941 36.9763L81.941 37.9763L82.941 37.9763L82.941 36.9763L81.941 36.9763ZM81.9312 34.9764L81.9312 33.9764L80.9312 33.9764L80.9312 34.9764L81.9312 34.9764ZM81.941 34.9764L82.941 34.9764L82.941 33.9764L81.941 33.9764L81.941 34.9764ZM81.9312 37.9763L81.941 37.9763L81.941 35.9763L81.9312 35.9763L81.9312 37.9763ZM82.9312 36.9763L82.9312 34.9764L80.9312 34.9764L80.9312 36.9763L82.9312 36.9763ZM81.9312 35.9764L81.941 35.9764L81.941 33.9764L81.9312 33.9764L81.9312 35.9764ZM80.941 34.9764L80.941 36.9763L82.941 36.9763L82.941 34.9764L80.941 34.9764ZM100.382 40.9763L98.3817 40.9763L100.382 40.9763ZM100.382 102.979L102.382 102.979L100.382 102.979ZM96.3817 36.9763L96.3817 34.9763L96.3817 34.9763L96.3817 36.9763ZM44.3971 36.9764L44.3971 38.9764L44.3971 38.9764L44.3971 36.9764ZM96.3817 34.9763L96.3817 32.9763L96.3817 32.9763L96.3817 34.9763ZM44.3971 34.9764L44.3971 36.9764L44.3971 36.9764L44.3971 34.9764ZM81.9312 36.9764L79.9312 36.9764L79.9312 38.9764L81.9312 38.9764L81.9312 36.9764ZM94.9108 108.979L92.9108 108.979L92.9108 110.979L94.9108 110.979L94.9108 108.979ZM81.9312 36.9763L83.9312 36.9763L83.9312 34.9763L81.9312 34.9763L81.9312 36.9763ZM61.9147 106.971L63.9147 106.971L63.9147 104.971L61.9147 104.971L61.9147 106.971ZM81.941 34.9764L79.941 34.9764L79.941 36.9764L81.941 36.9764L81.941 34.9764ZM94.9108 106.979L94.9108 104.979L92.9108 104.979L92.9108 106.979L94.9108 106.979ZM81.941 34.9763L83.941 34.9763L83.941 32.9763L81.941 32.9763L81.941 34.9763ZM61.9147 108.971L61.9147 110.971L63.9147 110.971L63.9147 108.971L61.9147 108.971ZM98.3817 40.9763L98.3817 102.979L102.382 102.979L102.382 40.9763L98.3817 40.9763ZM96.3817 38.9763C97.4863 38.9763 98.3817 39.8717 98.3817 40.9763L102.382 40.9763C102.382 37.6626 99.6954 34.9763 96.3817 34.9763L96.3817 38.9763ZM42.3971 40.9764C42.3971 39.8718 43.2925 38.9764 44.3971 38.9764L44.3971 34.9764C41.0834 34.9764 38.3971 37.6627 38.3971 40.9764L42.3971 40.9764ZM42.3971 102.971L42.3971 40.9764L38.3971 40.9764L38.3971 102.971L42.3971 102.971ZM44.3971 104.971C43.2925 104.971 42.3971 104.075 42.3971 102.971L38.3971 102.971C38.3971 106.284 41.0834 108.971 44.3971 108.971L44.3971 104.971ZM98.3817 102.979C98.3817 104.083 97.4863 104.979 96.3817 104.979L96.3817 108.979C99.6954 108.979 102.382 106.292 102.382 102.979L98.3817 102.979ZM96.3817 36.9763C98.5908 36.9763 100.382 38.7672 100.382 40.9763L104.382 40.9763C104.382 36.558 100.8 32.9763 96.3817 32.9763L96.3817 36.9763ZM40.3971 40.9764C40.3971 38.7673 42.188 36.9764 44.3971 36.9764L44.3971 32.9764C39.9788 32.9764 36.3971 36.5581 36.3971 40.9764L40.3971 40.9764ZM40.3971 102.971L40.3971 40.9764L36.3971 40.9764L36.3971 102.971L40.3971 102.971ZM44.3971 106.971C42.1879 106.971 40.3971 105.18 40.3971 102.971L36.3971 102.971C36.3971 107.389 39.9788 110.971 44.3971 110.971L44.3971 106.971ZM100.382 102.979C100.382 105.188 98.5908 106.979 96.3817 106.979L96.3817 110.979C100.8 110.979 104.382 107.397 104.382 102.979L100.382 102.979ZM100.382 40.9763L100.382 102.979L104.382 102.979L104.382 40.9763L100.382 40.9763ZM81.9312 38.9764L96.3817 38.9763L96.3817 34.9763L81.9312 34.9764L81.9312 38.9764ZM96.3817 106.979L94.9108 106.979L94.9108 110.979L96.3817 110.979L96.3817 106.979ZM44.3971 38.9764L81.9312 38.9763L81.9312 34.9763L44.3971 34.9764L44.3971 38.9764ZM61.9147 104.971L44.3971 104.971L44.3971 108.971L61.9147 108.971L61.9147 104.971ZM83.9312 36.9764L83.9312 36.9763L79.9312 36.9763L79.9312 36.9764L83.9312 36.9764ZM81.941 36.9764L96.3817 36.9763L96.3817 32.9763L81.9409 32.9764L81.941 36.9764ZM96.3817 104.979L94.9108 104.979L94.9108 108.979L96.3817 108.979L96.3817 104.979ZM92.9108 106.979L92.9108 108.979L96.9108 108.979L96.9108 106.979L92.9108 106.979ZM44.3971 36.9764L81.941 36.9763L81.941 32.9763L44.3971 32.9764L44.3971 36.9764ZM79.941 34.9763L79.941 34.9764L83.941 34.9764L83.941 34.9763L79.941 34.9763ZM59.9147 106.971L59.9147 108.971L63.9147 108.971L63.9147 106.971L59.9147 106.971ZM61.9147 106.971L44.3971 106.971L44.3971 110.971L61.9147 110.971L61.9147 106.971Z" fill="#AFBBDB" mask="url(#path-2-inside-1)"/>
<mask id="path-4-inside-2" fill="white">
<path d="M109.433 98.9785L109.433 46.9763C109.433 44.7672 107.642 42.9763 105.433 42.9763L105.42 42.9764L105.42 40.9764L105.429 40.9763L105.433 40.9763C108.746 40.9763 111.433 43.6626 111.433 46.9763L111.433 98.9785C111.433 102.292 108.746 104.979 105.433 104.979L105.399 104.979L105.399 102.979L105.433 102.979C107.642 102.979 109.433 101.188 109.433 98.9785Z"/>
</mask>
<path d="M109.433 98.9785L109.433 46.9763C109.433 44.7672 107.642 42.9763 105.433 42.9763L105.42 42.9764L105.42 40.9764L105.429 40.9763L105.433 40.9763C108.746 40.9763 111.433 43.6626 111.433 46.9763L111.433 98.9785C111.433 102.292 108.746 104.979 105.433 104.979L105.399 104.979L105.399 102.979L105.433 102.979C107.642 102.979 109.433 101.188 109.433 98.9785Z" fill="#C4C4C4"/>
<path d="M104.429 40.9763L104.429 40.9763L106.429 40.9763L106.429 40.9763L104.429 40.9763ZM104.429 40.9763L104.429 42.9763L106.429 42.9763L106.429 40.9763L104.429 40.9763ZM109.433 46.9763L107.433 46.9763L109.433 46.9763ZM109.433 98.9785L111.433 98.9785L109.433 98.9785ZM105.433 42.9763L105.433 40.9763L105.425 40.9763L105.418 40.9764L105.433 42.9763ZM105.433 40.9763L105.433 38.9763L105.425 38.9763L105.418 38.9764L105.433 40.9763ZM105.42 42.9764L103.42 42.9764L103.42 44.9911L105.434 44.9764L105.42 42.9764ZM105.399 104.979L103.399 104.979L103.399 106.979L105.399 106.979L105.399 104.979ZM105.42 40.9764L105.405 38.9765L103.42 38.991L103.42 40.9764L105.42 40.9764ZM105.429 40.9763L105.415 38.9764L105.429 40.9763ZM105.399 102.979L105.399 100.979L103.399 100.979L103.399 102.979L105.399 102.979ZM107.433 46.9763L107.433 98.9785L111.433 98.9785L111.433 46.9763L107.433 46.9763ZM105.433 44.9763C106.537 44.9763 107.433 45.8717 107.433 46.9763L111.433 46.9763C111.433 43.6626 108.746 40.9763 105.433 40.9763L105.433 44.9763ZM107.433 98.9785C107.433 100.083 106.537 100.979 105.433 100.979L105.433 104.979C108.746 104.979 111.433 102.292 111.433 98.9785L107.433 98.9785ZM105.433 42.9763C107.642 42.9763 109.433 44.7672 109.433 46.9763L113.433 46.9763C113.433 42.558 109.851 38.9763 105.433 38.9763L105.433 42.9763ZM109.433 98.9785C109.433 101.188 107.642 102.979 105.433 102.979L105.433 106.979C109.851 106.979 113.433 103.397 113.433 98.9785L109.433 98.9785ZM109.433 46.9763L109.433 98.9785L113.433 98.9785L113.433 46.9763L109.433 46.9763ZM105.434 44.9764L105.447 44.9763L105.418 40.9764L105.405 40.9765L105.434 44.9764ZM105.433 102.979L105.399 102.979L105.399 106.979L105.433 106.979L105.433 102.979ZM107.42 42.9764L107.42 40.9764L103.42 40.9764L103.42 42.9764L107.42 42.9764ZM105.434 42.9764L105.444 42.9763L105.415 38.9764L105.405 38.9765L105.434 42.9764ZM105.444 42.9763L105.447 42.9763L105.418 38.9764L105.415 38.9764L105.444 42.9763ZM105.433 100.979L105.399 100.979L105.399 104.979L105.433 104.979L105.433 100.979ZM103.399 102.979L103.399 104.979L107.399 104.979L107.399 102.979L103.399 102.979Z" fill="#AFBBDB" mask="url(#path-4-inside-2)"/>
<ellipse cx="61.9103" cy="107.97" rx="1.00197" ry="0.993738" transform="rotate(90 61.9103 107.97)" fill="#AFBBDB"/>
<ellipse cx="94.8991" cy="107.976" rx="0.998175" ry="0.989976" transform="rotate(90 94.8991 107.976)" fill="#AFBBDB"/>
<ellipse cx="105.399" cy="103.98" rx="0.998175" ry="0.989976" transform="rotate(90 105.399 103.98)" fill="#AFBBDB"/>
<ellipse cx="105.399" cy="41.9745" rx="0.998175" ry="0.989976" transform="rotate(90 105.399 41.9745)" fill="#AFBBDB"/>
<ellipse cx="91.3945" cy="84.0524" rx="0.998175" ry="0.989976" transform="rotate(90 91.3945 84.0524)" fill="#AFBBDB"/>
<ellipse cx="65.4009" cy="84.0421" rx="1.00843" ry="0.997666" transform="rotate(90 65.4009 84.0421)" fill="#AFBBDB"/>
<path d="M85.3888 87.0402C85.3888 83.1852 82.2037 80.0601 78.3487 80.0601C74.4936 80.0601 71.3685 83.1852 71.3685 87.0402V92.9725H69.3685V87.0402C69.3685 82.0806 73.3891 78.0601 78.3487 78.0601C83.3083 78.0601 87.3888 82.0806 87.3888 87.0402V92.9725H85.3888V87.0402Z" fill="#2D4ADE"/>
<rect x="46.4576" y="57.9829" width="48.9432" height="10.9953" rx="3" stroke="#AFBBDB" stroke-width="2"/>
<path d="M49.4901 74.0449C48.3856 74.0449 47.4901 74.9404 47.4901 76.0449V81.0505C47.4901 82.1551 48.3856 83.0505 49.4901 83.0505H65.3907V85.0505H49.4901C47.281 85.0505 45.4901 83.2597 45.4901 81.0505V76.0449C45.4901 73.8358 47.281 72.0449 49.4901 72.0449H86.9069V74.0449H49.4901Z" fill="#AFBBDB"/>
<path d="M92.4007 83.0505C93.5053 83.0505 94.4007 82.1551 94.4007 81.0505L94.4007 76.0449C94.4007 74.9404 93.5053 74.0449 92.4007 74.0449L77.4128 74.0449L77.4128 72.0449L92.4007 72.0449C94.6098 72.0449 96.4007 73.8358 96.4007 76.0449L96.4007 81.0505C96.4007 83.2597 94.6098 85.0505 92.4007 85.0505L91.4071 85.0505L91.4071 83.0505L92.4007 83.0505Z" fill="#AFBBDB"/>
<path d="M49.3998 65.0372C49.3998 64.4846 49.8478 64.0366 50.4004 64.0366H56.3993C56.9519 64.0366 57.3999 64.4846 57.3999 65.0372V65.0372C57.3999 65.5898 56.9519 66.0378 56.3993 66.0378H50.4004C49.8478 66.0378 49.3998 65.5898 49.3998 65.0372V65.0372Z" fill="#2D4ADE"/>
<path d="M58.3947 65.0138C58.3947 64.4615 58.8424 64.0132 59.3947 64.0132V64.0132C59.9469 64.0132 60.3947 64.4615 60.3947 65.0138V65.0138C60.3947 65.566 59.9469 66.0143 59.3947 66.0143V66.0143C58.8424 66.0143 58.3947 65.566 58.3947 65.0138V65.0138Z" fill="#2D4ADE"/>
<path d="M61.3896 65.0138C61.3896 64.4615 61.8374 64.0132 62.3896 64.0132V64.0132C62.9419 64.0132 63.3896 64.4615 63.3896 65.0138V65.0138C63.3896 65.566 62.9419 66.0143 62.3896 66.0143V66.0143C61.8374 66.0143 61.3896 65.566 61.3896 65.0138V65.0138Z" fill="#2D4ADE"/>
<path d="M49.3998 80.0584C49.3998 79.5058 49.8478 79.0579 50.4004 79.0579H56.3993C56.9519 79.0579 57.3999 79.5058 57.3999 80.0584V80.0584C57.3999 80.611 56.9519 81.059 56.3993 81.059H50.4004C49.8478 81.059 49.3998 80.611 49.3998 80.0584V80.0584Z" fill="#2D4ADE"/>
<path d="M58.3947 80.035C58.3947 79.4827 58.8424 79.0344 59.3947 79.0344V79.0344C59.9469 79.0344 60.3947 79.4827 60.3947 80.035V80.035C60.3947 80.5873 59.9469 81.0356 59.3947 81.0356V81.0356C58.8424 81.0356 58.3947 80.5873 58.3947 80.035V80.035Z" fill="#2D4ADE"/>
<path d="M61.3896 80.035C61.3896 79.4827 61.8374 79.0344 62.3896 79.0344V79.0344C62.9419 79.0344 63.3896 79.4827 63.3896 80.035V80.035C63.3896 80.5873 62.9419 81.0356 62.3896 81.0356V81.0356C61.8374 81.0356 61.3896 80.5873 61.3896 80.035V80.035Z" fill="#2D4ADE"/>
<path fill-rule="evenodd" clip-rule="evenodd" d="M87.4256 94.0288H69.4984C68.3938 94.0288 67.4984 94.9242 67.4984 96.0288L67.4984 111.135C67.4984 112.24 68.3938 113.135 69.4984 113.135H87.4256C88.5302 113.135 89.4256 112.24 89.4256 111.135V96.0288C89.4256 94.9242 88.5302 94.0288 87.4256 94.0288ZM69.4984 92.0288C67.2892 92.0288 65.4984 93.8197 65.4984 96.0288L65.4984 111.135C65.4984 113.345 67.2892 115.135 69.4984 115.135H87.4256C89.6347 115.135 91.4256 113.345 91.4256 111.135V96.0288C91.4256 93.8197 89.6347 92.0288 87.4256 92.0288H69.4984Z" fill="#2D4ADE"/>
<path d="M77.3985 108.04H79.4083V105.402C80.5128 105.402 81.4122 103.951 81.4122 105.056V108.04C81.4122 109.144 80.5437 110.005 79.4391 110.005H77.3985C76.2939 110.005 75.3985 109.109 75.3985 108.005V105.03C75.3985 103.925 76.2939 105.055 77.3985 105.055V108.04Z" fill="#2D4ADE"/>
<path d="M81.3933 102.055C81.3933 100.387 80.0407 99.0342 78.3721 99.0342C76.7035 99.0342 75.3508 100.387 75.3508 102.055C75.3508 102.74 75.8415 104.228 77.3649 104.528C77.46 104.654 77.3965 106.679 77.3965 106.679C74.6868 106.369 73.3508 104.132 73.3508 102.055C73.3508 99.2823 75.5989 97.0342 78.3721 97.0342C81.1452 97.0342 83.3933 99.2823 83.3933 102.055C83.3933 104.08 82.0933 106.407 79.4095 106.679V104.528C80.8928 104.188 81.3933 102.74 81.3933 102.055Z" fill="#2D4ADE"/>
<path d="M49.3998 50.0489C49.3998 49.4963 49.8478 49.0483 50.4004 49.0483H56.3993C56.9519 49.0483 57.3999 49.4963 57.3999 50.0489V50.0489C57.3999 50.6015 56.9519 51.0495 56.3993 51.0495H50.4004C49.8478 51.0495 49.3998 50.6015 49.3998 50.0489V50.0489Z" fill="#2D4ADE"/>
<path d="M58.3947 50.0255C58.3947 49.4732 58.8424 49.0249 59.3947 49.0249V49.0249C59.9469 49.0249 60.3947 49.4732 60.3947 50.0255V50.0255C60.3947 50.5778 59.9469 51.0261 59.3947 51.0261V51.0261C58.8424 51.0261 58.3947 50.5778 58.3947 50.0255V50.0255Z" fill="#2D4ADE"/>
<path d="M61.3896 50.0255C61.3896 49.4732 61.8374 49.0249 62.3896 49.0249V49.0249C62.9419 49.0249 63.3896 49.4732 63.3896 50.0255V50.0255C63.3896 50.5778 62.9419 51.0261 62.3896 51.0261V51.0261C61.8374 51.0261 61.3896 50.5778 61.3896 50.0255V50.0255Z" fill="#2D4ADE"/>
<rect x="46.4001" y="43.0537" width="48.9872" height="10.9623" rx="3" stroke="#AFBBDB" stroke-width="2"/>
</svg>
