<svg width="146" height="146" viewBox="0 0 146 146" fill="none" xmlns="http://www.w3.org/2000/svg">
<circle cx="72.9142" cy="72.9569" r="72.0097" stroke="#B1B8D0"/>
<rect x="61.4486" y="96.0979" width="2.02672" height="20.9828" fill="#AFBBDB"/>
<rect x="83.458" y="96.3186" width="2.02519" height="20.768" fill="#AFBBDB"/>
<rect x="52.4639" y="115.101" width="41.0051" height="1.98581" rx="0.992903" fill="#AFBBDB"/>
<rect x="31.5459" y="86.0244" width="83.9368" height="1.97677" fill="#AFBBDB"/>
<circle cx="73.4108" cy="91.9966" r="0.998553" fill="#AFBBDB"/>
<path d="M67.4706 97.0979H79.4704V104.057C79.4704 107.37 76.7841 110.057 73.4705 110.057C70.1568 110.057 67.4706 107.37 67.4706 104.057V97.0979Z" stroke="#AFBBDB" stroke-width="2"/>
<path d="M34.4482 44.1218C33.3437 44.1218 32.4482 45.0172 32.4482 46.1218V93.9996C32.4482 95.1041 33.3437 95.9996 34.4482 95.9996H111.483C112.587 95.9996 113.483 95.1041 113.483 93.9996V46.0937C113.483 44.9891 112.587 44.0937 111.483 44.0937H110.467V42.0911L111.483 42.0937C113.692 42.0937 115.483 43.8845 115.483 46.0937V93.9996C115.483 96.2087 113.692 97.9996 111.483 97.9996H34.4482C32.2391 97.9996 30.4482 96.2087 30.4482 93.9996V46.1218C30.4482 43.9127 32.2391 42.1218 34.4482 42.1218L73.4733 42.0953V44.0953L34.4482 44.1218Z" fill="#AFBBDB"/>
<path d="M74.4683 43.0933C74.4683 43.6445 74.0214 44.0914 73.4702 44.0914C72.919 44.0914 72.4722 43.6445 72.4722 43.0933C72.4722 42.5421 72.919 42.0953 73.4702 42.0953C74.0214 42.0953 74.4683 42.5421 74.4683 43.0933Z" fill="#AFBBDB"/>
<path d="M111.471 43.0903C111.471 43.6424 111.023 44.0899 110.471 44.0899C109.919 44.0899 109.471 43.6424 109.471 43.0903C109.471 42.5382 109.919 42.0906 110.471 42.0906C111.023 42.0906 111.471 42.5382 111.471 43.0903Z" fill="#AFBBDB"/>
<path d="M91.9775 30.0913C84.5079 30.0913 78.4525 36.1467 78.4525 43.6163C78.4525 50.2113 83.1729 55.7039 89.4193 56.8997L89.1416 58.8829C81.9216 57.5502 76.4525 51.2219 76.4525 43.6163C76.4525 35.0421 83.4033 28.0913 91.9775 28.0913C99.1765 28.0913 105.231 32.9912 106.988 39.6379L105.025 40.0414C103.457 34.3065 98.2097 30.0913 91.9775 30.0913Z" fill="#AFBBDB"/>
<path d="M92.424 59.1388L91.9775 57.1411C92.4554 57.1411 92.9275 57.1163 93.3926 57.068C100.197 56.3605 105.503 50.6079 105.503 43.6161L107.503 43.0032V43.6161C107.503 51.7057 101.315 58.3502 93.4148 59.0755C92.9416 59.1189 92.9086 59.1388 92.424 59.1388Z" fill="#2D4ADE"/>
<rect x="91.4104" y="28.8003" width="1.98487" height="11.1962" fill="#AFBBDB"/>
<path d="M91.4104 43.9721V43.0244L92.4095 42.0532H93.3953V58.6451L91.4104 58.1519V57.1404V43.9721Z" fill="#2D4ADE"/>
<path d="M91.4104 44.0381L93.4097 42.0532L105.421 42.0532L106.481 42.0532L107.293 44.0381L91.4104 44.0381Z" fill="#2D4ADE"/>
<circle cx="43.5064" cy="77.0909" r="2.96198" stroke="#2D4ADE" stroke-width="2"/>
<circle cx="43.5064" cy="77.0909" r="2.96198" stroke="#2D4ADE" stroke-width="2"/>
<circle cx="59.43" cy="67.9564" r="2.96198" stroke="#2D4ADE" stroke-width="2"/>
<circle cx="59.43" cy="67.9564" r="2.96198" stroke="#2D4ADE" stroke-width="2"/>
<circle cx="91.4565" cy="68.0543" r="2.96198" stroke="#2D4ADE" stroke-width="2"/>
<circle cx="91.4565" cy="68.0543" r="2.96198" stroke="#2D4ADE" stroke-width="2"/>
<circle cx="75.3886" cy="77.0909" r="2.96198" stroke="#2D4ADE" stroke-width="2"/>
<circle cx="75.3886" cy="77.0909" r="2.96198" stroke="#2D4ADE" stroke-width="2"/>
<rect x="44.9905" y="74.9453" width="13.6575" height="1.9946" transform="rotate(-30 44.9905 74.9453)" fill="#2D4ADE"/>
<rect x="76.9655" y="74.9453" width="13.6575" height="1.9946" transform="rotate(-30 76.9655 74.9453)" fill="#2D4ADE"/>
<rect x="61.7892" y="68.0542" width="13.6575" height="1.9946" transform="rotate(30 61.7892 68.0542)" fill="#2D4ADE"/>
<rect x="38.42" y="50.0051" width="6.01087" height="1.99463" rx="0.997314" fill="#2D4ADE"/>
<rect x="46.4235" y="50.0051" width="24.0017" height="1.99463" rx="0.997314" fill="#2D4ADE"/>
<path d="M100.048 42.6986C100.437 42.3091 101.069 42.3091 101.458 42.6986L105.805 47.0453C106.194 47.4347 106.194 48.0662 105.805 48.4557V48.4557C105.415 48.8451 104.784 48.8451 104.394 48.4557L100.048 44.109C99.6584 43.7196 99.6584 43.0881 100.048 42.6986V42.6986Z" fill="#2D4ADE"/>
<path d="M91.9315 51.4308C92.321 51.0413 92.9525 51.0414 93.3419 51.4309L97.8372 55.9266C98.2267 56.316 98.2267 56.9475 97.8372 57.3369V57.3369C97.4477 57.7264 96.8162 57.7264 96.4267 57.3369L91.9314 52.8412C91.542 52.4517 91.542 51.8203 91.9315 51.4308V51.4308Z" fill="#2D4ADE"/>
<path d="M91.7016 45.5705C92.0911 45.181 92.7226 45.181 93.1121 45.5705L101.293 53.7528C101.683 54.1423 101.683 54.7737 101.293 55.1632V55.1632C100.904 55.5526 100.272 55.5526 99.883 55.1631L91.7016 46.9809C91.3121 46.5914 91.3122 45.9599 91.7016 45.5705V45.5705Z" fill="#2D4ADE"/>
<path d="M94.4814 42.7038C94.8709 42.3143 95.5024 42.3143 95.8919 42.7038L103.798 50.6098C104.187 50.9993 104.187 51.6308 103.798 52.0202V52.0202C103.408 52.4097 102.777 52.4097 102.387 52.0202L94.4814 44.1142C94.092 43.7247 94.092 43.0932 94.4814 42.7038V42.7038Z" fill="#2D4ADE"/>
<rect x="38.42" y="54.0002" width="6.01087" height="1.99463" rx="0.997314" fill="#2D4ADE"/>
<rect x="46.4235" y="54.0002" width="24.0017" height="1.99463" rx="0.997314" fill="#2D4ADE"/>
<rect x="38.42" y="57.9949" width="6.01087" height="1.99463" rx="0.997314" fill="#2D4ADE"/>
<rect x="46.4235" y="57.9949" width="24.0017" height="1.99463" rx="0.997314" fill="#2D4ADE"/>
<circle cx="92.4028" cy="43.0457" r="0.992437" fill="#2D4ADE"/>
<circle cx="92.4028" cy="39.9963" r="0.992437" fill="#AFBBDB"/>
<circle cx="89.2452" cy="57.8842" r="1.0058" fill="#AFBBDB"/>
<circle cx="106.008" cy="39.8636" r="1.00476" fill="#AFBBDB"/>
<circle cx="92.4028" cy="58.1489" r="0.992437" fill="#2D4ADE"/>
<circle cx="106.51" cy="43.0457" r="0.992437" fill="#2D4ADE"/>
</svg>
