<svg width="146" height="146" viewBox="0 0 146 146" fill="none" xmlns="http://www.w3.org/2000/svg">
<circle cx="73.0769" cy="72.9569" r="72.0097" stroke="#B1B8D0"/>
<path d="M30.0386 70.1174C29.5565 69.8364 29.3923 69.2185 29.6713 68.7352V68.7352C29.9519 68.2491 30.5742 68.0838 31.0591 68.3664L46.2546 77.2229C46.7367 77.5039 46.9009 78.1218 46.6219 78.6051V78.6051C46.3413 79.0911 45.719 79.2565 45.2341 78.9739L30.0386 70.1174Z" fill="#2D4ADE"/>
<path d="M55.9242 70.8368C56.4097 70.5456 57.0397 70.7088 57.3228 71.1991V71.1991C57.5993 71.678 57.4407 72.2902 56.9665 72.5746L46.3258 78.9572C45.8402 79.2484 45.2102 79.0853 44.9271 78.5949V78.5949C44.6506 78.116 44.8092 77.5039 45.2834 77.2194L55.9242 70.8368Z" fill="#2D4ADE"/>
<circle cx="86.5493" cy="70.0811" r="25.0164" stroke="#AFBBDB" stroke-width="2"/>
<path d="M95.12 53.7077C86.5094 48.7364 75.4992 51.6866 70.5279 60.2972C67.2518 65.9716 67.4159 72.6882 70.3732 78.0318C70.3732 78.0318 69.1496 79.236 69.0723 79.1951C68.9951 79.1541 68.7205 79.1748 68.6833 79.1087C65.3405 73.1543 65.1339 65.6398 68.7959 59.2972C74.3194 49.73 86.5529 46.4521 96.12 51.9757L95.12 53.7077Z" fill="#2D4ADE"/>
<path d="M91.9425 59.2116C86.2862 55.946 79.0537 57.884 75.7881 63.5402C73.1723 68.0708 73.8952 73.6127 77.1932 77.3173L75.6081 78.5443C71.8299 74.214 71.022 67.7952 74.056 62.5402C75.2833 60.4144 76.99 58.7378 78.9606 57.5682C79.5035 57.2459 80.6731 58.4767 81.2515 58.2326C81.8149 57.9949 81.7863 56.2803 82.3749 56.119C85.8128 55.1769 89.6115 55.5564 92.9425 57.4796L91.9425 59.2116Z" fill="#2D4ADE"/>
<path d="M89.0501 64.2213C86.2063 62.5794 82.5699 63.5538 80.9281 66.3975C79.2862 69.2413 80.2606 72.8777 83.1044 74.5195L82.1044 76.2516C78.304 74.0574 77.0019 69.1979 79.196 65.3975C81.3902 61.5972 86.2497 60.2951 90.0501 62.4892L89.0501 64.2213Z" fill="#2D4ADE"/>
<rect x="95.1977" y="51.4778" width="2.12482" height="21.9892" rx="1.06241" transform="rotate(30 95.1977 51.4778)" fill="#2D4ADE"/>
<circle cx="76.4023" cy="77.9361" r="0.997516" transform="rotate(30 76.4023 77.9361)" fill="#2D4ADE"/>
<circle cx="69.5406" cy="78.5831" r="0.997516" transform="rotate(30 69.5406 78.5831)" fill="#2D4ADE"/>
<circle cx="82.534" cy="75.3477" r="0.997516" transform="rotate(30 82.534 75.3477)" fill="#2D4ADE"/>
<circle cx="101.606" cy="67.0659" r="1.94796" stroke="#AFBBDB" stroke-width="2"/>
<circle cx="80.56" cy="56.2313" r="1.99472" stroke="#2D4ADE" stroke-width="2"/>
<path d="M32.5829 67.9768C31.4783 67.9768 30.5829 68.8722 30.5829 69.9768V87.9899C30.5829 89.0944 31.4783 89.9899 32.5829 89.9899H58.5381C59.6426 89.9899 60.5381 89.0944 60.5381 87.9899V84.0022H62.5381V87.9899C62.5381 90.199 60.7472 91.9899 58.5381 91.9899H32.5829C30.3738 91.9899 28.5829 90.199 28.5829 87.9899V69.9768C28.5829 67.7677 30.3737 65.9768 32.5829 65.9768H56.4382V67.9768H32.5829Z" fill="#2D4ADE"/>
<circle cx="56.3992" cy="66.9749" r="0.998134" fill="#2D4ADE"/>
<circle cx="61.5399" cy="83.9842" r="0.998134" fill="#2D4ADE"/>
<path d="M74.0769 109.694C62.1769 109.694 51.6161 103.96 45.0063 95.105L46.6398 93.9497C52.887 102.294 62.8513 107.694 74.0769 107.694C83.7371 107.694 92.4633 103.695 98.6904 97.2619L100.147 98.6328C93.555 105.453 84.3112 109.694 74.0769 109.694Z" fill="#2D4ADE"/>
<circle cx="45.8326" cy="94.5382" r="0.998134" fill="#2D4ADE"/>
<path d="M74.077 39.188C78.5593 39.188 82.8405 40.049 86.7643 41.6145L87.5532 39.8806C83.3228 38.1506 78.93 37.188 74.077 37.188C57.8935 37.188 44.1868 47.7921 39.5261 62.4311L41.4161 63.0891C45.8042 49.2315 58.7677 39.188 74.077 39.188Z" fill="#AFBBDB"/>
<rect x="38.6356" y="58.5358" width="0.990764" height="4.95358" rx="0.495382" transform="rotate(-18.9397 38.6356 58.5358)" fill="#C4C4C4" stroke="#AFBBDB" stroke-width="0.990764"/>
<rect x="44.0554" y="59.6588" width="0.990764" height="4.95358" rx="0.495382" transform="rotate(56.0603 44.0554 59.6588)" fill="#C4C4C4" stroke="#AFBBDB" stroke-width="0.990764"/>
<rect x="100.519" y="101.225" width="0.990764" height="4.95358" rx="0.495382" transform="rotate(176.06 100.519 101.225)" fill="#C4C4C4" stroke="#2D4ADE" stroke-width="0.990764"/>
<rect x="95.5747" y="98.7378" width="0.990764" height="4.95358" rx="0.495382" transform="rotate(-108.94 95.5747 98.7378)" fill="#C4C4C4" stroke="#2D4ADE" stroke-width="0.990764"/>
<circle cx="87.1067" cy="40.731" r="0.963894" fill="#AFBBDB"/>
</svg>
