<svg width="146" height="146" viewBox="0 0 146 146" fill="none" xmlns="http://www.w3.org/2000/svg">
<circle cx="73.0769" cy="73.3973" r="72.0097" stroke="#B1B8D0"/>
<path d="M30.5597 44.0278C30.5597 41.8187 32.3506 40.0278 34.5597 40.0278H111.594C113.803 40.0278 115.594 41.8187 115.594 44.0278V92.0487C115.594 94.2578 113.803 96.0487 111.594 96.0487H34.5597C32.3506 96.0487 30.5597 94.2578 30.5597 92.0487V44.0278Z" fill="white"/>
<path d="M102.678 34.9893H75.4895C72.7782 34.9893 70.5724 37.1555 70.5724 39.8181V58.1518C70.5724 60.6295 72.24 62.7934 75.4696 62.9499V66.0632C75.4696 66.4538 75.7093 66.806 76.0767 66.9555C76.1983 67.0051 76.4256 67.0288 76.5523 67.0288C76.8082 67.0288 77.134 66.9309 77.3221 66.7462L81.1446 62.9807H102.678C105.389 62.9807 107.595 60.8145 107.595 58.1518V39.8181C107.595 37.1555 105.389 34.9893 102.678 34.9893ZM105.628 58.1518C105.628 59.7494 104.305 61.0492 102.678 61.0492H80.6557C80.3949 61.0492 80.1448 61.1509 79.9604 61.332L77.4364 63.9445V62.0149C77.4364 61.4815 76.9961 61.0492 76.453 61.0492H76.0269C74.4001 61.0492 72.5392 59.7494 72.5392 58.1518V39.8181C72.5392 38.2205 73.8627 36.9208 75.4895 36.9208H102.678C104.305 36.9208 105.628 38.2205 105.628 39.8181V58.1518Z" fill="#2D4ADE"/>
<rect x="61.5601" y="94.0083" width="2.02672" height="20.9828" fill="#AFBBDB"/>
<rect x="83.5695" y="94.229" width="2.02519" height="20.768" fill="#AFBBDB"/>
<rect x="52.5753" y="113.011" width="41.0051" height="1.98581" rx="0.992903" fill="#AFBBDB"/>
<path d="M42.5583 79.0039C42.5583 73.4811 47.0355 69.0039 52.5583 69.0039H62.5695C68.0923 69.0039 72.5695 73.4811 72.5695 79.0039V86.0142H42.5583V79.0039Z" fill="white"/>
<path d="M57.6178 51.1533H63.4842C64.0365 51.1533 64.4842 51.601 64.4842 52.1533V63.069C64.4842 66.8981 61.3801 70.0022 57.551 70.0022C53.7219 70.0022 50.6178 66.8981 50.6178 63.069V58.1533C50.6178 54.2873 53.7518 51.1533 57.6178 51.1533Z" fill="white" stroke="#2D4ADE" stroke-width="2"/>
<rect x="31.6573" y="84.0376" width="83.9368" height="1.97677" fill="#AFBBDB"/>
<path d="M57.4799 51.1533H63.4842C64.0365 51.1533 64.4842 51.601 64.4842 52.1533V54.9809C64.4842 57.1901 62.6934 58.9809 60.4842 58.9809H51.5833C51.0501 58.9809 50.6178 58.5486 50.6178 58.0154C50.6178 54.2256 53.6901 51.1533 57.4799 51.1533Z" fill="white" stroke="#2D4ADE" stroke-width="2"/>
<path d="M57.5748 74.0641L62.4084 69.2306L63.5392 69.3742C64.3202 70.1552 64.6036 69.8637 63.8226 70.6448L58.989 75.4784C58.208 76.2594 56.9416 76.2594 56.1606 75.4783L51.62 70.9372C50.8389 70.1562 51.2452 69.8874 52.0262 69.1064L53.3344 69.8232L57.5748 74.0641Z" fill="#2D4ADE"/>
<circle cx="73.5709" cy="89.9995" r="0.998553" fill="#AFBBDB"/>
<path d="M67.582 95.0083H79.5818V101.967C79.5818 105.281 76.8956 107.967 73.5819 107.967C70.2683 107.967 67.582 105.281 67.582 101.967V95.0083Z" stroke="#AFBBDB" stroke-width="2"/>
<path d="M34.5597 42.0322C33.4551 42.0322 32.5597 42.9276 32.5597 44.0322V92.0531C32.5597 93.1577 33.4551 94.0531 34.5597 94.0531H111.594C112.699 94.0531 113.594 93.1577 113.594 92.0531V44.0041C113.594 42.8995 112.699 42.0041 111.594 42.0041H110.578V40.0015L111.594 40.0041C113.803 40.0041 115.594 41.7949 115.594 44.0041V92.0531C115.594 94.2622 113.803 96.0531 111.594 96.0531H34.5597C32.3506 96.0531 30.5597 94.2622 30.5597 92.0531V44.0322C30.5597 41.8231 32.3506 40.0322 34.5597 40.0322L67.5848 40.0057V42.0057L34.5597 42.0322Z" fill="#AFBBDB"/>
<path d="M68.5797 41.0037C68.5797 41.5549 68.1329 42.0018 67.5817 42.0018C67.0305 42.0018 66.5836 41.5549 66.5836 41.0037C66.5836 40.4525 67.0305 40.0057 67.5817 40.0057C68.1329 40.0057 68.5797 40.4525 68.5797 41.0037Z" fill="#AFBBDB"/>
<path d="M111.582 41.0007C111.582 41.5528 111.134 42.0003 110.582 42.0003C110.03 42.0003 109.583 41.5528 109.583 41.0007C109.583 40.4486 110.03 40.001 110.582 40.001C111.134 40.001 111.582 40.4486 111.582 41.0007Z" fill="#AFBBDB"/>
<rect x="77.0147" y="43.5407" width="24.0257" height="0.978862" rx="0.489431" fill="#C4C4C4" stroke="#AFBBDB" stroke-width="0.978862"/>
<rect x="77.0147" y="48.4733" width="24.0257" height="0.978862" rx="0.489431" fill="#C4C4C4" stroke="#AFBBDB" stroke-width="0.978862"/>
<rect x="77.0147" y="53.5124" width="15.0483" height="0.978862" rx="0.489431" fill="#C4C4C4" stroke="#AFBBDB" stroke-width="0.978862"/>
<path d="M62.5695 71.0039H52.5583C48.1401 71.0039 44.5743 74.5856 44.5743 79.0039V81.0142H42.5743V79.0039C42.5743 73.4811 47.0355 69.0039 52.5583 69.0039H62.5695C68.0923 69.0039 72.5695 73.4811 72.5695 79.0039V81.0142H70.5695V79.0039C70.5695 74.5856 66.9877 71.0039 62.5695 71.0039Z" fill="#2D4ADE"/>
<path d="M44.5704 80.9946C44.5704 81.5469 44.1227 81.9946 43.5704 81.9946C43.0181 81.9946 42.5704 81.5469 42.5704 80.9946C42.5704 80.4423 43.0181 79.9946 43.5704 79.9946C44.1227 79.9946 44.5704 80.4423 44.5704 80.9946Z" fill="#2D4ADE"/>
<circle cx="71.57" cy="80.9917" r="1.0029" fill="#2D4ADE"/>
</svg>
