<svg width="146" height="146" viewBox="0 0 146 146" fill="none" xmlns="http://www.w3.org/2000/svg">
<circle cx="72.9142" cy="73.3973" r="72.0097" stroke="#B1B8D0"/>
<g clip-path="url(#clip0)">
<path d="M89.4794 40.0249H45.429C41.0107 40.0249 37.429 43.6066 37.429 48.0249V92.0493C37.429 96.4675 41.0107 100.049 45.429 100.049H56.4416V102.049H45.429C39.9061 102.049 35.429 97.5721 35.429 92.0493V48.0249C35.429 42.5021 39.9061 38.0249 45.429 38.0249H89.4794C95.0022 38.0249 99.4793 42.5021 99.4793 48.0249V68.0371H97.4793V48.0249C97.4793 43.6066 93.8976 40.0249 89.4794 40.0249Z" fill="#AFBBDB"/>
<path d="M36.5041 70.0368H44.5763C44.9692 70.0498 45.7236 69.8952 45.5979 69.1722C45.4407 68.2684 44.2348 63.8959 49.3767 61.6317C53.3777 59.8698 56.6984 62.442 57.6307 64.5794C58.451 66.4601 58.2925 67.8587 57.9732 68.8624C57.6641 69.8338 58.2594 70.037 59.9097 70.037C61.1059 70.037 65.5597 70.0427 67.4982 70.0165" stroke="#AFBBDB" stroke-width="2"/>
<path d="M67.4773 70.5256C67.5034 72.4641 67.4977 78.1603 67.4977 79.3565C67.4977 81.0068 67.2945 81.6021 66.3231 81.293C65.3194 80.9737 63.5858 80.8172 61.7051 81.6375C59.5676 82.5699 57.4768 85.4987 58.853 89.6853C59.4637 91.5432 60.877 92.6895 61.9185 93.2634" stroke="#AFBBDB" stroke-width="2"/>
<path d="M67.4971 39.3987L67.4971 47.4709C67.4841 47.8638 67.6387 48.6182 68.3617 48.4925C69.2655 48.3353 74.5064 48.0189 76.0204 52.3015C77.5344 56.584 74.7821 59.6065 72.6447 60.5388C70.7639 61.3592 69.379 61.117 68.2998 60.8012C67.3215 60.5148 67.4792 61.3614 67.4792 63.0117C67.4792 64.2079 67.4775 68.4238 67.5037 70.3623" stroke="#AFBBDB" stroke-width="2"/>
<path d="M98.467 67.7716C98.467 67.7716 98.467 68.4283 98.467 69.2635C98.467 70.0987 97.2765 70.0004 97.2765 70.0004L90.1203 70.0004C89.7273 69.9874 88.9729 70.142 89.0986 70.865C89.1563 71.1968 89.3622 72.0293 89.3392 73.0648M67.2973 70.021C69.2358 69.9948 73.6381 70.021 74.8343 70.021C76.4846 70.021 77.5 69.9133 77.0285 70.8171C76.557 71.7208 76.293 73.5235 77.1133 75.4043C77.5986 76.5168 78.6983 77.8427 80.2055 78.6101" stroke="#AFBBDB" stroke-width="2"/>
<path d="M65.8821 85.296C64.8469 85.6812 64.32 86.8327 64.7052 87.868L67.8799 96.6565L69.7543 95.9589L66.5797 87.1704L74.877 84.0983L74.5139 83.1767L74.1795 82.2238L65.8821 85.296Z" fill="#2D4ADE"/>
<path d="M74.7334 114.816C75.1186 115.851 76.2701 116.378 77.3053 115.993L88.4364 111.851L96.7916 108.681L96.0871 106.87L93.3043 107.905L87.7388 109.976L76.6078 114.119L73.8448 106.977L71.9703 107.675L74.7334 114.816Z" fill="#2D4ADE"/>
<path d="M103.687 98.7068L95.4022 76.4448C95.017 75.4096 93.8654 74.8826 92.8302 75.2679L85.1639 78.1225L85.4893 79.0031L85.8614 79.9969L93.5278 77.1423L97.6699 88.2733L99.741 93.8388L101.812 99.4043C102.297 100.706 102.204 102.082 101.663 103.25L103.258 104.524C104.205 102.802 104.426 100.693 103.687 98.7068Z" fill="#2D4ADE"/>
<path d="M63.0909 102.762C63.0909 105.769 65.5289 108.207 68.5362 108.207C69.6182 108.207 70.6264 107.892 71.474 107.348C71.779 107.152 71.9358 106.957 72.117 106.803C72.117 106.803 73.0765 105.94 73.7407 106.803C74.4048 107.666 73.1147 108.642 73.1147 108.642C72.8953 108.824 72.778 108.906 72.3067 109.183C71.2008 109.834 69.9121 110.207 68.5362 110.207C64.4243 110.207 61.0909 106.874 61.0909 102.762C61.0909 100.8 61.8502 99.0146 63.0909 97.6846C64.45 96.2278 66.3867 95.3169 68.5362 95.3169C68.5362 95.3169 69.8798 95.3107 69.816 96.3729C69.7522 97.4351 68.5362 97.3169 68.5362 97.3169C66.8583 97.3169 65.3577 98.0758 64.3589 99.269C63.5674 100.214 63.0909 101.433 63.0909 102.762Z" fill="#2D4ADE"/>
<path d="M80.9279 88.9153C83.9352 88.9153 86.3732 86.4774 86.3732 83.47C86.3732 82.3881 86.0576 81.3798 85.5135 80.5322C85.3176 80.2272 85.1228 80.0704 84.9689 79.8893C84.9689 79.8893 84.1059 78.9297 84.9689 78.2656C85.8319 77.6014 86.8076 78.8915 86.8076 78.8915C86.9893 79.1109 87.0718 79.2282 87.3492 79.6996C87.9999 80.8054 88.3732 82.0941 88.3732 83.47C88.3732 87.5819 85.0398 90.9153 80.9279 90.9153C78.9655 90.9153 77.1804 90.156 75.8504 88.9153C74.3936 87.5562 73.4827 85.6195 73.4827 83.47C73.4827 83.47 73.4765 82.1264 74.5387 82.1902C75.6008 82.254 75.4827 83.47 75.4827 83.47C75.4827 85.1479 76.2415 86.6485 77.4348 87.6474C78.3802 88.4388 79.5984 88.9153 80.9279 88.9153Z" fill="#2D4ADE"/>
<circle cx="80.264" cy="78.6302" r="1.00373" fill="#AFBBDB"/>
<circle cx="89.33" cy="73.0176" r="1.00373" fill="#AFBBDB"/>
<path d="M105.003 106.242L96.3463 97.5855C95.5228 96.8867 93.8479 96.107 92.3414 97.1851C90.9606 98.1732 90.7611 99.2727 90.9607 100.526C91.1682 101.829 92.9267 103.377 94.3438 104.671C95.4775 105.706 96.5044 106.889 96.5044 107.17C96.5249 107.776 96.6535 109.067 97.3581 110.39C98.2285 112.024 99.7042 113.081 100.752 113.667C101.59 114.135 103.114 114.396 103.771 114.468" stroke="#2D4ADE" stroke-width="2"/>
<path d="M98.3461 87.0581L109.34 94.4987C111.096 95.8234 112.076 97.0063 112.027 101.467C111.978 105.928 112.007 112.383 112.027 115.053" stroke="#2D4ADE" stroke-width="2"/>
<path d="M89.8353 110.099C89.9995 110.737 90.5575 112.222 91.4766 113.053C92.3956 113.885 93.3822 114.403 93.7606 114.558" stroke="#2D4ADE" stroke-width="2"/>
<circle cx="93.7606" cy="114.558" r="0.993413" fill="#2D4ADE"/>
<circle cx="103.75" cy="114.468" r="0.993413" fill="#2D4ADE"/>
<circle cx="105.03" cy="106.261" r="0.993413" fill="#2D4ADE"/>
<circle cx="112.029" cy="115.053" r="0.993413" fill="#2D4ADE"/>
<circle cx="56.4825" cy="101.046" r="1.00373" fill="#AFBBDB"/>
<circle cx="61.9175" cy="93.2635" r="1.00373" fill="#AFBBDB"/>
</g>
<defs>
<clipPath id="clip0">
<rect width="79" height="79" fill="white" transform="translate(34.8673 38.0249)"/>
</clipPath>
</defs>
</svg>
