<svg width="72" height="71" viewBox="0 0 72 71" fill="none" xmlns="http://www.w3.org/2000/svg">
<rect x="1.01123" y="0.064209" width="70" height="70" rx="20" fill="url(#paint0_linear)"/>
<path d="M24.3711 25.0254C24.3711 24.4731 24.8188 24.0254 25.3711 24.0254H46.4235C46.9758 24.0254 47.4235 24.4731 47.4235 25.0254V28.0158C47.4235 28.5681 46.9758 29.0158 46.4235 29.0158H25.3711C24.8188 29.0158 24.3711 28.5681 24.3711 28.0158V25.0254ZM33.4091 34.0327C33.4091 33.4804 33.8568 33.0327 34.4091 33.0327H37.4061C37.9584 33.0327 38.4061 33.4804 38.4061 34.0327V37.0169C38.4061 37.5692 37.9584 38.0169 37.4061 38.0169H34.4091C33.8568 38.0169 33.4091 37.5692 33.4091 37.0169V34.0327ZM42.3701 34.0327C42.3701 33.4804 42.8178 33.0327 43.3701 33.0327H46.4235C46.9758 33.0327 47.4235 33.4804 47.4235 34.0327V37.0169C47.4235 37.5692 46.9758 38.0169 46.4235 38.0169H43.3701C42.8178 38.0169 42.3701 37.5692 42.3701 37.0169V34.0327ZM24.4251 33.9893C24.4251 33.437 24.8728 32.9893 25.4251 32.9893H28.4108C28.9631 32.9893 29.4108 33.437 29.4108 33.9893V37.0169C29.4108 37.5692 28.9631 38.0169 28.4108 38.0169H25.4251C24.8728 38.0169 24.4251 37.5692 24.4251 37.0169V33.9893ZM33.4091 43.04C33.4091 42.4878 33.8568 42.04 34.4091 42.04H37.4061C37.9584 42.04 38.4061 42.4878 38.4061 43.04V46.0095C38.4061 46.5618 37.9584 47.0095 37.4061 47.0095H34.4091C33.8568 47.0095 33.4091 46.5618 33.4091 46.0095V43.04ZM42.3701 43.04C42.3701 42.4878 42.8178 42.04 43.3701 42.04H46.4235C46.9758 42.04 47.4235 42.4878 47.4235 43.04V46.1113C47.4235 46.6636 46.9758 47.1113 46.4235 47.1113H43.3701C42.8178 47.1113 42.3701 46.6636 42.3701 46.1113V43.04ZM24.3711 43.0134C24.3711 42.4611 24.8188 42.0134 25.3711 42.0134H28.4107C28.963 42.0134 29.4107 42.4611 29.4107 43.0134V46.0095C29.4107 46.5618 28.963 47.0095 28.4107 47.0095H25.3711C24.8188 47.0095 24.3711 46.5618 24.3711 46.0095V43.0134Z" stroke="white" stroke-width="2"/>
<defs>
<linearGradient id="paint0_linear" x1="36.0112" y1="0.064209" x2="36.0112" y2="70.0642" gradientUnits="userSpaceOnUse">
<stop stop-color="#5A72F2"/>
<stop offset="1" stop-color="#445DDE"/>
</linearGradient>
</defs>
</svg>
