<svg width="20" height="23" viewBox="0 0 20 23" fill="none" xmlns="http://www.w3.org/2000/svg">
<path fill-rule="evenodd" clip-rule="evenodd" d="M3 4.07483C2.44772 4.07483 2 4.52254 2 5.07483V19.0748C2 19.6271 2.44772 20.0748 3 20.0748H17C17.5523 20.0748 18 19.6271 18 19.0748V5.07483C18 4.52254 17.5523 4.07483 17 4.07483H3ZM0 5.07483C0 3.41797 1.34315 2.07483 3 2.07483H17C18.6569 2.07483 20 3.41797 20 5.07483V19.0748C20 20.7317 18.6569 22.0748 17 22.0748H3C1.34315 22.0748 0 20.7317 0 19.0748V5.07483Z" fill="#757E9E"/>
<path fill-rule="evenodd" clip-rule="evenodd" d="M14 0.0748291C14.5523 0.0748291 15 0.522544 15 1.07483V5.07483C15 5.62711 14.5523 6.07483 14 6.07483C13.4477 6.07483 13 5.62711 13 5.07483V1.07483C13 0.522544 13.4477 0.0748291 14 0.0748291Z" fill="#757E9E"/>
<path fill-rule="evenodd" clip-rule="evenodd" d="M6 0.0748291C6.55228 0.0748291 7 0.522544 7 1.07483V5.07483C7 5.62711 6.55228 6.07483 6 6.07483C5.44772 6.07483 5 5.62711 5 5.07483V1.07483C5 0.522544 5.44772 0.0748291 6 0.0748291Z" fill="#757E9E"/>
<path fill-rule="evenodd" clip-rule="evenodd" d="M0 9.07483C0 8.52254 0.447715 8.07483 1 8.07483H19C19.5523 8.07483 20 8.52254 20 9.07483C20 9.62711 19.5523 10.0748 19 10.0748H1C0.447715 10.0748 0 9.62711 0 9.07483Z" fill="#757E9E"/>
</svg>
