<?xml version="1.0" encoding="utf-8"?>
<!-- Generator: Adobe Illustrator 23.1.0, SVG Export Plug-In . SVG Version: 6.00 Build 0)  -->
<svg fill="#fff" version="1.1" id="Слой_1" xmlns="http://www.w3.org/2000/svg" xmlns:xlink="http://www.w3.org/1999/xlink" x="0px" y="0px"
	 viewBox="0 0 25 25" style="enable-background:new 0 0 25 25;" xml:space="preserve">
		<path class="st1" d="M20,23.9c-0.1,0-0.2,0-0.3,0c-3.2-0.4-6.4-1.5-9.1-3.2c-2.5-1.6-4.7-3.8-6.3-6.3c-1.8-2.7-2.9-5.9-3.2-9.1
			c0-0.8,0.2-1.6,0.7-2.2s1.2-1,2-1.1C3.9,2,4,2,4.1,2h3c1.5,0,2.8,1.1,3,2.6c0.1,0.9,0.3,1.8,0.6,2.6c0.4,1.1,0.1,2.3-0.7,3.2
			c-0.4,0.4-0.5,1-0.1,1.5c0.9,1.2,2,2.3,3.2,3.2c0.5,0.3,1.1,0.3,1.5-0.1c0.8-0.8,2.1-1.1,3.2-0.7c0.8,0.3,1.7,0.5,2.6,0.6
			c1.5,0.2,2.6,1.5,2.6,3v3c0,0.8-0.3,1.6-0.9,2.1C21.5,23.5,20.8,23.9,20,23.9z M7.1,4h-3C4.1,4,4,4,4,4C3.5,4.1,3.1,4.6,3.1,5.1
			C3.4,8,4.4,10.8,6,13.3c1.5,2.3,3.4,4.3,5.7,5.7c2.5,1.6,5.3,2.6,8.2,2.9c0.4,0,0.6-0.1,0.8-0.3c0.2-0.2,0.3-0.4,0.3-0.7v-3
			c0-0.5-0.4-0.9-0.9-1c-1-0.1-2-0.4-3-0.8C16.7,16,16.3,16,16,16.3l-1.3,1.3c-0.3,0.3-0.8,0.4-1.2,0.2c-2.3-1.3-4.3-3.1-5.7-5.3
			c-0.5-0.7-1-1.7-0.4-2.3l1.3-1.3c0.2-0.2,0.3-0.7,0.2-1c-0.2-0.5-0.4-1-0.5-1.5C8.2,5.4,8.1,4,7.1,4z M19,11c-0.5,0-0.9-0.3-1-0.8
			c-0.3-1.6-1.6-2.8-3.2-3.2c-0.5-0.1-0.9-0.6-0.8-1.2c0.1-0.5,0.6-0.9,1.2-0.8c2.4,0.5,4.3,2.3,4.7,4.7c0.1,0.5-0.1,1-0.6,1.2
			C19.2,10.8,19.1,11,19,11z M23,10.9c-0.5,0-0.9-0.4-1-0.9c-0.4-3.7-3.3-6.6-7.1-7.1C14.4,2.8,14,2.3,14,1.8s0.6-0.9,1.1-0.9
			c4.7,0.5,8.3,4.1,8.8,8.8c0.1,0.5-0.2,0.9-0.8,1.1C23.1,10.7,23.1,10.9,23,10.9z"/>
</svg>
