<svg width="24" height="22" viewBox="0 0 24 22" fill="none" xmlns="http://www.w3.org/2000/svg">
<path d="M23.5076 15.9718V18.9833C23.5023 19.1931 23.4814 19.4029 23.4396 19.6026L23.4291 19.6426C23.3873 19.8324 23.3245 20.0172 23.2408 20.192C23.1519 20.3817 23.042 20.5665 22.9165 20.7363C22.7857 20.9061 22.6445 21.066 22.4823 21.2058C22.3202 21.3506 22.1423 21.4755 21.954 21.5804C21.7709 21.6852 21.5722 21.7702 21.3577 21.8401C21.1432 21.91 20.9288 21.9549 20.7248 21.9799C20.5208 22.0049 20.3011 22.0049 20.0761 21.9849H20.0552C18.3552 21.8101 16.6866 21.4455 15.0911 20.9061C13.501 20.3668 11.9683 19.6476 10.5351 18.7586C9.19599 17.9495 7.96151 17.0056 6.85258 15.9468C5.74364 14.888 4.75501 13.7094 3.90238 12.4309L3.871 12.3759C2.9556 11.0175 2.20759 9.56416 1.65312 8.05589C1.08296 6.52265 0.706342 4.92948 0.523262 3.29635L0.518032 3.21644C0.502339 3.02167 0.50757 2.83688 0.528493 2.66208C0.554648 2.46231 0.601725 2.25754 0.674957 2.05777V2.05278C0.742958 1.86299 0.831882 1.67321 0.94696 1.48842V1.48343C1.05681 1.30863 1.18758 1.13883 1.33404 0.984004L1.40204 0.919078C1.53281 0.789227 1.67405 0.674359 1.82574 0.569479C1.99836 0.444623 2.1919 0.344737 2.39067 0.259835C2.58944 0.174932 2.79868 0.115001 3.00791 0.0700524C3.22761 0.025104 3.4473 0.00512695 3.65653 0.00512695H6.81073L6.91012 0.0101212C7.25535 0.0201098 7.59536 0.080041 7.90921 0.189915C8.2649 0.314772 8.59445 0.49956 8.88214 0.73429C9.16984 0.969021 9.41046 1.25869 9.59354 1.57333C9.77662 1.88797 9.89693 2.23756 9.94923 2.59715L9.95446 2.6471C10.0172 3.07161 10.1009 3.49612 10.2108 3.92063C10.3259 4.36013 10.4619 4.78464 10.624 5.19917C10.7339 5.46886 10.7966 5.75353 10.8176 6.03321V6.05818C10.8385 6.33287 10.8176 6.60755 10.7548 6.88223C10.692 7.16191 10.5874 7.4316 10.4462 7.68132C10.3049 7.93603 10.1219 8.17076 9.91262 8.37053L9.15415 9.0947C9.77139 10.0136 10.4932 10.8727 11.304 11.6468C12.1148 12.4209 13.0093 13.1101 13.977 13.6994L14.7302 12.9802L14.8087 12.9103C15.0075 12.7355 15.2219 12.5857 15.4521 12.4658C15.7136 12.331 15.9961 12.2311 16.289 12.1712C16.5819 12.1112 16.8801 12.0913 17.1783 12.1112H17.1835C17.4764 12.1312 17.7746 12.1961 18.057 12.296L18.1041 12.316C18.5226 12.4608 18.9515 12.5907 19.3961 12.6956C19.8564 12.8054 20.322 12.8903 20.7771 12.9453H20.7875C21.1746 12.9952 21.5408 13.1151 21.8703 13.2899L21.9279 13.3198C22.2365 13.4897 22.5189 13.7144 22.7543 13.9791C23.0054 14.2588 23.1937 14.5834 23.3193 14.923C23.4396 15.2526 23.5023 15.6122 23.4971 15.9718H23.5076ZM21.41 18.9833V15.9518C21.4152 15.832 21.3943 15.7071 21.3472 15.5922C21.3054 15.4774 21.2426 15.3675 21.1589 15.2776C21.0805 15.1927 20.9915 15.1178 20.8974 15.0628L20.8712 15.0479C20.7614 14.9879 20.6358 14.948 20.5103 14.933C19.9663 14.8631 19.4275 14.7632 18.9044 14.6433C18.397 14.5235 17.8896 14.3736 17.3875 14.1938L17.3299 14.1739C17.241 14.1439 17.1416 14.1189 17.037 14.1139C16.9376 14.1089 16.833 14.1139 16.7389 14.1339C16.6395 14.1539 16.5453 14.1888 16.4564 14.2338C16.3832 14.2688 16.3152 14.3137 16.2576 14.3636L14.8871 15.6721C14.5628 15.9818 14.045 16.0617 13.6265 15.832C12.2246 15.0678 10.9431 14.1389 9.82369 13.0701C8.72522 12.0213 7.76274 10.8227 6.97289 9.50922C6.69042 9.11967 6.73227 8.58029 7.09843 8.23069L8.43229 6.95715C8.50552 6.88723 8.56306 6.81231 8.60491 6.73241C8.65199 6.6475 8.6886 6.55761 8.70953 6.46272C8.73045 6.37282 8.73568 6.27793 8.73045 6.18304V6.17305C8.72522 6.07316 8.69906 5.98327 8.66768 5.89337C8.47414 5.39394 8.31198 4.88952 8.18121 4.39009C8.05567 3.90565 7.95628 3.40622 7.88305 2.89681L7.87782 2.85685C7.86213 2.73699 7.82028 2.61713 7.76274 2.51724C7.7052 2.41236 7.62151 2.32247 7.52736 2.24256C7.42797 2.16265 7.31812 2.09773 7.20304 2.05777C7.10366 2.02281 6.99381 2.00283 6.88919 1.99784H3.667C3.58853 1.99784 3.5153 2.00283 3.45253 2.01782C3.38453 2.0328 3.3113 2.05278 3.2433 2.08274C3.18053 2.10771 3.11253 2.14267 3.05499 2.18762C3.00791 2.21759 2.96606 2.25255 2.92422 2.28751L2.89283 2.32247C2.84575 2.37241 2.79868 2.43234 2.76206 2.49227C2.72545 2.54721 2.69406 2.61213 2.67314 2.68205C2.65221 2.74199 2.63652 2.80691 2.62606 2.88183C2.62083 2.94675 2.6156 3.00169 2.6156 3.05662V3.0766C2.77775 4.54492 3.12299 5.99325 3.64084 7.38166C4.14823 8.75009 4.81778 10.0586 5.63902 11.2772L5.6861 11.3421C6.4498 12.4908 7.34428 13.5496 8.3486 14.5085C9.35292 15.4674 10.4671 16.3214 11.6702 17.0506L11.6806 17.0606C12.9727 17.8596 14.3588 18.5139 15.8025 19.0033C17.2515 19.4928 18.758 19.8274 20.2854 19.9822C20.3481 19.9872 20.4161 19.9872 20.4894 19.9772C20.5678 19.9672 20.6411 19.9522 20.7038 19.9323C20.7666 19.9123 20.8346 19.8823 20.8974 19.8424C20.9601 19.8074 21.0177 19.7674 21.07 19.7175C21.1275 19.6676 21.1746 19.6176 21.2165 19.5627C21.2583 19.5077 21.2949 19.4428 21.3263 19.3829C21.3525 19.323 21.3734 19.268 21.3891 19.2081L21.3943 19.1781C21.41 19.1082 21.4152 19.0333 21.4152 18.9684L21.41 18.9833Z" fill="#fff"/>
</svg>
