<svg width="23" height="23" viewBox="0 0 23 23" fill="none" xmlns="http://www.w3.org/2000/svg">
<path fill-rule="evenodd" clip-rule="evenodd" d="M20.3931 11.9038C20.3931 6.93325 16.3636 2.90381 11.3931 2.90381C6.4225 2.90381 2.39307 6.93324 2.39307 11.9038C2.39307 16.8744 6.4225 20.9038 11.3931 20.9038C16.3636 20.9038 20.3931 16.8744 20.3931 11.9038ZM11.3931 0.903808C17.4682 0.903808 22.3931 5.82868 22.3931 11.9038C22.3931 17.9789 17.4682 22.9038 11.3931 22.9038C5.31793 22.9038 0.393066 17.9789 0.393066 11.9038C0.393066 5.82868 5.31793 0.903808 11.3931 0.903808Z" fill="#818FB7"/>
<path d="M16.1002 12.6109C16.4907 12.2204 16.4907 11.5872 16.1002 11.1967C15.7096 10.8062 15.0765 10.8062 14.686 11.1967L12.3931 13.4896L12.3931 7.90381C12.3931 7.35152 11.9454 6.90381 11.3931 6.90381C10.8408 6.90381 10.3931 7.35152 10.3931 7.90381L10.3931 13.4896L8.10017 11.1967C7.70965 10.8062 7.07648 10.8062 6.68596 11.1967C6.29543 11.5872 6.29543 12.2204 6.68596 12.6109L10.686 16.6109C11.0765 17.0014 11.7096 17.0014 12.1002 16.6109L16.1002 12.6109Z" fill="#818FB7"/>
</svg>
