<svg width="25" height="25" viewBox="0 0 25 25" fill="none" xmlns="http://www.w3.org/2000/svg">
<g clip-path="url(#clip0)">
<path fill-rule="evenodd" clip-rule="evenodd" d="M16.145 2.86816C15.3488 2.86816 14.5852 3.18447 14.0221 3.7475L4.83214 12.9375C3.89384 13.8758 3.3667 15.1484 3.3667 16.4754C3.3667 17.8024 3.89384 19.075 4.83214 20.0133C5.77045 20.9516 7.04307 21.4787 8.37004 21.4787C9.697 21.4787 10.9696 20.9516 11.9079 20.0133L21.0979 10.8233C21.4885 10.4328 22.1216 10.4328 22.5121 10.8233C22.9027 11.2138 22.9027 11.847 22.5121 12.2375L13.3221 21.4275C12.0088 22.7409 10.2274 23.4787 8.37004 23.4787C6.51264 23.4787 4.73131 22.7409 3.41793 21.4275C2.10455 20.1141 1.3667 18.3328 1.3667 16.4754C1.3667 14.618 2.10455 12.8367 3.41793 11.5233L12.6079 2.33328C13.546 1.39518 14.8184 0.868164 16.145 0.868164C17.4717 0.868164 18.744 1.39518 19.6821 2.33328C20.6202 3.27138 21.1473 4.54372 21.1473 5.87039C21.1473 7.19706 20.6202 8.4694 19.6821 9.4075L10.4821 18.5975C9.91933 19.1603 9.15598 19.4765 8.36004 19.4765C7.56409 19.4765 6.80075 19.1603 6.23793 18.5975C5.67511 18.0347 5.35892 17.2713 5.35892 16.4754C5.35892 15.6794 5.67511 14.9161 6.23793 14.3533L14.7283 5.87286C15.1191 5.48257 15.7523 5.48294 16.1426 5.8737C16.5329 6.26445 16.5325 6.89762 16.1417 7.28791L7.65214 15.7675C7.46466 15.9552 7.35892 16.2101 7.35892 16.4754C7.35892 16.7409 7.4644 16.9955 7.65214 17.1833C7.83989 17.371 8.09453 17.4765 8.36004 17.4765C8.62555 17.4765 8.88018 17.371 9.06793 17.1833L18.2679 7.99328C18.8307 7.43029 19.1473 6.66645 19.1473 5.87039C19.1473 5.07415 18.831 4.31052 18.2679 3.7475C17.7049 3.18447 16.9413 2.86816 16.145 2.86816Z" fill="#6D7BAB"/>
</g>
<defs>
<clipPath id="clip0">
<rect width="24" height="24" fill="white" transform="translate(0.365234 0.480469)"/>
</clipPath>
</defs>
</svg>
