<svg width="15" height="15" viewBox="0 0 15 15" fill="none" xmlns="http://www.w3.org/2000/svg">
<path fill-rule="evenodd" clip-rule="evenodd" d="M14.2301 0.590501C14.6206 0.981025 14.6206 1.61419 14.2301 2.00471L2.23006 14.0047C1.83953 14.3952 1.20637 14.3952 0.815842 14.0047C0.425318 13.6142 0.425318 12.981 0.815842 12.5905L12.8158 0.590501C13.2064 0.199976 13.8395 0.199976 14.2301 0.590501Z" fill="#2D4ADE"/>
<path fill-rule="evenodd" clip-rule="evenodd" d="M0.815842 0.590501C1.20637 0.199976 1.83953 0.199976 2.23006 0.590501L14.2301 12.5905C14.6206 12.981 14.6206 13.6142 14.2301 14.0047C13.8395 14.3952 13.2064 14.3952 12.8158 14.0047L0.815842 2.00471C0.425318 1.61419 0.425318 0.981025 0.815842 0.590501Z" fill="#2D4ADE"/>
</svg>
