<svg width="23" height="23" viewBox="0 0 23 23" fill="none" xmlns="http://www.w3.org/2000/svg">
<path fill-rule="evenodd" clip-rule="evenodd" d="M14.3059 0.980105C11.8882 0.415885 9.35069 0.686124 7.10605 1.74688C4.8614 2.80764 3.0416 4.59653 1.94255 6.82267C0.843494 9.04882 0.529827 11.5813 1.05255 14.0083C1.57527 16.4353 2.90364 18.6141 4.82166 20.1905C6.73968 21.7668 9.13454 22.648 11.6168 22.6906C14.0991 22.7333 16.5229 21.935 18.494 20.4256C18.9324 20.0898 19.0157 19.4621 18.6799 19.0236C18.3441 18.5852 17.7164 18.5019 17.278 18.8377C15.6653 20.0727 13.6822 20.7259 11.6512 20.6909C9.62025 20.656 7.66082 19.9351 6.09153 18.6453C4.52224 17.3556 3.4354 15.5729 3.00772 13.5872C2.58003 11.6015 2.83667 9.52945 3.7359 7.70806C4.63512 5.88666 6.12405 4.42303 7.96058 3.55513C9.7971 2.68724 11.8732 2.46614 13.8513 2.92777C15.8295 3.38941 17.5933 4.50663 18.8559 6.09778C20.1186 7.68892 20.8058 9.66045 20.806 11.6917V12.6916C20.806 13.2221 20.5953 13.7308 20.2202 14.1059C19.8451 14.4809 19.3364 14.6916 18.806 14.6916C18.2755 14.6916 17.7668 14.4809 17.3918 14.1059C17.0167 13.7308 16.806 13.2221 16.806 12.6916V7.69164C16.806 7.13936 16.3583 6.69164 15.806 6.69164C15.1591 6.69164 14.036 7.16842 13.4238 6.95919C12.9164 6.78575 12.3722 6.69164 11.806 6.69164C9.04453 6.69164 6.80595 8.93021 6.80595 11.6916C6.80595 14.4531 9.04453 16.6916 11.806 16.6916C13.0535 16.6916 14.1944 16.2347 15.0703 15.4791C15.3294 15.2556 15.7356 15.2781 15.9775 15.5201C16.7277 16.2702 17.7451 16.6916 18.806 16.6916C19.8668 16.6916 20.8842 16.2702 21.6344 15.5201C22.3845 14.7699 22.806 13.7525 22.806 12.6916V11.6916C22.8058 9.20891 21.9658 6.7993 20.4226 4.85456C18.8793 2.90982 16.7236 1.54433 14.3059 0.980105ZM8.80595 11.6916C8.80595 10.0348 10.1491 8.69164 11.806 8.69164C13.4628 8.69164 14.806 10.0348 14.806 11.6916C14.806 13.3485 13.4628 14.6916 11.806 14.6916C10.1491 14.6916 8.80595 13.3485 8.80595 11.6916Z" fill="white"/>
</svg>
