<?xml version="1.0" encoding="utf-8"?>
<!-- Generator: Adobe Illustrator 23.1.0, SVG Export Plug-In . SVG Version: 6.00 Build 0)  -->
<svg version="1.1" id="Слой_1" xmlns="http://www.w3.org/2000/svg" xmlns:xlink="http://www.w3.org/1999/xlink" x="0px" y="0px"
	 viewBox="0 0 18 22" style="enable-background:new 0 0 18 22;" xml:space="preserve">
<style type="text/css">
	.st0{fill-rule:evenodd;clip-rule:evenodd;fill:#2FB87E;}
</style>
<path class="st0" d="M0.9,0.9C1.4,0.3,2.2,0,3,0h8c0.3,0,0.5,0.1,0.7,0.3l6,6C17.9,6.5,18,6.7,18,7v12c0,0.8-0.3,1.6-0.9,2.1
	C16.6,21.7,15.8,22,15,22H3c-0.8,0-1.6-0.3-2.1-0.9C0.3,20.6,0,19.8,0,19V3C0,2.2,0.3,1.4,0.9,0.9z M3,2C2.7,2,2.5,2.1,2.3,2.3
	C2.1,2.5,2,2.7,2,3v16c0,0.3,0.1,0.5,0.3,0.7C2.5,19.9,2.7,20,3,20h12c0.3,0,0.5-0.1,0.7-0.3c0.2-0.2,0.3-0.4,0.3-0.7V7.4L10.6,2H3z
	"/>
<path class="st0" d="M11,0c0.6,0,1,0.4,1,1v5h5c0.6,0,1,0.4,1,1c0,0.6-0.4,1-1,1h-6c-0.6,0-1-0.4-1-1V1C10,0.4,10.4,0,11,0z"/>
<path class="st0" d="M4,12c0-0.6,0.4-1,1-1h8c0.6,0,1,0.4,1,1c0,0.6-0.4,1-1,1H5C4.4,13,4,12.6,4,12z"/>
<path class="st0" d="M4,16c0-0.6,0.4-1,1-1h8c0.6,0,1,0.4,1,1c0,0.6-0.4,1-1,1H5C4.4,17,4,16.6,4,16z"/>
<path class="st0" d="M4,8c0-0.6,0.4-1,1-1h2c0.6,0,1,0.4,1,1c0,0.6-0.4,1-1,1H5C4.4,9,4,8.6,4,8z"/>
</svg>
