<svg width="25" height="24" viewBox="0 0 25 24" fill="none" xmlns="http://www.w3.org/2000/svg">
<path fill-rule="evenodd" clip-rule="evenodd" d="M23.211 1.29219C23.6015 1.68271 23.6015 2.31588 23.211 2.7064L12.211 13.7064C11.8205 14.0969 11.1873 14.0969 10.7968 13.7064C10.4063 13.3159 10.4063 12.6827 10.7968 12.2922L21.7968 1.29219C22.1873 0.901664 22.8205 0.901664 23.211 1.29219Z" fill="white"/>
<path fill-rule="evenodd" clip-rule="evenodd" d="M23.211 1.29219C23.4827 1.56383 23.5747 1.96706 23.4478 2.32965L16.4478 22.3296C16.3123 22.7166 15.9544 22.9818 15.5447 22.9985C15.135 23.0152 14.7566 22.7801 14.5901 22.4054L10.7463 13.7569L2.09777 9.91311C1.72309 9.74658 1.48803 9.36821 1.50474 8.95853C1.52146 8.54885 1.78656 8.19089 2.17356 8.05544L22.1736 1.05544C22.5361 0.928532 22.9394 1.02055 23.211 1.29219ZM5.21499 9.1099L11.91 12.0855C12.1363 12.186 12.3172 12.3669 12.4177 12.5932L15.3933 19.2882L20.8739 3.62927L5.21499 9.1099Z" fill="white"/>
</svg>
