<svg width="21" height="21" viewBox="0 0 21 21" fill="none" xmlns="http://www.w3.org/2000/svg">
<path fill-rule="evenodd" clip-rule="evenodd" d="M20.7071 0.292922C21.0059 0.591755 21.0846 1.04618 20.9037 1.42811L11.9037 20.4281C11.7229 20.8098 11.3218 21.0368 10.9015 20.9952C10.4811 20.9535 10.1323 20.6523 10.0299 20.2426L8.17537 12.8246L0.757459 10.9702C0.347695 10.8677 0.0464808 10.5189 0.00486105 10.0986C-0.0367587 9.67825 0.190192 9.2771 0.571908 9.09629L19.5719 0.0962906C19.9538 -0.0846246 20.4083 -0.00591126 20.7071 0.292922ZM3.95334 9.70759L9.24253 11.0299C9.60081 11.1195 9.88057 11.3992 9.97014 11.7575L11.2924 17.0467L17.8976 3.10241L3.95334 9.70759Z" fill="white"/>
</svg>
