<svg height="512" viewBox="0 0 74 74" width="512" xmlns="http://www.w3.org/2000/svg"><g id="line_icons" data-name="line icons"><path d="m57.7 38.234a1.013 1.013 0 0 1 -.468-.116 1 1 0 0 1 -.532-.884v-5.852a19.7 19.7 0 0 0 -39.4 0v5.852a1 1 0 0 1 -1.564.826 2.07 2.07 0 0 0 -1.171-.352h-1.465a3.7 3.7 0 0 0 -1 .132 1 1 0 0 1 -1.268-.964v-5.494a26.174 26.174 0 0 1 52.347 0v5.494a1 1 0 0 1 -1.268.963 3.731 3.731 0 0 0 -1-.131h-1.486a2.048 2.048 0 0 0 -1.159.352 1 1 0 0 1 -.566.174zm-44.6-2.526h1.476a4.176 4.176 0 0 1 .735.064v-4.39a21.7 21.7 0 0 1 43.4 0v4.389a4.135 4.135 0 0 1 .723-.063h1.488q.132 0 .264.006v-4.332a24.174 24.174 0 0 0 -48.347 0v4.332c.079-.004.167-.006.261-.006z"/><path d="m8.337 55.581a6.344 6.344 0 0 1 -6.337-6.336v-3.545a6.344 6.344 0 0 1 6.337-6.337 1 1 0 0 1 0 2 4.342 4.342 0 0 0 -4.337 4.337v3.544a4.341 4.341 0 0 0 4.337 4.336 1 1 0 1 1 0 2z"/><path d="m14.574 59.246h-1.1a6.289 6.289 0 0 1 -6.314-5.924v-11.695a5.93 5.93 0 0 1 5.929-5.927h1.485a4.13 4.13 0 0 1 4.126 4.129v15.291a4.13 4.13 0 0 1 -4.126 4.126zm-1.485-21.546a3.928 3.928 0 0 0 -3.924 3.924v11.7a4.3 4.3 0 0 0 4.314 3.924h1.1a2.129 2.129 0 0 0 2.121-2.128v-15.291a2.129 2.129 0 0 0 -2.126-2.129z"/><path d="m60.521 59.246h-1.095a4.13 4.13 0 0 1 -4.126-4.126v-15.291a4.13 4.13 0 0 1 4.126-4.129h1.485a5.93 5.93 0 0 1 5.924 5.924v11.309a6.32 6.32 0 0 1 -6.314 6.313zm-1.095-21.546a2.129 2.129 0 0 0 -2.126 2.129v15.291a2.129 2.129 0 0 0 2.126 2.126h1.095a4.318 4.318 0 0 0 4.314-4.313v-11.306a3.928 3.928 0 0 0 -3.924-3.927z"/><path d="m65.663 55.581a1 1 0 0 1 0-2 4.341 4.341 0 0 0 4.337-4.336v-3.545a4.342 4.342 0 0 0 -4.337-4.337 1 1 0 0 1 0-2 6.344 6.344 0 0 1 6.337 6.337v3.544a6.344 6.344 0 0 1 -6.337 6.337z"/><path d="m56.482 65.108h-12.765a1 1 0 0 1 0-2h12.765a4.7 4.7 0 0 0 4.7-4.683v-.179a1 1 0 0 1 2 0v.179a6.7 6.7 0 0 1 -6.7 6.683z"/><path d="m38.771 68.791c-3.276 0-5.941-2.1-5.941-4.683s2.665-4.683 5.941-4.683 5.942 2.1 5.942 4.683-2.665 4.683-5.942 4.683zm0-7.366c-2.136 0-3.941 1.229-3.941 2.683s1.8 2.683 3.941 2.683 3.942-1.229 3.942-2.683-1.805-2.683-3.942-2.683z"/></g></svg>