<svg width="25" height="24" viewBox="0 0 25 24" fill="none" xmlns="http://www.w3.org/2000/svg">
<path fill-rule="evenodd" clip-rule="evenodd" d="M12.3548 1.21065C12.7159 0.929784 13.2216 0.929784 13.5827 1.21065L22.5827 8.21065C22.8263 8.4001 22.9688 8.69141 22.9688 9V20C22.9688 20.7957 22.6527 21.5587 22.0901 22.1213C21.5275 22.6839 20.7644 23 19.9688 23H5.96875C5.1731 23 4.41004 22.6839 3.84743 22.1213C3.28482 21.5587 2.96875 20.7957 2.96875 20V9C2.96875 8.69141 3.11122 8.4001 3.35481 8.21065L12.3548 1.21065ZM4.96875 9.48908V20C4.96875 20.2652 5.07411 20.5196 5.26164 20.7071C5.44918 20.8946 5.70353 21 5.96875 21H19.9688C20.234 21 20.4883 20.8946 20.6759 20.7071C20.8634 20.5196 20.9688 20.2652 20.9688 20V9.48908L12.9688 3.26686L4.96875 9.48908Z" fill="#2D4ADE"/>
<path fill-rule="evenodd" clip-rule="evenodd" d="M8.96875 12C8.96875 11.4477 9.41647 11 9.96875 11H15.9688C16.521 11 16.9688 11.4477 16.9688 12V22C16.9688 22.5523 16.521 23 15.9688 23C15.4165 23 14.9688 22.5523 14.9688 22V13H10.9688V22C10.9688 22.5523 10.521 23 9.96875 23C9.41647 23 8.96875 22.5523 8.96875 22V12Z" fill="#2D4ADE"/>
</svg>
