<svg width="25" height="25" viewBox="0 0 25 25" fill="none" xmlns="http://www.w3.org/2000/svg">
<path fill-rule="evenodd" clip-rule="evenodd" d="M4.94775 5.01855C4.40004 5.01855 3.94775 5.47084 3.94775 6.01855V18.0186C3.94775 18.5663 4.40004 19.0186 4.94775 19.0186H20.9478C21.4955 19.0186 21.9478 18.5663 21.9478 18.0186V6.01855C21.9478 5.47084 21.4955 5.01855 20.9478 5.01855H4.94775ZM1.94775 6.01855C1.94775 4.36627 3.29547 3.01855 4.94775 3.01855H20.9478C22.6 3.01855 23.9478 4.36627 23.9478 6.01855V18.0186C23.9478 19.6708 22.6 21.0186 20.9478 21.0186H4.94775C3.29547 21.0186 1.94775 19.6708 1.94775 18.0186V6.01855Z" fill="white"/>
<path fill-rule="evenodd" clip-rule="evenodd" d="M2.12852 5.44512C2.44523 4.99267 3.06876 4.88263 3.52121 5.19935L12.9477 11.7979L22.3743 5.19935C22.8267 4.88263 23.4503 4.99267 23.767 5.44512C24.0837 5.89757 23.9737 6.5211 23.5212 6.83781L13.5212 13.8378C13.1769 14.0788 12.7186 14.0788 12.3743 13.8378L2.37429 6.83781C1.92184 6.5211 1.8118 5.89757 2.12852 5.44512Z" fill="white"/>
</svg>
