<svg width="24" height="24" viewBox="0 0 24 24" fill="none" xmlns="http://www.w3.org/2000/svg">
<g clip-path="url(#clip0)">
<path fill-rule="evenodd" clip-rule="evenodd" d="M12 2.00024C9.87827 2.00024 7.84344 2.8431 6.34315 4.34339C4.84285 5.84368 4 7.87851 4 10.0002C4 13.0983 6.01574 16.1045 8.22595 18.4375C9.31061 19.5824 10.3987 20.5197 11.2167 21.1711C11.5211 21.4135 11.787 21.6154 12 21.7728C12.213 21.6154 12.4789 21.4135 12.7833 21.1711C13.6013 20.5197 14.6894 19.5824 15.774 18.4375C17.9843 16.1045 20 13.0983 20 10.0002C20 7.87851 19.1571 5.84368 17.6569 4.34339C16.1566 2.8431 14.1217 2.00024 12 2.00024ZM12 23.0002C11.4453 23.8323 11.445 23.8321 11.4448 23.8319L11.4419 23.83L11.4352 23.8255L11.4123 23.81C11.3928 23.7968 11.3651 23.7778 11.3296 23.7532C11.2585 23.704 11.1565 23.6324 11.0278 23.5394C10.7705 23.3537 10.4064 23.0825 9.97082 22.7356C9.10133 22.0433 7.93939 21.0431 6.77405 19.813C4.48426 17.396 2 13.9022 2 10.0002C2 7.34808 3.05357 4.80454 4.92893 2.92918C6.8043 1.05381 9.34784 0.000244141 12 0.000244141C14.6522 0.000244141 17.1957 1.05381 19.0711 2.92918C20.9464 4.80454 22 7.34808 22 10.0002C22 13.9022 19.5157 17.396 17.226 19.813C16.0606 21.0431 14.8987 22.0433 14.0292 22.7356C13.5936 23.0825 13.2295 23.3537 12.9722 23.5394C12.8435 23.6324 12.7415 23.704 12.6704 23.7532C12.6349 23.7778 12.6072 23.7968 12.5877 23.81L12.5648 23.8255L12.5581 23.83L12.556 23.8314C12.5557 23.8316 12.5547 23.8323 12 23.0002ZM12 23.0002L12.5547 23.8323C12.2188 24.0562 11.7807 24.0559 11.4448 23.8319L12 23.0002Z" fill="#2D4ADE"/>
<path fill-rule="evenodd" clip-rule="evenodd" d="M12 8.00024C10.8954 8.00024 10 8.89567 10 10.0002C10 11.1048 10.8954 12.0002 12 12.0002C13.1046 12.0002 14 11.1048 14 10.0002C14 8.89567 13.1046 8.00024 12 8.00024ZM8 10.0002C8 7.79111 9.79086 6.00024 12 6.00024C14.2091 6.00024 16 7.79111 16 10.0002C16 12.2094 14.2091 14.0002 12 14.0002C9.79086 14.0002 8 12.2094 8 10.0002Z" fill="#2D4ADE"/>
</g>
<defs>
<clipPath id="clip0">
<rect width="24" height="24" fill="white" transform="translate(0 0.000244141)"/>
</clipPath>
</defs>
</svg>
