<svg width="20" height="21" viewBox="0 0 20 21" fill="none" xmlns="http://www.w3.org/2000/svg">
<path fill-rule="evenodd" clip-rule="evenodd" d="M18 9.73754C18 4.30733 12.0662 0.547385 7.15085 3.03014L7.14706 3.03205L7.14706 3.03205C3.52859 4.8405 1.95644 9.45148 3.79259 13.0867C3.91281 13.3247 3.933 13.6008 3.84868 13.8538L2.58114 17.6564L6.38377 16.3889C6.63671 16.3045 6.91286 16.3247 7.15085 16.4449C12.0074 18.898 18.0139 15.0785 18 9.74015L18 9.73754ZM20 9.73642C19.9992 2.85133 12.5263 -1.92393 6.25103 1.24399C1.78429 3.47769 -0.223951 9.03318 1.82398 13.6033L0.0513133 18.9213C-0.0684649 19.2806 0.0250576 19.6768 0.29289 19.9446C0.560722 20.2125 0.95689 20.306 1.31622 20.1862L6.63396 18.4136C12.7713 21.1698 20.0163 16.3971 20 9.73642Z" fill="white"/>
</svg>
