<svg width="24" height="25" viewBox="0 0 24 25" fill="none" xmlns="http://www.w3.org/2000/svg">
<path fill-rule="evenodd" clip-rule="evenodd" d="M13.2929 1.51408C13.6834 1.12356 14.3166 1.12356 14.7071 1.51408L18.7071 5.51408C19.0976 5.90461 19.0976 6.53777 18.7071 6.9283L7.70711 17.9283C7.51957 18.1158 7.26522 18.2212 7 18.2212H3C2.44772 18.2212 2 17.7735 2 17.2212V13.2212C2 12.956 2.10536 12.7016 2.29289 12.5141L13.2929 1.51408ZM4 13.6354V16.2212H6.58579L16.5858 6.22119L14 3.6354L4 13.6354Z" fill="white"/>
<path fill-rule="evenodd" clip-rule="evenodd" d="M2 22.2212C2 21.6689 2.44772 21.2212 3 21.2212H21C21.5523 21.2212 22 21.6689 22 22.2212C22 22.7735 21.5523 23.2212 21 23.2212H3C2.44772 23.2212 2 22.7735 2 22.2212Z" fill="white"/>
</svg>
