<?xml version="1.0" encoding="utf-8"?>
<!-- Generator: Adobe Illustrator 23.1.0, SVG Export Plug-In . SVG Version: 6.00 Build 0)  -->
<svg version="1.1" id="Слой_1" xmlns="http://www.w3.org/2000/svg" xmlns:xlink="http://www.w3.org/1999/xlink" x="0px" y="0px"
	 viewBox="0 0 18 18" style="enable-background:new 0 0 18 18;" xml:space="preserve">
<style type="text/css">
	.st0{fill-rule:evenodd;clip-rule:evenodd;fill:#FFFFFF;}
</style>
<path class="st0" d="M6.1,9.2C5.2,8.4,4.7,7.3,4.7,6c0-2.4,1.9-4.3,4.3-4.3c2.4,0,4.3,1.9,4.3,4.3c0,1.3-0.6,2.4-1.4,3.2
	c2.4,1.1,4,3.5,4,6.3c0,0.5-0.4,0.9-0.9,0.9c-0.5,0-0.9-0.4-0.9-0.9c0-2.9-2.3-5.2-5.2-5.2c0,0,0,0,0,0c-2.9,0-5.2,2.3-5.2,5.2
	c0,0.5-0.4,0.9-0.9,0.9c-0.5,0-0.9-0.4-0.9-0.9C2.1,12.7,3.7,10.3,6.1,9.2z M9,8.6C9,8.6,9,8.6,9,8.6C9,8.6,9,8.6,9,8.6
	C7.5,8.6,6.4,7.4,6.4,6c0-1.4,1.2-2.6,2.6-2.6s2.6,1.2,2.6,2.6C11.6,7.4,10.5,8.6,9,8.6z"/>
</svg>
