<svg xmlns="http://www.w3.org/2000/svg" xmlns:xlink="http://www.w3.org/1999/xlink" width="90" height="90" viewBox="0 0 90 90"><defs><path id="z5a3a" d="M1424 3322v9s-.41 2.81 2.032 3.09c2.372.273 6.316 1.079 8.968 3.91 4.019 4.289 2.994 8.389 3 9.999.005 1.609 0 1 0 1h-18.063c-4.703 0-3.937 4-3.937 4v52s-.205 4 4.126 4H1450s4-.074 4-5.112v-54.889s.515-12.996-5-20c-4.989-6.333-9.66-7.853-14-9-2.897-.764-5.706-.964-8-.999-3.425-.051-3 3-3 3z"/><path id="z5a3b" d="M1476 3322v9s-.41 2.81 2.032 3.09c2.372.273 6.316 1.079 8.968 3.91 4.019 4.289 2.994 8.389 3 9.999.005 1.609 0 1 0 1h-18.063c-4.703 0-3.937 4-3.937 4v52s-.205 4 4.126 4H1502s4-.074 4-5.112v-54.889s.515-12.996-5-20c-4.989-6.333-9.66-7.853-14-9-2.897-.764-5.707-.964-8-.999-3.424-.051-3 3-3 3z"/></defs><g><g transform="translate(-1416 -3319)"><use fill="#dddee6" xlink:href="#z5a3a"/></g><g transform="translate(-1416 -3319)"><use fill="#dddee6" xlink:href="#z5a3b"/></g></g></svg>