<?xml version="1.0" encoding="utf-8"?>
<!-- Generator: Adobe Illustrator 23.1.0, SVG Export Plug-In . SVG Version: 6.00 Build 0)  -->
<svg version="1.1" id="Слой_1" xmlns="http://www.w3.org/2000/svg" xmlns:xlink="http://www.w3.org/1999/xlink" x="0px" y="0px"
	 viewBox="0 0 20 20" style="enable-background:new 0 0 20 20;" xml:space="preserve">
<style type="text/css">
	.st0{fill-rule:evenodd;clip-rule:evenodd;fill:#FFFFFF;}
</style>
<path class="st0" d="M9,2C5.1,2,2,5.1,2,9s3.1,7,7,7s7-3.1,7-7S12.9,2,9,2z M0,9c0-5,4-9,9-9s9,4,9,9c0,5-4,9-9,9S0,14,0,9z"/>
<path class="st0" d="M13.9,13.9c0.4-0.4,1-0.4,1.4,0l4.4,4.4c0.4,0.4,0.4,1,0,1.4c-0.4,0.4-1,0.4-1.4,0l-4.4-4.4
	C13.6,15,13.6,14.3,13.9,13.9z"/>
</svg>
