<svg width="26" height="25" viewBox="0 0 26 25" fill="none" xmlns="http://www.w3.org/2000/svg">
<g clip-path="url(#clip0)">
<path d="M18.5993 25C17.5029 25 16.4169 24.757 15.4371 24.2949C14.7403 24.4091 14.141 24.4629 13.5722 24.4629C6.96194 24.4629 1.58398 19.15 1.58398 12.6196C1.58398 11.9837 1.64712 11.322 1.77625 10.6071C1.23418 9.57775 0.949219 8.42876 0.949219 7.2607C0.949219 3.25718 4.24702 0 8.30071 0C9.56223 0 10.7948 0.318527 11.8881 0.924301C12.3861 0.860214 12.931 0.830078 13.5722 0.830078C16.7665 0.830078 19.765 2.05326 22.0155 4.27399C24.2688 6.49776 25.5098 9.46178 25.5098 12.62C25.5098 13.4567 25.4527 14.1665 25.3316 14.8228C25.7417 15.7389 25.9492 16.7183 25.9492 17.7393C25.9492 21.7428 22.652 25 18.5993 25ZM15.7455 22.2561L16.0455 22.4155C16.8218 22.8285 17.7049 23.0469 18.5993 23.0469C21.5751 23.0469 23.9961 20.6659 23.9961 17.7393C23.9961 16.9094 23.8086 16.1188 23.4386 15.3894L23.2799 15.0763L23.3568 14.7337C23.4931 14.1264 23.5566 13.4548 23.5566 12.62C23.5566 7.19604 19.0776 2.7832 13.5722 2.7832C12.8848 2.7832 12.339 2.82135 11.8539 2.90356L11.4894 2.96516L11.1755 2.77004C10.3156 2.2356 9.32153 1.95312 8.30071 1.95312C5.3241 1.95312 2.90234 4.33407 2.90234 7.2607C2.90234 8.20484 3.15793 9.13162 3.64144 9.94091L3.83618 10.2671L3.75951 10.6392C3.60978 11.3638 3.53711 12.0115 3.53711 12.6196C3.53711 18.0731 8.03883 22.5098 13.5722 22.5098C14.1069 22.5098 14.6913 22.4485 15.4115 22.3171L15.7455 22.2561ZM19.748 15.1789C19.748 14.4766 19.6094 13.8727 19.3328 13.3841C19.0563 12.8975 18.6673 12.4901 18.1781 12.1721C17.6971 11.8608 17.1068 11.5942 16.4249 11.376C15.7508 11.1622 14.9886 10.9653 14.1595 10.7882C13.5034 10.6375 13.026 10.5202 12.7414 10.4422C12.4633 10.3661 12.1867 10.2581 11.917 10.1242C11.6571 9.99508 11.4524 9.83963 11.3052 9.66415C11.1678 9.49669 11.0566 9.30328 11.0566 9.07135C11.0566 8.69236 11.3088 8.37307 11.737 8.09479C12.1801 7.80525 12.7771 7.68547 13.5114 7.68547C14.3012 7.68547 14.8786 7.79209 15.2223 8.05187C15.5772 8.31852 15.8864 8.69923 16.1414 9.18274C16.3625 9.56039 16.5616 9.8238 16.7533 9.99241C16.9595 10.1728 17.2572 10.2539 17.6366 10.2539C18.0537 10.2539 18.4087 10.1183 18.6883 9.82857C18.9679 9.54037 19.1621 9.20925 19.1621 8.84533C19.1621 8.46786 19.0007 8.07724 18.7881 7.68471C18.5769 7.29542 18.2435 6.92158 17.7921 6.57063C17.3454 6.22272 16.7749 5.94139 16.1008 5.73292C15.4287 5.52406 14.6236 5.41992 13.708 5.41992C12.5646 5.41992 11.5524 5.5769 10.7034 5.88989C9.84147 6.20613 9.17104 6.66981 8.71461 7.26242C8.25188 7.8598 7.98047 8.5535 7.98047 9.3235C7.98047 10.1315 8.24025 10.8166 8.68008 11.3646C9.11382 11.9028 9.70528 12.3331 10.4415 12.6444C11.1594 12.9475 12.062 13.2154 13.1254 13.4422C13.9072 13.6065 14.5398 13.7621 15.0062 13.9061C15.451 14.0436 15.8206 14.2456 16.1004 14.5054C16.3654 14.7522 16.5105 15.0684 16.5105 15.4707C16.5105 15.9792 16.2458 16.3963 15.7356 16.7423C15.2139 17.0965 14.5202 17.2363 13.6731 17.2363C13.0563 17.2363 12.556 17.1877 12.1846 17.012C11.815 16.8398 11.5255 16.6161 11.3258 16.353C11.115 16.0765 10.9172 15.7293 10.7356 15.3151C10.5735 14.9363 10.3727 14.6412 10.1354 14.4428C9.88839 14.2357 9.58455 14.1113 9.23283 14.1113C8.80463 14.1113 8.44472 14.2637 8.16319 14.5254C7.88033 14.7902 7.73633 15.1144 7.73633 15.4871C7.73633 16.0847 7.95701 16.704 8.39379 17.3265C8.82237 17.944 9.39133 18.4456 10.0799 18.815C11.0416 19.3233 12.2764 19.5801 13.7483 19.5801C14.9732 19.5801 16.0512 19.3914 16.9488 19.0208C17.8565 18.6468 18.5563 18.1187 19.0307 17.4515C19.5068 16.7826 19.7471 16.0179 19.748 15.1789Z" fill="#2D4ADE"/>
</g>
<defs>
<clipPath id="clip0">
<rect width="25" height="25" fill="white" transform="translate(0.949219)"/>
</clipPath>
</defs>
</svg>
