<svg width="23" height="20" viewBox="0 0 23 20" fill="none" xmlns="http://www.w3.org/2000/svg">
<path fill-rule="evenodd" clip-rule="evenodd" d="M10.9294 2.13794C8.16802 2.13794 5.92944 4.37652 5.92944 7.13794V8.13794V15.1379H2.92944C1.82487 15.1379 0.929443 14.2425 0.929443 13.1379V9.13794C0.929443 8.03337 1.82487 7.13794 2.92944 7.13794L3.92944 7.13794C3.92944 3.27195 7.06345 0.137939 10.9294 0.137939H12.9294C16.7954 0.137939 19.9294 3.27195 19.9294 7.13794H20.9294C22.034 7.13794 22.9294 8.03337 22.9294 9.13794V13.1379C22.9294 14.2425 22.034 15.1379 20.9294 15.1379H19.8034C19.3594 16.8632 17.7933 18.1379 15.9294 18.1379H14.6619C14.3161 18.7357 13.6697 19.1379 12.9294 19.1379C11.8249 19.1379 10.9294 18.2425 10.9294 17.1379C10.9294 16.0334 11.8249 15.1379 12.9294 15.1379C13.6697 15.1379 14.3161 15.5401 14.6619 16.1379H15.9294C17.034 16.1379 17.9294 15.2425 17.9294 14.1379V8.13794V7.13794C17.9294 4.37652 15.6909 2.13794 12.9294 2.13794H10.9294ZM3.92944 9.13794H2.92944L2.92944 13.1379H3.92944V9.13794ZM19.9294 9.13794H20.9294V13.1379H19.9294V9.13794Z" fill="white"/>
</svg>
