<svg width="99" height="87" viewBox="0 0 99 87" fill="none" xmlns="http://www.w3.org/2000/svg">
<path d="M13.0215 86.9273C10.8757 86.9273 8.72983 86.4981 6.58399 85.2106C0.575662 81.7773 -1.57017 73.6231 1.86316 67.6148L38.3423 6.67313C39.6298 4.95646 40.9173 3.23979 42.634 2.38146C45.6382 0.664795 49.0715 0.235628 52.5048 1.09396C55.9382 1.9523 58.5132 4.09813 60.659 7.1023L96.709 67.6148C97.9965 69.7606 98.4257 71.9065 98.4257 74.0523C98.4257 77.4856 97.1382 80.919 94.5632 83.0648C92.4173 85.6398 89.4132 86.9273 85.9798 86.9273H13.0215ZM45.6382 11.394L9.58816 71.9065C8.30066 74.0523 9.15899 76.6273 11.3048 77.9148C11.734 78.344 12.5923 78.344 13.0215 78.344H85.5507C86.8382 78.344 87.6965 77.9148 88.5548 77.0565C89.4132 76.1981 89.8423 75.3398 89.8423 74.0523C89.8423 73.194 89.8423 72.7648 89.4132 71.9065L53.3632 11.394C52.0757 9.24813 49.5007 8.81896 47.3548 9.67729C46.4965 10.1065 46.0673 10.5356 45.6382 11.394Z" fill="#E5EAF6"/>
<path d="M49.5007 52.594C46.9257 52.594 45.209 50.8773 45.209 48.3023V31.1356C45.209 28.5606 46.9257 26.844 49.5007 26.844C52.0757 26.844 53.7923 28.5606 53.7923 31.1356V48.3023C53.7923 50.8773 52.0757 52.594 49.5007 52.594Z" fill="#E5EAF6"/>
<path d="M49.5007 69.7606C48.2132 69.7606 47.3548 69.3315 46.4965 68.4731C45.6382 67.6148 45.209 66.7565 45.209 65.469C45.209 65.0398 45.209 64.1815 45.6382 63.7523C46.0673 63.3231 46.0673 62.894 46.4965 62.4648C46.9257 62.0356 47.3548 61.6065 47.784 61.6065C48.6423 61.1773 49.5007 61.1773 50.359 61.1773C50.7882 61.1773 50.7882 61.1773 51.2173 61.6065C51.6465 61.6065 51.6465 61.6065 52.0757 62.0356C52.0757 62.0356 52.5048 62.4648 52.934 62.4648C53.3632 62.894 53.7923 63.3231 53.7923 63.7523C53.7923 64.1815 54.2215 65.0398 54.2215 65.469C54.2215 66.7565 53.7923 67.6148 52.934 68.4731C51.6465 69.3315 50.7882 69.7606 49.5007 69.7606Z" fill="#E5EAF6"/>
</svg>
