<svg width="66" height="56" viewBox="0 0 66 56" fill="none" xmlns="http://www.w3.org/2000/svg">
<path d="M20.0137 18.0334C20.0137 17.479 20.4631 17.0295 21.0176 17.0295H43.9683C44.5228 17.0295 44.9722 17.479 44.9722 18.0334C44.9722 18.5879 44.5228 19.0374 43.9683 19.0374H21.0176C20.4631 19.0374 20.0137 18.5879 20.0137 18.0334Z" fill="#2D4ADE"/>
<path d="M23.0605 1.53396C23.3378 1.0538 23.9517 0.889283 24.4319 1.1665L27.0161 2.65849C27.4963 2.93571 27.6608 3.54969 27.3836 4.02985C27.1063 4.51001 26.4924 4.67452 26.0122 4.3973L23.428 2.90532C22.9478 2.6281 22.7833 2.01412 23.0605 1.53396Z" fill="#2D4ADE"/>
<path d="M37.6465 4.02615C37.3693 3.54599 37.5338 2.93201 38.0139 2.65479L40.5851 1.17034C41.0652 0.893114 41.6792 1.05763 41.9564 1.53779C42.2337 2.01795 42.0691 2.63193 41.589 2.90915L39.0178 4.3936C38.5377 4.67082 37.9237 4.50631 37.6465 4.02615Z" fill="#2D4ADE"/>
<rect x="17.0508" y="47.0664" width="13.0493" height="2.00781" rx="1.00391" transform="rotate(-90 17.0508 47.0664)" fill="#2D4ADE"/>
<rect x="24.0332" y="47.0664" width="13.0493" height="2.00781" rx="1.00391" transform="rotate(-90 24.0332 47.0664)" fill="#2D4ADE"/>
<rect x="38.0918" y="47.0664" width="13.0493" height="2.00781" rx="1.00391" transform="rotate(-90 38.0918 47.0664)" fill="#2D4ADE"/>
<rect x="45.0742" y="47.0664" width="13.0493" height="2.00781" rx="1.00391" transform="rotate(-90 45.0742 47.0664)" fill="#2D4ADE"/>
<rect x="31.1094" y="47.0664" width="13.0493" height="2.00781" rx="1.00391" transform="rotate(-90 31.1094 47.0664)" fill="#2D4ADE"/>
<path d="M10.8635 27.0913C10.4059 26.8271 10.2521 26.2401 10.5213 25.7854L24.2866 2.53803C24.5517 2.09038 25.1276 1.93944 25.5782 2.19956C26.0358 2.46377 26.1896 3.05076 25.9204 3.50544L12.1551 26.7528C11.89 27.2004 11.314 27.3514 10.8635 27.0913Z" fill="#2D4ADE"/>
<path d="M53.719 27.3724C53.2614 27.6366 52.6761 27.4763 52.4169 27.0158L39.1668 3.471C38.9116 3.01763 39.0689 2.44335 39.5195 2.18323C39.9771 1.91903 40.5623 2.07931 40.8215 2.5398L54.0716 26.0846C54.3268 26.538 54.1695 27.1122 53.719 27.3724Z" fill="#2D4ADE"/>
<path d="M0.0742145 19.459C-0.233312 17.9128 1.10456 16.954 2.06704 17.0485L11.0543 17.0293V19.0332H2.02734L3.2828 26.0355L33.113 26.0605V28.041C29.5779 28.0568 4.36044 28.0329 3.23781 28.0329C2.46765 28.0329 1.54288 27.6031 1.29722 26.1936C0.976802 24.3551 0.314885 20.669 0.0742145 19.459Z" fill="#2D4ADE"/>
<ellipse cx="11.0449" cy="18.0348" rx="1.00586" ry="1.00256" fill="#2D4ADE"/>
<path d="M4.77099 27.7354C4.46346 26.1892 5.97653 25.9929 6.93901 26.0874L15.9262 26.0682V28.0721H6.89931L11.025 53.0175L40.8552 53.0426V55.023C37.3201 55.0388 12.1026 55.015 10.98 55.015C10.2099 55.015 9.28509 54.5852 9.03943 53.1756C8.71901 51.3372 5.01166 28.9454 4.77099 27.7354Z" fill="#2D4ADE"/>
<path d="M59.8857 27.7354C60.1753 26.1892 58.7502 25.9929 57.8437 26.0874L49.3788 26.0682V28.0721H57.8811L53.9952 53.0175L25.8989 53.0426V55.023C29.2286 55.0388 52.9802 55.015 54.0376 55.015C54.763 55.015 55.634 54.5852 55.8653 53.1756C56.1671 51.3372 59.659 28.9454 59.8857 27.7354Z" fill="#2D4ADE"/>
<path d="M64.9612 19.4592C65.267 17.9131 63.9368 16.9542 62.9799 17.0488L53.0446 17.0295V19.0334H63.0194L61.7712 26.0357L32.1133 26.0608V28.0413C35.628 28.057 60.6997 28.0332 61.8159 28.0332C62.5816 28.0332 63.501 27.6034 63.7453 26.1939C64.0638 24.3554 64.7219 20.6692 64.9612 19.4592Z" fill="#2D4ADE"/>
<ellipse rx="0.999973" ry="1.00256" transform="matrix(-1 0 0 1 53.0528 18.0348)" fill="#2D4ADE"/>
</svg>
