<svg width="60" height="60" viewBox="0 0 60 60" fill="none" xmlns="http://www.w3.org/2000/svg">
<path d="M29.6406 1.45972L29.6454 3.29314" stroke="#2D4ADE" stroke-width="2" stroke-linecap="round" stroke-linejoin="round"/>
<path d="M1.21094 27.4754C1.21094 27.4754 9.95907 22.056 19.8 27.4754C19.8 27.4754 29.641 22.056 39.4796 27.4754C39.4796 27.4754 48.2276 22.056 58.0686 27.4754" stroke="#2D4ADE" stroke-width="2" stroke-linecap="round" stroke-linejoin="round"/>
<path d="M23.7309 10.1316C21.0712 14.1794 18.7425 20.0535 19.8116 27.4753" stroke="#2D4ADE" stroke-width="2" stroke-linecap="round" stroke-linejoin="round"/>
<path d="M35.5605 10.1316C38.2202 14.1794 40.5489 20.0535 39.4798 27.4753" stroke="#2D4ADE" stroke-width="2" stroke-linecap="round" stroke-linejoin="round"/>
<path d="M1.21094 27.4753C1.21094 14.3033 13.9401 3.62891 29.6409 3.62891C45.3417 3.62891 58.0686 14.3033 58.0686 27.4753" stroke="#2D4ADE" stroke-width="2" stroke-linecap="round" stroke-linejoin="round"/>
<path d="M19.5527 53.2743C19.5565 54.6107 20.089 55.8912 21.0339 56.8362C21.9789 57.7811 23.2594 58.3137 24.5958 58.3174V58.3174C25.9323 58.3137 27.2132 57.7812 28.1585 56.8363C29.1039 55.8914 29.6369 54.6109 29.6412 53.2743V30.797" stroke="#2D4ADE" stroke-width="2" stroke-linecap="round" stroke-linejoin="round"/>
</svg>
