<svg width="69" height="68" viewBox="0 0 69 68" fill="none" xmlns="http://www.w3.org/2000/svg">
<path d="M34.7079 17.2906C35.9067 17.2906 36.8786 16.3187 36.8786 15.1198C36.8786 13.921 35.9067 12.9491 34.7079 12.9491C33.509 12.9491 32.5371 13.921 32.5371 15.1198C32.5371 16.3187 33.509 17.2906 34.7079 17.2906Z" stroke="#2D4ADE" stroke-width="2" stroke-miterlimit="10"/>
<path d="M34.708 47.6781V54.1875" stroke="#2D4ADE" stroke-width="2" stroke-linecap="round" stroke-linejoin="round"/>
<path d="M39.2838 34.6537C39.8334 35.493 40.1248 36.475 40.122 37.4782C40.1217 38.552 39.7838 39.5987 39.1562 40.47C38.5285 41.3413 37.6427 41.9933 36.6242 42.3337L33.1349 43.4903C32.3286 43.7589 31.6272 44.2745 31.1303 44.964C30.6334 45.6534 30.3661 46.4818 30.3662 47.3317V47.3317C30.3636 48.0851 30.5714 48.8243 30.9663 49.466C31.3612 50.1077 31.9274 50.6264 32.6012 50.9635L34.7049 52.0168" stroke="#2D4ADE" stroke-width="2" stroke-linecap="round" stroke-linejoin="round"/>
<path d="M34.708 24.8868V42.2527" stroke="#2D4ADE" stroke-width="2" stroke-linecap="round" stroke-linejoin="round"/>
<path d="M37.9622 20.5481H33.7297C32.2619 20.5481 30.8542 21.1312 29.8163 22.1691C28.7784 23.207 28.1953 24.6147 28.1953 26.0825C28.1945 26.8868 28.3691 27.6817 28.7069 28.4117C29.0446 29.1417 29.5374 29.7893 30.1509 30.3094" stroke="#2D4ADE" stroke-width="2" stroke-linecap="round" stroke-linejoin="round"/>
<path d="M67.7856 25.7501L58.0187 8.83117L44.4747 16.6536V1.01428H24.9408V16.6536L11.3968 8.83117L1.62988 25.7501L15.1739 33.5697L1.62988 41.3894L11.3968 58.3055L24.9408 50.4858V66.1252H44.4747V50.4858L58.0187 58.3055L67.7856 41.3894L54.2416 33.5697L67.7856 25.7501Z" stroke="#2D4ADE" stroke-width="2" stroke-linecap="round" stroke-linejoin="round"/>
</svg>
