<svg width="74" height="71" viewBox="0 0 74 71" fill="none" xmlns="http://www.w3.org/2000/svg">
<path d="M9.3866 65.9756C9.3866 66.7823 9.70699 67.5559 10.2774 68.1263C10.8478 68.6967 11.6214 69.0171 12.4281 69.0171H18.5083C19.3149 69.0171 20.0886 68.6967 20.659 68.1263C21.2294 67.5559 21.5498 66.7823 21.5498 65.9756M12.4282 39.0911L11.4966 35.3243C11.3296 34.6686 10.949 34.0872 10.4148 33.6719C9.88067 33.2566 9.22337 33.0311 8.54675 33.031H4.83731C4.43826 33.031 4.04307 33.1096 3.6744 33.2623C3.30574 33.415 2.97087 33.6388 2.68871 33.921C2.40654 34.2031 2.1827 34.5381 2.02999 34.9068C1.87728 35.2754 1.79861 35.6706 1.79861 36.0696V36.6172C1.79821 37.3199 2.0414 38.001 2.48672 38.5446C2.93205 39.0882 3.55197 39.4606 4.24102 39.5985L9.40102 40.6305M64.117 65.9756C64.117 66.7798 63.7985 67.5512 63.2312 68.1212C62.6639 68.6912 61.8939 69.0133 61.0897 69.0171H55.0095C54.2029 69.0171 53.4293 68.6967 52.8589 68.1263C52.2885 67.5559 51.9681 66.7823 51.9681 65.9756M61.0899 39.0911L62.0215 35.3243C62.1876 34.6681 62.5679 34.0861 63.1023 33.6707C63.6367 33.2552 64.2945 33.0301 64.9714 33.031H68.678C69.0773 33.0306 69.4726 33.1089 69.8416 33.2614C70.2106 33.414 70.546 33.6377 70.8284 33.92C71.1109 34.2022 71.335 34.5373 71.4878 34.9061C71.6407 35.275 71.7195 35.6703 71.7195 36.0696V36.6172C71.7198 37.3203 71.4762 38.0017 71.0303 38.5454C70.5844 39.089 69.9637 39.4612 69.2741 39.5985L64.1142 40.6305M53.4759 48.2128H62.5975M58.0368 57.3345H62.5977M10.9087 57.3345H15.4696M10.9087 48.2128H20.0304M0.267578 1.08484H73.2386M18.5112 7.16503V1.08484M27.6328 7.16503V1.08484M36.7546 7.16503V1.08484M45.8764 7.16503V1.08484M54.9982 7.16503V1.08484M18.5112 14.7674V11.7259M27.6328 14.7674V11.7259M36.7546 14.7674V11.7259M45.8764 14.7674V11.7259M54.9982 14.7674V11.7259M18.5112 20.8476V17.8061M27.6328 20.8476V17.8061M36.7546 20.8476V17.8061M45.8764 20.8476V17.8061M54.9982 20.8476V17.8061M56.0099 34.5302L53.559 29.0176C53.0815 27.9427 52.3026 27.0294 51.3165 26.3883C50.3304 25.7472 49.1796 25.4058 48.0034 25.4056H25.5029C24.3263 25.4056 23.175 25.7469 22.1885 26.388C21.2019 27.0291 20.4225 27.9425 19.9445 29.0176L17.4964 34.5274M64.1171 63.4176C64.5165 63.4176 64.912 63.3389 65.281 63.1861C65.65 63.0332 65.9854 62.8092 66.2678 62.5268C66.5502 62.2443 66.7742 61.909 66.9271 61.54C67.0799 61.171 67.1586 60.7755 67.1586 60.3761V48.2243C67.1586 45.8051 66.1976 43.4849 64.4869 41.7743C62.7762 40.0636 60.4561 39.1026 58.0369 39.1026H15.4697C14.2709 39.1011 13.0836 39.3359 11.9756 39.7936C10.8675 40.2514 9.86055 40.923 9.01231 41.7702C8.16406 42.6174 7.49108 43.6235 7.03196 44.7309C6.57283 45.8384 6.33657 47.0254 6.33657 48.2243V60.3732C6.33619 60.7736 6.41486 61.1701 6.56808 61.54C6.7213 61.9099 6.94608 62.246 7.22946 62.5288C7.51284 62.8117 7.8493 63.0358 8.2195 63.1883C8.58969 63.3408 8.98635 63.4188 9.38674 63.4176H64.1171ZM25.1647 49.7322H48.3418C48.6584 49.7322 48.9151 49.9888 48.9151 50.3055V56.7612C48.9151 57.0779 48.6584 57.3345 48.3418 57.3345H25.1647C24.8481 57.3345 24.5914 57.0779 24.5914 56.7612V50.3055C24.5914 49.9888 24.8481 49.7322 25.1647 49.7322Z" stroke="#2D4ADE" stroke-width="2" stroke-miterlimit="10"/>
</svg>
