<svg width="62" height="66" viewBox="0 0 62 66" fill="none" xmlns="http://www.w3.org/2000/svg">
<path d="M33.9488 45.443L36.6059 20.9318M29.5731 19.1704L24.5875 45.0867M29.5731 39.5593L33.7708 40.0661M31.2994 26.4493L35.0981 26.9034M27.8067 32.1273L31.4474 32.4711M37.6322 15.6577L60.4424 14.2877C60.3194 12.2529 57.5543 7.57341 53.3516 5.88981C52.8345 5.68278 52.274 5.60776 51.7207 5.67152C47.1291 6.21349 39.652 10.2882 34.7743 13.2138M33.427 16.9097L49.7888 35.8759C51.2817 34.526 53.1911 29.42 51.9115 24.9915C51.7539 24.4478 51.4672 23.9503 51.0759 23.5412C47.6259 19.9382 39.0649 16.1595 33.8485 14.077C32.7345 13.6328 31.7986 15.0229 32.5939 15.9412L33.4295 16.9097M30.2479 14.4006L8.55194 8.98854C9.02365 7.00887 12.5514 2.90149 16.9775 2.00073C17.5234 1.89033 18.0883 1.91793 18.6209 2.08102C23.3405 3.52876 30.5967 9.52547 34.822 13.2791M33.1158 16.5484L12.2753 31.1387C11.1513 29.4551 10.519 24.0255 12.8248 20.0536C13.1061 19.5665 13.5024 19.1556 13.979 18.8568C18.1868 16.2298 27.3926 14.7117 32.9477 14.0017M8.10011 59.1953C8.10011 51.2992 17.0049 44.8935 27.9922 44.8935C38.9795 44.8935 47.8842 51.2942 47.8842 59.1953M57.1831 59.1954H1.55664M49.0008 64.1031H6.4643" stroke="#2D4ADE" stroke-width="2" stroke-linecap="round" stroke-linejoin="round"/>
</svg>
