<svg width="104" height="55" viewBox="0 0 104 55" fill="none" xmlns="http://www.w3.org/2000/svg">
<path d="M24.5299 35.7413C25.3918 36.6421 25.952 37.7888 26.1326 39.0224C26.3133 40.2559 26.1054 41.5151 25.538 42.6252C24.9706 43.7353 24.0717 44.6413 22.9661 45.2174C21.8604 45.7934 20.603 46.0111 19.368 45.8401C18.1331 45.6691 16.982 45.1179 16.0745 44.2631C15.1671 43.4082 14.5482 42.2921 14.3038 41.0696C14.0594 39.847 14.2015 38.5787 14.7106 37.4407C15.2197 36.3027 16.0703 35.3513 17.1446 34.7186M40.0996 28.0865H1.74316V32.5907L36.9673 37.4591M79.6102 35.7382C78.7471 36.6384 78.1857 37.785 78.004 39.0187C77.8223 40.2525 78.0292 41.5122 78.5961 42.623C79.163 43.7338 80.0616 44.6405 81.1673 45.2173C82.273 45.794 83.5309 46.0122 84.7662 45.8415C86.0016 45.6708 87.1531 45.1197 88.0609 44.2647C88.9688 43.4098 89.5879 42.2933 89.8323 41.0705C90.0767 39.8476 89.9343 38.579 89.4249 37.4407C88.9154 36.3024 88.0642 35.351 86.9894 34.7186M64.0405 28.0865H102.394V32.5907L67.1728 37.4591M41.1588 24.5286H62.9779M64.3803 31.9598L58.3361 34.9911H45.8037L39.7565 31.9598M52.0684 1.58276V16.1084M64.3802 31.819C64.3802 23.1416 58.8689 16.1084 52.0653 16.1084C45.2618 16.1084 39.7534 23.1508 39.7534 31.819C39.7534 31.8649 39.7534 31.9139 39.7534 31.9599C37.7889 34.2473 36.7034 37.1597 36.6915 40.175C36.6915 47.7409 43.5777 53.877 52.0714 53.877C60.5652 53.877 67.4575 47.7532 67.4575 40.175C67.4454 37.1598 66.3599 34.2474 64.3956 31.9599C64.3772 31.9139 64.3802 31.868 64.3802 31.819Z" stroke="#2D4ADE" stroke-width="2" stroke-linecap="round" stroke-linejoin="round"/>
</svg>
