<svg width="59" height="52" viewBox="0 0 59 52" fill="none" xmlns="http://www.w3.org/2000/svg">
<path d="M4.32298 4.79993H3.41957C2.94015 4.79993 2.48031 4.9902 2.14109 5.32897C1.80187 5.66775 1.61098 6.12732 1.61035 6.60674V45.489C1.61035 45.9688 1.80098 46.429 2.14027 46.7683C2.47956 47.1076 2.93974 47.2982 3.41957 47.2982H23.3112C24.0282 47.2982 24.1836 47.8837 24.217 48.2016C24.3174 49.1958 25.0248 50.0108 26.0238 50.0108H33.2582C34.2572 50.0108 34.9646 49.1958 35.0674 48.2016C35.0985 47.8837 35.2538 47.2982 35.9708 47.2982H55.8625C56.0999 47.2982 56.3351 47.2514 56.5545 47.1604C56.7738 47.0695 56.9731 46.9362 57.1409 46.7682C57.3087 46.6001 57.4417 46.4007 57.5324 46.1812C57.6231 45.9617 57.6696 45.7265 57.6693 45.489V6.60674C57.6693 6.12754 57.4789 5.66796 57.1401 5.32912C56.8012 4.99028 56.3417 4.79993 55.8625 4.79993H54.9567" stroke="#2D4ADE" stroke-width="2" stroke-miterlimit="10" stroke-linecap="round"/>
<path d="M7.03516 41.885C7.03516 41.885 26.8603 40.7471 29.5729 44.516C29.5729 44.516 29.6405 44.6172 29.6418 44.4452C29.6431 44.2733 29.6418 4.46055 29.6418 4.46055C27.9067 0.844544 7.03516 1.18154 7.03516 1.18154V41.885Z" stroke="#2D4ADE" stroke-width="2" stroke-miterlimit="10" stroke-linecap="round"/>
<path d="M52.2459 41.885C52.2459 41.885 33.0245 40.9173 29.8086 44.4688C29.7546 44.5285 29.6788 44.6576 29.6416 44.5976V4.46055C31.3743 0.844544 52.2459 1.18154 52.2459 1.18154V41.885Z" stroke="#2D4ADE" stroke-width="2" stroke-miterlimit="10" stroke-linecap="round"/>
<path d="M37.7793 17.4572H41.3977V28.31" stroke="#2D4ADE" stroke-width="2" stroke-miterlimit="10" stroke-linecap="round"/>
<path d="M37.7793 29.2134H44.1103" stroke="#2D4ADE" stroke-width="2" stroke-miterlimit="10" stroke-linecap="round"/>
<path d="M41.3985 14.7446C41.8975 14.7446 42.3019 14.3401 42.3019 13.8412C42.3019 13.3422 41.8975 12.9377 41.3985 12.9377C40.8996 12.9377 40.4951 13.3422 40.4951 13.8412C40.4951 14.3401 40.8996 14.7446 41.3985 14.7446Z" fill="#0080E4" stroke="#2D4ADE" stroke-width="2" stroke-miterlimit="10" stroke-linecap="round"/>
</svg>
