<svg width="68" height="64" viewBox="0 0 68 64" fill="none" xmlns="http://www.w3.org/2000/svg">
<path d="M55.982 24.4948C55.982 36.9281 45.9107 47.0059 33.4886 47.0059C21.0665 47.0059 10.9951 36.9281 10.9951 24.4948C10.9951 12.0615 21.0665 1.98364 33.4886 1.98364C45.9107 1.98364 55.982 12.0615 55.982 24.4948Z" stroke="#2D4ADE" stroke-width="2"/>
<path d="M4.01953 24.973H6.01849L6.03738 25.4076C6.03895 25.4397 6.04044 25.4731 6.04177 25.5086C6.5935 40.2221 18.6893 51.9807 33.5301 51.9807C48.2809 51.9807 60.3198 40.3644 61.0072 25.7761C61.0161 25.587 61.0021 25.1546 61.0072 24.9645H63.0328C63.0343 24.8805 63.0353 24.9225 63.036 24.9646L63.0371 24.9646C63.0371 25.0493 63.0367 25.0069 63.036 24.9646L63.0328 24.9645C62.7628 41.0358 49.6574 53.9806 33.5301 53.9806C17.6296 53.9806 4.66793 41.3971 4.04786 25.6403C4.03243 25.2482 4.01953 25.3689 4.01953 24.973Z" fill="#2D4ADE"/>
<rect x="0.0117188" y="24.9692" width="5.77359" height="1.97562" rx="0.987812" fill="#2D4ADE"/>
<rect x="33.0166" y="63.9849" width="7.98385" height="1.97562" rx="0.987812" transform="rotate(-90 33.0166 63.9849)" fill="#2D4ADE"/>
<rect x="47.002" y="63.9849" width="24.9736" height="1.97562" rx="0.987812" transform="rotate(180 47.002 63.9849)" fill="#2D4ADE"/>
<path d="M46.5393 30.2767C46.9204 30.6673 46.9125 31.293 46.5217 31.6739L30.7731 47.0226C30.3825 47.4033 29.7574 47.3954 29.3766 47.005C28.9955 46.6144 29.0033 45.9887 29.3942 45.6078L45.1428 30.2591C45.5334 29.8785 46.1585 29.8864 46.5393 30.2767Z" fill="#2D4ADE"/>
<rect x="54.6084" y="14.9922" width="24.9736" height="1.97562" rx="0.987812" transform="rotate(135.707 54.6084 14.9922)" fill="#2D4ADE"/>
<rect x="61.0752" y="24.9692" width="5.93738" height="1.97562" rx="0.987812" fill="#2D4ADE"/>
</svg>
