<svg width="65" height="65" viewBox="0 0 65 65" fill="none" xmlns="http://www.w3.org/2000/svg">
<path d="M62.0881 1.01416H2.13462C1.56084 1.01416 1.0957 1.4793 1.0957 2.05308V62.0067C1.0957 62.5804 1.56084 63.0456 2.13462 63.0456H62.0881C62.6619 63.0456 63.1271 62.5804 63.1271 62.0067V2.05308C63.1271 1.4793 62.6619 1.01416 62.0881 1.01416Z" stroke="#2D4ADE" stroke-width="2" stroke-linecap="round" stroke-linejoin="round"/>
<path d="M56.125 30.0288V35.0312" stroke="#2D4ADE" stroke-width="2" stroke-linecap="square" stroke-linejoin="round"/>
<path d="M56.1247 53.0407V56.0432H8.10059V8.01904H56.1247V12.0215" stroke="#2D4ADE" stroke-width="2" stroke-linecap="square" stroke-linejoin="round"/>
<path d="M58.605 16.0215H53.6415C53.3546 16.0215 53.1221 16.2541 53.1221 16.5409V25.5068C53.1221 25.7937 53.3546 26.0263 53.6415 26.0263H58.605C58.8919 26.0263 59.1245 25.7937 59.1245 25.5068V16.5409C59.1245 16.2541 58.8919 16.0215 58.605 16.0215Z" stroke="#2D4ADE" stroke-width="2" stroke-linecap="round" stroke-linejoin="round"/>
<path d="M58.605 39.0337H53.6415C53.3546 39.0337 53.1221 39.2663 53.1221 39.5532V48.519C53.1221 48.8059 53.3546 49.0385 53.6415 49.0385H58.605C58.8919 49.0385 59.1245 48.8059 59.1245 48.519V39.5532C59.1245 39.2663 58.8919 39.0337 58.605 39.0337Z" stroke="#2D4ADE" stroke-width="2" stroke-linecap="round" stroke-linejoin="round"/>
<path d="M32.1128 45.0385C39.2965 45.0385 45.1201 39.2149 45.1201 32.0312C45.1201 24.8474 39.2965 19.0239 32.1128 19.0239C24.9291 19.0239 19.1055 24.8474 19.1055 32.0312C19.1055 39.2149 24.9291 45.0385 32.1128 45.0385Z" stroke="#2D4ADE" stroke-width="2" stroke-linecap="round" stroke-linejoin="round"/>
<path d="M32.1127 39.0334C35.9799 39.0334 39.115 35.8984 39.115 32.0311C39.115 28.1638 35.9799 25.0288 32.1127 25.0288C28.2454 25.0288 25.1104 28.1638 25.1104 32.0311C25.1104 35.8984 28.2454 39.0334 32.1127 39.0334Z" stroke="#2D4ADE" stroke-width="2" stroke-linecap="round" stroke-linejoin="round"/>
<path d="M29.432 38.5012L27.1387 44.036" stroke="#2D4ADE" stroke-width="2" stroke-linecap="round" stroke-linejoin="round"/>
<path d="M37.0844 20.0239L34.791 25.5614" stroke="#2D4ADE" stroke-width="2" stroke-linecap="round" stroke-linejoin="round"/>
<path d="M27.1387 20.0239L29.432 25.5614" stroke="#2D4ADE" stroke-width="2" stroke-linecap="round" stroke-linejoin="round"/>
<path d="M37.0844 44.036L34.791 38.5012" stroke="#2D4ADE" stroke-width="2" stroke-linecap="round" stroke-linejoin="round"/>
<path d="M44.1175 27.0549L38.5801 29.3509" stroke="#2D4ADE" stroke-width="2" stroke-linecap="round" stroke-linejoin="round"/>
<path d="M20.1055 37.0051L25.6403 34.7117" stroke="#2D4ADE" stroke-width="2" stroke-linecap="round" stroke-linejoin="round"/>
<path d="M25.6429 29.3509L20.1055 27.0549" stroke="#2D4ADE" stroke-width="2" stroke-linecap="round" stroke-linejoin="round"/>
<path d="M44.1179 37.0051L38.583 34.7117" stroke="#2D4ADE" stroke-width="2" stroke-linecap="round" stroke-linejoin="round"/>
</svg>
