<svg width="68" height="61" viewBox="0 0 68 61" fill="none" xmlns="http://www.w3.org/2000/svg">
<path d="M40.2742 50.9449V59.0457M28.286 59.0457V50.9449M47.2561 59.0457H45.1129H23.9131H22.2503M1.30078 42.1751H66.3103M40.8706 18.018H49.3505C49.7253 18.0186 50.0846 18.1679 50.3495 18.4332C50.6143 18.6985 50.763 19.058 50.763 19.4329V21.6175C50.763 21.9924 50.6143 22.3519 50.3495 22.6172C50.0846 22.8825 49.7253 23.0318 49.3505 23.0325H43.698M25.3256 23.0325H18.2582C17.8833 23.0318 17.5241 22.9338 17.2593 22.6686C16.9944 22.4033 16.8457 21.9924 16.8457 21.6175V19.4329C16.8457 19.058 16.9944 18.6985 17.2593 18.4332C17.5241 18.1679 17.8833 18.0186 18.2582 18.018H30.9782M48.5106 23.0325L45.3787 34.9657C45.3023 35.2716 45.1257 35.5431 44.8771 35.737C44.6285 35.931 44.3221 36.0361 44.0069 36.0358H23.6019C23.2866 36.0361 22.9802 35.931 22.7316 35.737C22.483 35.5431 22.3065 35.2716 22.2301 34.9657L19.3835 23.7902M39.4581 10.9529L33.8055 23.6705M27.2797 26.0056V32.1504M33.2706 26.0056V32.1504M40.2337 26.0056V31.9439M6.33769 42.1751V6.05965H61.3359V42.1751M2.01901 1.06055H65.5921C65.9887 1.06055 66.3103 1.38211 66.3103 1.77878V49.3383C66.3103 49.735 65.9887 50.0565 65.5921 50.0565H2.01901C1.62234 50.0565 1.30078 49.735 1.30078 49.3383V1.77878C1.30078 1.38211 1.62234 1.06055 2.01901 1.06055Z" stroke="#2D4ADE" stroke-width="2" stroke-miterlimit="10"/>
</svg>
