<svg width="63" height="64" viewBox="0 0 63 64" fill="none" xmlns="http://www.w3.org/2000/svg">
<path d="M13.1952 31.031H61.8671C61.8671 32.8381 61.1493 34.5712 59.8715 35.849C58.5937 37.1268 56.8605 37.8447 55.0534 37.8447H8.32737C6.52028 37.8447 4.78709 37.1268 3.50929 35.849C2.23148 34.5712 1.51367 32.8381 1.51367 31.031H5.40751" stroke="#2D4ADE" stroke-width="2" stroke-linecap="round" stroke-linejoin="round"/>
<path d="M3.53125 31.0309C4.56821 16.9656 16.7786 6.69385 31.6922 6.69385C46.6058 6.69385 58.814 16.9656 59.851 31.0309" stroke="#2D4ADE" stroke-width="2" stroke-linecap="round" stroke-linejoin="round"/>
<path d="M14.1689 22.055C16.1147 19.3472 19.0368 16.4274 21.9566 15.4534" stroke="#2D4ADE" stroke-width="2" stroke-linecap="round" stroke-linejoin="round"/>
<path d="M26.8252 62.1818C26.8252 62.1818 32.0636 55.1445 36.5586 52.446C41.4265 49.5262 48.2425 38.8188 55.0561 37.8447" stroke="#2D4ADE" stroke-width="2" stroke-miterlimit="10" stroke-linecap="round"/>
<path d="M16.1148 38.8186C16.1148 38.8186 15.3714 42.547 15.8351 46.0843C15.8875 46.5458 15.8316 47.0131 15.6719 47.4491C15.5121 47.8852 15.2528 48.278 14.9147 48.5963C13.508 49.9606 12.443 51.6375 11.8061 53.4906C11.1692 55.3438 10.9784 57.3211 11.2492 59.2619L8.32715 62.1817" stroke="#2D4ADE" stroke-width="2" stroke-linecap="round" stroke-linejoin="round"/>
<path d="M20.9824 37.8447L21.7235 40.8088C21.8777 41.4261 21.956 42.06 21.9565 42.6963V46.6065C21.9565 47.3808 22.2641 48.1235 22.8117 48.6711C23.3593 49.2186 24.1019 49.5262 24.8763 49.5262H25.8503C25.8503 49.5262 27.7984 37.8447 31.6922 37.8447" stroke="#2D4ADE" stroke-width="2" stroke-linecap="round" stroke-linejoin="round"/>
<path d="M25.8508 49.5261C25.8508 49.5261 19.0931 51.0268 17.4619 57.3138" stroke="#2D4ADE" stroke-width="2" stroke-miterlimit="10" stroke-linecap="round"/>
<path d="M35.5862 37.8447C35.5862 37.8447 32.6641 42.7126 32.6641 46.6065L44.3478 37.8447" stroke="#2D4ADE" stroke-width="2" stroke-linecap="round" stroke-linejoin="round"/>
<path d="M27.7988 5.71976C27.7988 4.68705 28.2091 3.69666 28.9394 2.96642C29.6696 2.23618 30.66 1.82593 31.6927 1.82593C32.7254 1.82593 33.7158 2.23618 34.4461 2.96642C35.1763 3.69666 35.5866 4.68705 35.5866 5.71976" stroke="#2D4ADE" stroke-width="2" stroke-linecap="round" stroke-linejoin="round"/>
</svg>
