<svg width="77" height="56" viewBox="0 0 77 56" fill="none" xmlns="http://www.w3.org/2000/svg">
<path d="M63.4814 17.1983C66.4249 17.1983 69.2477 18.3848 71.329 20.4969C73.4103 22.6089 74.5796 25.4735 74.5796 28.4604V42.9395C74.5796 43.793 74.2456 44.6115 73.6512 45.2152C73.0567 45.8189 72.2505 46.1585 71.4095 46.1592H4.81511C3.97475 46.1571 3.16954 45.817 2.5758 45.2135C1.98206 44.61 1.64823 43.7923 1.64755 42.9395V28.4604C1.64755 25.4735 2.81677 22.6089 4.89808 20.4969C6.9794 18.3848 9.80226 17.1983 12.7457 17.1983H63.4814ZM63.4814 17.1983L59.1334 6.1652C58.5448 4.67209 57.5289 3.39222 56.2165 2.49079C54.9042 1.58936 53.3557 1.10772 51.771 1.10803H24.4536C22.8692 1.10789 21.3211 1.58963 20.0092 2.49108C18.6973 3.39252 17.6818 4.6723 17.0937 6.1652L12.7431 17.1983M68.2392 18.8068L69.2225 14.8079C69.3942 14.1117 69.7903 13.4937 70.3477 13.0521C70.9051 12.6104 71.592 12.3704 72.2992 12.3702H76.1569M7.99053 18.8068L7.00464 14.8079C6.8329 14.1117 6.43685 13.4937 5.87941 13.0521C5.32197 12.6104 4.63513 12.3704 3.9279 12.3702H0.0625M65.0691 39.7225H69.8244M6.40542 39.7225H12.7483M57.1411 30.0689H65.0665C65.9075 30.0689 66.7142 29.73 67.3091 29.1268C67.904 28.5236 68.2386 27.7053 68.2392 26.8519V25.2434M19.0835 30.0689H11.1554C10.3147 30.0689 9.50837 29.73 8.91385 29.1266C8.31932 28.5233 7.98534 27.7051 7.98534 26.8519V25.2434M33.3596 7.54465H42.8727M4.82031 46.1592H17.5035V53.6777C17.5035 53.8174 17.4489 53.9513 17.3516 54.0501C17.2543 54.1488 17.1223 54.2043 16.9847 54.2043H5.33916C5.20155 54.2043 5.06955 54.1488 4.97225 54.0501C4.87495 53.9513 4.82031 53.8174 4.82031 53.6777V46.1592ZM70.8906 54.2016H59.2449C59.1073 54.2016 58.9754 54.1462 58.8781 54.0474C58.7808 53.9487 58.7261 53.8148 58.7261 53.6751V46.1565H71.4094V53.6751C71.4094 53.8148 71.3547 53.9487 71.2574 54.0474C71.1601 54.1462 71.0282 54.2016 70.8906 54.2016ZM53.9684 35.7105C53.9684 34.6436 53.5507 33.6205 52.8073 32.8661C52.0639 32.1117 51.0556 31.6879 50.0043 31.6879H27.8079C26.7566 31.6879 25.7483 32.1117 25.0049 32.8661C24.2615 33.6205 23.8439 34.6436 23.8439 35.7105C23.8439 36.7773 24.2615 37.8005 25.0049 38.5549C25.7483 39.3092 26.7566 39.733 27.8079 39.733H50.0043C51.0556 39.733 52.0639 39.3092 52.8073 38.5549C53.5507 37.8005 53.9684 36.7773 53.9684 35.7105Z" stroke="#2D4ADE" stroke-width="2" stroke-miterlimit="10"/>
</svg>
