<svg width="84" height="40" viewBox="0 0 84 40" fill="none" xmlns="http://www.w3.org/2000/svg">
<path d="M18.406 9.36111H29.4022M41.6923 22.0875L37.0804 9.36111L32.4838 22.0875H41.6923ZM41.6923 22.0875L43.2073 26.3296M30.9324 26.3296L32.4717 22.0875M23.8935 9.36111V26.3296M47.6161 9.36111L52.4642 17.4908M52.4642 17.4908L57.3124 9.36111M52.4642 17.4908L57.7365 26.3296M52.4642 17.4908L47.1919 26.3296M62.9513 9.36111V26.3296M1.52832 38.1076H82.3803M20.5604 1.25562H63.3483C69.0206 1.73235 72.5749 4.55336 74.0112 9.71866L80.4471 32.9655H3.46163L9.89451 9.71866C11.3267 4.55336 14.882 1.73235 20.5604 1.25562Z" stroke="#2D4ADE" stroke-width="2" stroke-linecap="round" stroke-linejoin="round"/>
</svg>
