<svg width="63" height="63" viewBox="0 0 63 63" fill="none" xmlns="http://www.w3.org/2000/svg">
<path d="M44.1874 61.5541C43.6779 60.7235 43.4741 59.2228 42.2588 58.6597L37.4356 56.7386C35.9079 57.376 34.2691 57.7042 32.6138 57.7042C30.9585 57.7042 29.3196 57.376 27.7919 56.7386L22.9689 58.6674C21.7535 59.2305 21.5547 60.7312 21.04 61.5618" stroke="#2D4ADE" stroke-width="2" stroke-linecap="round" stroke-linejoin="round"/>
<path d="M35.5072 53.8366C38.1952 52.0531 37.9456 50.8963 38.2666 48.2899C38.4373 46.8835 38.4908 45.3675 37.8105 44.0757C37.1542 42.9136 36.0772 42.0473 34.8015 41.6552C33.3821 41.1792 31.8462 41.1792 30.4268 41.6552C29.1514 42.048 28.0747 42.9141 27.4178 44.0757C26.7375 45.3675 26.791 46.8784 26.9617 48.2899C27.2827 50.8963 27.033 52.0454 29.721 53.8366" stroke="#2D4ADE" stroke-width="2" stroke-linecap="round" stroke-linejoin="round"/>
<path d="M61.5523 61.5541C61.0428 60.7235 60.8364 59.2228 59.6236 58.6597L54.8005 56.7386C53.2724 57.3761 51.6332 57.7043 49.9775 57.7043C48.3217 57.7043 46.6824 57.3761 45.1543 56.7386" stroke="#2D4ADE" stroke-width="2" stroke-linecap="round" stroke-linejoin="round"/>
<path d="M52.8714 53.8366C55.5569 52.0531 55.3097 50.8963 55.6282 48.2899C55.8014 46.8835 55.8524 45.3675 55.1747 44.0757C54.5167 42.9139 53.4393 42.0479 52.1632 41.6552C50.7438 41.1792 49.2078 41.1792 47.7884 41.6552C46.5135 42.049 45.4372 42.9148 44.7795 44.0757C44.0992 45.3675 44.1526 46.8784 44.3259 48.2899C44.6444 50.8963 44.3972 52.0454 47.0826 53.8366" stroke="#2D4ADE" stroke-width="2" stroke-linecap="round" stroke-linejoin="round"/>
<path d="M22.0059 1.75049H61.5513V35.5097H26.829" stroke="#2D4ADE" stroke-width="2" stroke-linecap="round" stroke-linejoin="round"/>
<path d="M15.7711 14.2911C18.0438 12.7751 17.8348 11.8018 18.1048 9.59539C18.2501 8.40554 18.296 7.12396 17.7202 6.02838C17.1619 5.0489 16.2504 4.31975 15.1723 3.99009C14.575 3.79071 13.9497 3.68835 13.32 3.68689C12.6911 3.68805 12.0665 3.79042 11.4702 3.99009C10.3919 4.31952 9.48039 5.04873 8.9223 6.02838C8.34903 7.12142 8.3924 8.40299 8.53763 9.59539C8.80771 11.8018 8.59882 12.7751 10.8715 14.2911" stroke="#2D4ADE" stroke-width="2" stroke-linecap="round" stroke-linejoin="round"/>
<path d="M4.64239 43.2349C3.87537 43.2328 3.14036 42.9273 2.598 42.3849C2.05564 41.8425 1.75006 41.1075 1.74805 40.3405V23.9348C1.74805 21.0429 2.46395 20.6404 3.67674 20.0773L8.4999 18.1486C10.0209 18.8089 11.6649 19.138 13.3229 19.1142C14.9809 19.138 16.6251 18.8089 18.1461 18.1486L36.6793 15.5013C37.1519 15.4341 37.6326 15.5442 38.0288 15.8105C38.4249 16.0768 38.7085 16.4804 38.8246 16.9434L38.9112 17.2899C39.0325 17.7778 38.9588 18.2938 38.7057 18.7281C38.4526 19.1625 38.0401 19.4811 37.5558 19.6161L22.0138 23.9475L21.0506 35.5225V53.8493" stroke="#2D4ADE" stroke-width="2" stroke-linecap="round" stroke-linejoin="round"/>
<path d="M5.6084 41.2985V53.8365" stroke="#2D4ADE" stroke-width="2" stroke-linecap="round" stroke-linejoin="round"/>
<path d="M42.2617 16.2198L52.871 13.3254" stroke="#2D4ADE" stroke-width="2" stroke-linecap="round" stroke-linejoin="round"/>
<path d="M13.3252 46.1216V53.8365" stroke="#2D4ADE" stroke-width="2" stroke-linecap="round" stroke-linejoin="round"/>
</svg>
