<svg width="50" height="59" viewBox="0 0 50 59" fill="none" xmlns="http://www.w3.org/2000/svg">
<path d="M25.1417 34.7367C29.6573 34.7367 30.561 46.4788 30.561 49.1898V53.7054C30.561 54.6634 30.9416 55.5821 31.6189 56.2594C32.2963 56.9368 33.2149 57.3173 34.1729 57.3173V57.3173C39.5922 57.3173 41.3914 47.3825 41.3914 41.9632V41.4071C41.3906 37.378 42.3531 33.407 44.1987 29.8254C46.137 26.061 48.3053 21.6069 48.5834 13.867C48.8186 7.38639 43.7095 1.5153 37.2262 1.32548C35.3635 1.26817 33.5139 1.65586 31.8309 2.45639C29.743 3.47162 27.4554 4.00952 25.1338 4.0311V4.0311C22.8114 4.00929 20.5229 3.47141 18.4339 2.45639C16.7512 1.65527 14.9014 1.26755 13.0386 1.32548C6.55532 1.5153 1.44887 7.38639 1.68147 13.867C1.94882 21.6069 4.13047 26.061 6.06878 29.8281C7.91251 33.4104 8.87489 37.3809 8.876 41.4098V41.9632C8.876 47.3825 10.6833 57.3173 16.0945 57.3173C17.0525 57.3173 17.9711 56.9368 18.6485 56.2594C19.3259 55.5821 19.7064 54.6634 19.7064 53.7054V49.1898C19.7064 46.4788 20.6101 34.7367 25.1257 34.7367H25.1417Z" stroke="#2D4ADE" stroke-width="2" stroke-linecap="round" stroke-linejoin="round"/>
<path d="M16.8057 13.0624C17.7074 11.6751 18.9416 10.5353 20.3961 9.74668C21.8506 8.95803 23.4793 8.54555 25.1338 8.54676C26.7883 8.54579 28.4168 8.95838 29.8713 9.74701C31.3257 10.5356 32.56 11.6753 33.4619 13.0624" stroke="#2D4ADE" stroke-width="2" stroke-linecap="round" stroke-linejoin="round"/>
<path d="M17.7228 11.8807C17.0972 9.96105 14.9985 8.54675 12.4961 8.54675" stroke="#2D4ADE" stroke-width="2" stroke-linecap="round" stroke-linejoin="round"/>
<path d="M37.7739 8.54675C35.2741 8.54675 33.1727 9.96105 32.5498 11.8807" stroke="#2D4ADE" stroke-width="2" stroke-linecap="round" stroke-linejoin="round"/>
</svg>
