<?xml version="1.0" encoding="UTF-8"?>
<!DOCTYPE svg PUBLIC "-//W3C//DTD SVG 1.1//EN" "http://www.w3.org/Graphics/SVG/1.1/DTD/svg11.dtd">
<!-- Creator: CorelDRAW 2019 (64-Bit) -->
<svg xmlns="http://www.w3.org/2000/svg" xml:space="preserve" width="80.7104mm" height="17.226mm" version="1.1" style="shape-rendering:geometricPrecision; text-rendering:geometricPrecision; image-rendering:optimizeQuality; fill-rule:evenodd; clip-rule:evenodd"
viewBox="0 0 7195.24 1535.68"
 xmlns:xlink="http://www.w3.org/1999/xlink"
 xmlns:xodm="http://www.corel.com/coreldraw/odm/2003">
 <defs>
  <style type="text/css">
   <![CDATA[
    .fil0 {fill:white;fill-rule:nonzero}
   ]]>
  </style>
 </defs>
 <g id="Слой_x0020_1">
  <metadata id="CorelCorpID_0Corel-Layer"/>
  <g id="_2615027657184">
   <path class="fil0" d="M747.42 688.25c-181.15,215.12 -330.22,585.67 -375.74,736.63 -55.9,188.7 319.85,107.56 377.4,-29.72 44.57,-116.76 78.31,-439.19 84.91,-649.82 4.48,-144.12 -32.79,-121.24 -86.57,-57.08z"/>
   <path class="fil0" d="M807.8 461.1c64.86,-201.43 -178.8,-411.83 -328.81,-452.88 -362.3,-97.65 243.89,712.34 328.81,452.88z"/>
   <path class="fil0" d="M559.67 541.77c-284.23,-34.2 -660.45,288.24 -534.72,311.12 351.21,59.44 941.6,-263 534.72,-311.12z"/>
   <path class="fil0" d="M1523.68 109.41c-181.15,-63.92 -843.25,424.57 -597.24,418.67 382.35,-6.84 706.67,-379.76 597.24,-418.67z"/>
   <path class="fil0" d="M944.37 601.21c-91.75,13.92 -78.31,224.31 337.54,336.35 225.97,59.44 -125.25,-370.56 -337.54,-336.35z"/>
   <path class="fil0" d="M1957.91 1129.1c-23.32,2.2 -46.71,-3.62 -66.27,-16.52 -8.35,-7.64 -14.83,-17.11 -18.91,-27.66 -4.09,-10.56 -5.7,-21.91 -4.68,-33.19l0 -434c-2.32,-25.33 5.01,-50.6 20.52,-70.77 8.1,-8.67 18,-15.48 28.99,-19.96 10.99,-4.48 22.83,-6.52 34.69,-5.98l230.69 0c32.56,-1.4 65.03,4.34 95.14,16.8 30.11,12.47 57.13,31.37 79.17,55.37 58.73,64.63 61.56,150.96 61.56,224.56 0,66.04 -4.24,170.29 -52.84,235.87 -23.58,32.08 -72.88,74.77 -166.52,74.77l-241.54 0.71zm21.24 -133.04c-1.88,11.57 0.83,23.42 7.54,33.02 3.9,3.5 8.52,6.1 13.53,7.6 5.02,1.51 10.31,1.89 15.49,1.12l129.26 0c62.03,0 102.6,-13.92 128.31,-56.61 14.39,-23.59 29.72,-68.64 29.72,-172.18 0,-52.13 -4.24,-112.99 -41.75,-152.85 -37.5,-39.87 -87.51,-44.35 -127.38,-44.35l-116.05 0c-9.2,-0.8 -18.43,1.26 -26.42,5.9 -3.99,3.95 -7.11,8.71 -9.15,13.95 -2.03,5.24 -2.93,10.86 -2.65,16.47l-0.46 347.91z"/>
   <path class="fil0" d="M2665.77 582.11c21.23,-51.19 44.34,-68.64 97.89,-68.64 53.54,0 76.43,17.46 97.65,68.64l224.55 546.99 -117.94 0 -61.33 -154.03 -286.59 0 -59.68 154.03 -117.94 0 223.37 -546.99zm-16.98 311.35l228.8 0 -96.95 -247.91c-3.54,-8.73 -9.43,-25.24 -16.98,-25.24 -7.54,0 -13.68,16.51 -16.98,25.24l-97.89 247.91z"/>
   <path class="fil0" d="M3712.11 1050.78c0,61.8 -39.86,86.1 -88.21,86.1 -19.39,1.41 -38.75,-2.75 -55.86,-11.98 -17.07,-9.24 -31.18,-23.17 -40.62,-40.15l-250.49 -405.23c-8.5,-12.97 -11.79,-14.86 -13.45,-14.86 -1.65,0 -12.03,5.43 -12.03,17.46l0 446.98 -108.73 0 0 -533.07c0,-52.13 34.91,-82.56 90.81,-82.56 18.57,-1.82 37.29,1.64 53.97,9.99 16.7,8.34 30.69,21.24 40.38,37.18l252.61 408.29c4.25,6.13 5.9,14.86 13.45,14.86 7.54,0 9.43,-10.38 9.43,-14.86l0 -448.16 108.73 0 0 530.01z"/>
   <polygon class="fil0" points="4263.81,520.54 4384.58,520.54 4132.91,942.99 4132.91,1129.1 4020.63,1129.1 4020.63,942.99 3768.96,520.54 3889.72,520.54 4076.77,838.5 "/>
   <path class="fil0" d="M4657.25 1129.1c-56.85,0 -134.21,-8.02 -188.7,-70.77 -54.49,-62.74 -60.38,-157.33 -60.38,-224.32 0,-86.8 7.54,-176.43 57.79,-235.87 59.44,-70.77 152.14,-76.43 194.59,-76.43l238.23 0 0 91.29 -186.34 0c-66.28,0 -122.42,4.24 -156.38,56.37 -17.69,26.89 -33.02,73.12 -33.02,163.46 0,90.33 16.04,128.78 28.07,147.89 30.43,47.18 84.91,58.26 155.44,58.26l201.43 0 0 91.29 -250.73 -1.18z"/>
   <path class="fil0" d="M5542.01 579.04c62.27,60.85 68.16,166.99 68.16,246.96 0,79.96 -6.84,185.87 -68.16,246.72 -61.33,60.85 -168.18,64.39 -235.87,64.39 -67.7,0 -171.72,0 -235.88,-64.39 -68.88,-67.7 -68.88,-178.08 -68.88,-246.72 0,-82.79 4.25,-184.46 68.88,-246.96 64.63,-62.51 165.11,-64.39 235.88,-64.39 70.76,0 170.53,-1.19 235.87,64.39zm-390.84 415.13c34.9,47.18 90.81,50.48 152.85,50.48 62.03,0 117.94,-4.24 154.02,-50.48 19.58,-25.24 36.56,-70.76 36.56,-169.36 0,-105.2 -17.93,-146.94 -36.56,-170.53 -34.91,-44.34 -94.36,-49.53 -154.02,-49.53 -59.68,0 -117.94,5.19 -152.85,49.53 -23.59,29.72 -36.57,77.36 -36.57,170.53 0,99.07 16.75,144.12 36.57,169.36z"/>
   <path class="fil0" d="M7127.31 579.04c62.04,60.85 67.93,166.99 67.93,246.96 0,79.96 -6.84,185.87 -67.93,246.72 -64.62,64.39 -168.41,64.39 -237.29,64.39 -68.87,0 -171.71,0 -237.05,-64.39 -65.34,-64.39 -68.88,-178.08 -68.88,-246.72 0,-82.79 4.24,-184.46 68.88,-246.96 64.62,-62.51 165.11,-64.39 237.05,-64.39 71.94,0 171.72,-1.19 237.29,64.39zm-392.01 415.13c34.9,47.18 91.05,50.48 153.08,50.48 62.04,0 117.94,-4.24 153.79,-50.48 19.58,-25.24 36.56,-70.76 36.56,-169.36 0,-105.2 -17.93,-146.94 -36.56,-170.53 -34.91,-44.34 -94.35,-49.53 -153.79,-49.53 -59.44,0 -117.94,5.19 -153.08,49.53 -23.59,29.72 -36.56,77.36 -36.56,170.53 0.94,99.07 17.92,144.12 36.56,169.36z"/>
   <path class="fil0" d="M6182.17 1062.82c-16.98,47.17 -32.32,73.12 -85.16,73.12 -56.84,0 -70.76,-34.68 -84.91,-73.12l-152.13 -405.94c-2.59,-6.84 -9.44,-20.05 -14.39,-20.05 -9.44,0 -9.44,15.81 -9.44,18.4l2.83 473.87 -112.27 0 0 -535.67c0,-79.02 79.01,-79.97 96,-79.97 68.88,0 88.45,35.61 104.73,78.31l153.79 405.94c5.19,12.97 11.08,23.59 16.04,23.59 4.95,0 11.08,-9.67 16.28,-23.59l153.78 -405.94c25.48,-68.64 62.04,-78.31 104.49,-78.31 55.43,0 96.24,23.59 96.24,79.97l0 535.67 -112.51 0 2.35 -473.87c0,-16.51 -6.84,-18.4 -10.14,-18.4 -3.31,0 -11.79,13.21 -14.39,20.05l-151.2 405.94z"/>
  </g>
 </g>
</svg>
