<svg width="307" height="67" viewBox="0 0 307 67" fill="none" xmlns="http://www.w3.org/2000/svg">
<path d="M32.68 30.1599C25 39.2799 18.68 54.9899 16.75 61.3899C14.38 69.3899 30.31 65.9499 32.75 60.1299C34.64 55.1799 36.07 41.5099 36.35 32.5799C36.54 26.4699 34.96 27.4399 32.68 30.1599Z" fill="#0075FF"/>
<path d="M35.24 20.5299C37.99 11.9899 27.66 3.06986 21.3 1.32986C5.94 -2.81014 31.64 31.5299 35.24 20.5299Z" fill="#0075FF"/>
<path d="M24.72 23.9499C12.67 22.4999 -3.28001 36.1699 2.04999 37.1399C16.94 39.6599 41.97 25.9899 24.72 23.9499Z" fill="#0075FF"/>
<path d="M65.59 5.61986C57.91 2.90986 29.84 23.6199 40.27 23.3699C56.48 23.0799 70.23 7.26986 65.59 5.61986Z" fill="#0075FF"/>
<path d="M41.03 26.4699C37.14 27.0599 37.71 35.9799 55.34 40.7299C64.92 43.2499 50.03 25.0199 41.03 26.4699Z" fill="#0075FF"/>
<path d="M83.9999 48.85C83.0109 48.9437 82.0195 48.6967 81.1899 48.15C80.8361 47.8259 80.5617 47.4244 80.3883 46.977C80.2148 46.5295 80.147 46.048 80.1899 45.57V27.17C80.0917 26.0961 80.4024 25.0247 81.0599 24.17C81.4037 23.8023 81.8231 23.5136 82.2892 23.3237C82.7553 23.1338 83.2571 23.0472 83.7599 23.07H93.5399C94.9203 23.0108 96.2969 23.2539 97.5735 23.7825C98.85 24.3111 99.9956 25.1123 100.93 26.13C103.42 28.87 103.54 32.53 103.54 35.65C103.54 38.45 103.36 42.87 101.3 45.65C100.3 47.01 98.2099 48.82 94.2399 48.82L83.9999 48.85ZM84.8999 43.21C84.8204 43.7006 84.9352 44.2028 85.2199 44.61C85.3852 44.7583 85.581 44.8684 85.7936 44.9323C86.0062 44.9963 86.2303 45.0126 86.4499 44.98H91.9299C94.5599 44.98 96.2799 44.39 97.3699 42.58C97.9799 41.58 98.6299 39.67 98.6299 35.28C98.6299 33.07 98.4499 30.49 96.8599 28.8C95.2699 27.11 93.1499 26.92 91.4599 26.92H86.5399C86.1498 26.8859 85.7586 26.9733 85.4199 27.17C85.2503 27.3376 85.1181 27.5392 85.0319 27.7615C84.9457 27.9839 84.9076 28.2219 84.9199 28.46L84.8999 43.21Z" fill="white"/>
<path d="M114.01 25.66C114.91 23.49 115.89 22.75 118.16 22.75C120.43 22.75 121.4 23.49 122.3 25.66L131.82 48.85H126.82L124.22 42.32H112.07L109.54 48.85H104.54L114.01 25.66ZM113.29 38.86H122.99L118.88 28.35C118.73 27.98 118.48 27.28 118.16 27.28C117.84 27.28 117.58 27.98 117.44 28.35L113.29 38.86Z" fill="white"/>
<path d="M158.37 45.53C158.37 48.15 156.68 49.18 154.63 49.18C153.808 49.2399 152.987 49.0637 152.262 48.6721C151.538 48.2806 150.94 47.69 150.54 46.97L139.92 29.79C139.56 29.24 139.42 29.16 139.35 29.16C139.28 29.16 138.84 29.39 138.84 29.9V48.85H134.23V26.25C134.23 24.04 135.71 22.75 138.08 22.75C138.867 22.6728 139.661 22.8195 140.368 23.1734C141.076 23.5272 141.669 24.0738 142.08 24.75L152.79 42.06C152.97 42.32 153.04 42.69 153.36 42.69C153.68 42.69 153.76 42.25 153.76 42.06V23.06H158.37V45.53Z" fill="white"/>
<path d="M181.76 23.05H186.88L176.21 40.96V48.85H171.45V40.96L160.78 23.05H165.9L173.83 36.53L181.76 23.05Z" fill="white"/>
<path d="M198.44 48.85C196.03 48.85 192.75 48.51 190.44 45.85C188.13 43.19 187.88 39.18 187.88 36.34C187.88 32.66 188.2 28.86 190.33 26.34C192.85 23.34 196.78 23.1 198.58 23.1H208.68V26.97H200.78C197.97 26.97 195.59 27.15 194.15 29.36C193.4 30.5 192.75 32.46 192.75 36.29C192.75 40.12 193.43 41.75 193.94 42.56C195.23 44.56 197.54 45.03 200.53 45.03H209.07V48.9L198.44 48.85Z" fill="white"/>
<path d="M235.95 25.53C238.59 28.11 238.84 32.61 238.84 36C238.84 39.39 238.55 43.88 235.95 46.46C233.35 49.04 228.82 49.19 225.95 49.19C223.08 49.19 218.67 49.19 215.95 46.46C213.03 43.59 213.03 38.91 213.03 36C213.03 32.49 213.21 28.18 215.95 25.53C218.69 22.88 222.95 22.8 225.95 22.8C228.95 22.8 233.18 22.75 235.95 25.53ZM219.38 43.13C220.86 45.13 223.23 45.27 225.86 45.27C228.49 45.27 230.86 45.09 232.39 43.13C233.22 42.06 233.94 40.13 233.94 35.95C233.94 31.49 233.18 29.72 232.39 28.72C230.91 26.84 228.39 26.62 225.86 26.62C223.33 26.62 220.86 26.84 219.38 28.72C218.38 29.98 217.83 32 217.83 35.95C217.83 40.15 218.54 42.06 219.38 43.13Z" fill="white"/>
<path d="M303.16 25.53C305.79 28.11 306.04 32.61 306.04 36C306.04 39.39 305.75 43.88 303.16 46.46C300.42 49.19 296.02 49.19 293.1 49.19C290.18 49.19 285.82 49.19 283.05 46.46C280.28 43.73 280.13 38.91 280.13 36C280.13 32.49 280.31 28.18 283.05 25.53C285.79 22.88 290.05 22.8 293.1 22.8C296.15 22.8 300.38 22.75 303.16 25.53ZM286.54 43.13C288.02 45.13 290.4 45.27 293.03 45.27C295.66 45.27 298.03 45.09 299.55 43.13C300.38 42.06 301.1 40.13 301.1 35.95C301.1 31.49 300.34 29.72 299.55 28.72C298.07 26.84 295.55 26.62 293.03 26.62C290.51 26.62 288.03 26.84 286.54 28.72C285.54 29.98 284.99 32 284.99 35.95C285.03 40.15 285.75 42.06 286.54 43.13Z" fill="white"/>
<path d="M263.09 46.04C262.37 48.04 261.72 49.14 259.48 49.14C257.07 49.14 256.48 47.67 255.88 46.04L249.43 28.83C249.32 28.54 249.03 27.98 248.82 27.98C248.42 27.98 248.42 28.65 248.42 28.76L248.54 48.85H243.78V26.14C243.78 22.79 247.13 22.75 247.85 22.75C250.77 22.75 251.6 24.26 252.29 26.07L258.81 43.28C259.03 43.83 259.28 44.28 259.49 44.28C259.7 44.28 259.96 43.87 260.18 43.28L266.7 26.07C267.78 23.16 269.33 22.75 271.13 22.75C273.48 22.75 275.21 23.75 275.21 26.14V48.85H270.44L270.54 28.76C270.54 28.06 270.25 27.98 270.11 27.98C269.97 27.98 269.61 28.54 269.5 28.83L263.09 46.04Z" fill="white"/>
</svg>
