<?xml version="1.0" encoding="utf-8"?>
<!-- Generator: Adobe Illustrator 23.1.0, SVG Export Plug-In . SVG Version: 6.00 Build 0)  -->
<svg version="1.1" id="Слой_1" xmlns="http://www.w3.org/2000/svg" xmlns:xlink="http://www.w3.org/1999/xlink" x="0px" y="0px"
	 viewBox="0 0 71 70" style="enable-background:new 0 0 71 70;" xml:space="preserve">
<style type="text/css">
	.st0{fill:#FFFFFF;}
	.st1{fill-rule:evenodd;clip-rule:evenodd;fill:#357FE1;}
</style>
<path class="st0" d="M20.9,0h30c11,0,20,9,20,20v30c0,11-9,20-20,20h-30c-11,0-20-9-20-20V20C0.9,9,9.8,0,20.9,0z"/>
<path class="st1" d="M44.9,42c0.6,0,1-0.4,1-1c0,0,0-5.5,0-6s-0.1-1.1-0.5-1.5c-1.1-1.1-3.7-3.7-4.5-4.5c-1-1-1-1-2-1s-11,0-11,0
	c-0.6,0-1,0.4-1,1v12c0,0.6,0.4,1,1,1H44.9z M47.9,41c0,1.7-1.3,3-3,3h-17c-1.7,0-3-1.3-3-3V29c0-1.7,1.3-3,3-3H39
	c1.6,0,2,0.1,3.8,2c0.9,0.9,3,3,4,4c1,1,1,2.5,1,2.5L47.9,41z"/>
<path class="st1" d="M31.9,33c-0.6,0-1,0.4-1,1v3c0,0.6,0.4,1,1,1h3c0.6,0,1-0.4,1-1v-3c0-0.6-0.4-1-1-1H31.9z M28.9,34
	c0-1.7,1.3-3,3-3h3c1.7,0,3,1.3,3,3v3c0,1.7-1.3,3-3,3h-3c-1.7,0-3-1.3-3-3V34z"/>
</svg>
