<svg width="71" height="71" viewBox="0 0 71 71" fill="none" xmlns="http://www.w3.org/2000/svg">
<rect x="0.866943" y="0.912598" width="70" height="70" rx="20" fill="url(#paint0_linear)"/>
<path fill-rule="evenodd" clip-rule="evenodd" d="M41.7263 26.9998C40.6217 26.9998 39.7263 27.8952 39.7263 28.9998C39.7263 30.1043 40.6217 30.9998 41.7263 30.9998C42.8309 30.9998 43.7263 30.1043 43.7263 28.9998C43.7263 27.8952 42.8309 26.9998 41.7263 26.9998ZM37.7263 28.9998C37.7263 26.7906 39.5172 24.9998 41.7263 24.9998C43.9355 24.9998 45.7263 26.7906 45.7263 28.9998C45.7263 31.2089 43.9355 32.9998 41.7263 32.9998C39.5172 32.9998 37.7263 31.2089 37.7263 28.9998Z" fill="white"/>
<path fill-rule="evenodd" clip-rule="evenodd" d="M29.7263 33.9998C28.6217 33.9998 27.7263 34.8952 27.7263 35.9998C27.7263 37.1043 28.6217 37.9998 29.7263 37.9998C30.8309 37.9998 31.7263 37.1043 31.7263 35.9998C31.7263 34.8952 30.8309 33.9998 29.7263 33.9998ZM25.7263 35.9998C25.7263 33.7906 27.5172 31.9998 29.7263 31.9998C31.9355 31.9998 33.7263 33.7906 33.7263 35.9998C33.7263 38.2089 31.9355 39.9998 29.7263 39.9998C27.5172 39.9998 25.7263 38.2089 25.7263 35.9998Z" fill="white"/>
<path fill-rule="evenodd" clip-rule="evenodd" d="M41.7263 40.9998C40.6217 40.9998 39.7263 41.8952 39.7263 42.9998C39.7263 44.1043 40.6217 44.9998 41.7263 44.9998C42.8309 44.9998 43.7263 44.1043 43.7263 42.9998C43.7263 41.8952 42.8309 40.9998 41.7263 40.9998ZM37.7263 42.9998C37.7263 40.7906 39.5172 38.9998 41.7263 38.9998C43.9355 38.9998 45.7263 40.7906 45.7263 42.9998C45.7263 45.2089 43.9355 46.9998 41.7263 46.9998C39.5172 46.9998 37.7263 45.2089 37.7263 42.9998Z" fill="white"/>
<path fill-rule="evenodd" clip-rule="evenodd" d="M31.8588 37.3603C32.1369 36.8831 32.7491 36.7217 33.2263 36.9998L39.2263 40.4998C39.7035 40.7778 39.8649 41.3901 39.5868 41.8672C39.3088 42.3444 38.6965 42.5058 38.2194 42.2278L32.2194 38.7278C31.7422 38.4497 31.5808 37.8375 31.8588 37.3603Z" fill="white"/>
<path fill-rule="evenodd" clip-rule="evenodd" d="M39.586 30.132C39.8643 30.609 39.7033 31.2214 39.2263 31.4998L33.2344 35.2271C32.7574 35.5055 32.145 35.3445 31.8667 34.8675C31.5883 34.3905 31.7493 33.7781 32.2263 33.4998L38.2183 29.7724C38.6953 29.494 39.3076 29.655 39.586 30.132Z" fill="white"/>
<defs>
<linearGradient id="paint0_linear" x1="35.8669" y1="0.912598" x2="35.8669" y2="70.9126" gradientUnits="userSpaceOnUse">
<stop stop-color="#5A72F2"/>
<stop offset="1" stop-color="#445DDE"/>
</linearGradient>
</defs>
</svg>
