<svg width="71" height="71" viewBox="0 0 71 71" fill="none" xmlns="http://www.w3.org/2000/svg">
<rect x="0.842285" y="0.71228" width="70" height="70" rx="20" fill="url(#paint0_linear)"/>
<path fill-rule="evenodd" clip-rule="evenodd" d="M46.9639 44.9757C47.7072 44.9757 48.1907 44.1934 47.8583 43.5285L45.9639 39.7396V30.9855C45.9639 28.2144 43.7316 25.9757 40.9708 25.9757H30.957C28.199 25.9757 25.9639 28.2111 25.9639 30.9688V39.9826C25.9639 42.7407 28.2008 44.9757 30.9601 44.9757H46.9639ZM43.9639 39.9757C43.9639 40.131 44 40.2841 44.0694 40.4229L45.3458 42.9757H30.9632C29.3081 42.9757 27.967 41.6357 27.967 39.9826V30.9688C27.967 29.3156 29.3068 27.9757 30.9601 27.9757H40.9708C42.6257 27.9757 43.9639 29.3177 43.9639 30.9855V39.9757Z" fill="white"/>
<path d="M32.96 34.9618C32.96 35.5129 32.5132 35.9596 31.9622 35.9596C31.4111 35.9596 30.9644 35.5129 30.9644 34.9618C30.9644 34.4107 31.4111 33.964 31.9622 33.964C32.5132 33.964 32.96 34.4107 32.96 34.9618Z" fill="white"/>
<path d="M36.9622 34.9618C36.9622 35.5129 36.5154 35.9596 35.9644 35.9596C35.4133 35.9596 34.9666 35.5129 34.9666 34.9618C34.9666 34.4107 35.4133 33.964 35.9644 33.964C36.5154 33.964 36.9622 34.4107 36.9622 34.9618Z" fill="white"/>
<path d="M40.9644 34.9618C40.9644 35.5129 40.5176 35.9596 39.9666 35.9596C39.4155 35.9596 38.9688 35.5129 38.9688 34.9618C38.9688 34.4107 39.4155 33.964 39.9666 33.964C40.5176 33.964 40.9644 34.4107 40.9644 34.9618Z" fill="white"/>
<defs>
<linearGradient id="paint0_linear" x1="35.8423" y1="0.71228" x2="35.8423" y2="70.7123" gradientUnits="userSpaceOnUse">
<stop stop-color="#53A2FF"/>
<stop offset="1" stop-color="#318AFF"/>
</linearGradient>
</defs>
</svg>
