<svg width="71" height="71" viewBox="0 0 71 71" fill="none" xmlns="http://www.w3.org/2000/svg">
<rect x="0.32666" y="0.970154" width="69.9883" height="70" rx="20" fill="white"/>
<path d="M42.3754 47.9397C42.2754 47.9397 42.1754 47.9397 42.0754 47.9397C38.8759 47.5397 35.6765 46.4397 32.9769 44.7397C30.4773 43.1397 28.2777 40.9397 26.678 38.4397C24.8783 35.7397 23.7785 32.5397 23.4785 29.3397C23.4785 28.5397 23.6785 27.7397 24.1784 27.1397C24.6783 26.5397 25.3782 26.1397 26.1781 26.0397C26.278 26.0397 26.378 26.0397 26.478 26.0397H29.4775C30.9773 26.0397 32.277 27.1397 32.477 28.6397C32.577 29.5397 32.777 30.4397 33.0769 31.2397C33.4768 32.3397 33.1769 33.5397 32.377 34.4397L31.6771 35.1397C32.8769 36.9397 34.3767 38.5397 36.2764 39.7397L36.9763 39.0397C37.7761 38.2397 39.0759 37.9397 40.1757 38.3397C40.9756 38.6397 41.8754 38.8397 42.7753 38.9397C44.275 39.1397 45.3749 40.4397 45.3749 41.9397V44.9397C45.3749 45.7397 45.0749 46.5397 44.475 47.0397C43.8751 47.5397 43.1752 47.9397 42.3754 47.9397ZM29.4775 28.0397H26.478C26.1781 28.0397 25.8781 28.2397 25.6781 28.4397C25.5782 28.6397 25.4782 28.8397 25.4782 29.1397C25.7781 32.0397 26.778 34.8397 28.3777 37.3397C29.8774 39.6397 31.7771 41.6397 34.0767 43.0397C36.5763 44.6397 39.3759 45.6397 42.2754 45.9397C42.6753 45.9397 42.8753 45.8397 43.0752 45.6397C43.2752 45.4397 43.3752 45.2397 43.3752 44.9397V41.9397C43.3752 41.4397 42.9753 41.0397 42.4753 40.9397C41.4755 40.8397 40.4757 40.5397 39.4758 40.1397C39.0759 40.0397 38.676 40.0397 38.376 40.3397L37.0762 41.6397C36.7763 41.9397 36.2764 42.0397 35.8764 41.8397C33.1769 40.3397 30.9773 38.1397 29.4775 35.4397C29.3775 35.0397 29.4775 34.5397 29.7775 34.2397L31.0772 32.9397C31.2772 32.7397 31.3772 32.2397 31.2772 31.9397C30.8773 30.9397 30.6773 29.9397 30.4773 28.9397C30.4773 28.4397 29.9774 28.0397 29.4775 28.0397ZM41.3755 35.0397C40.8756 35.0397 40.4757 34.7397 40.3757 34.2397C40.0757 32.6397 38.776 31.4397 37.1762 31.0397C36.6763 30.9397 36.2764 30.4397 36.3764 29.8397C36.4763 29.3397 36.9763 28.9397 37.5762 29.0397C39.9758 29.5397 41.8754 31.3397 42.2754 33.7397C42.3754 34.2397 42.1043 34.9397 41.5044 35.0397C41.5044 35.0397 41.4755 35.0397 41.3755 35.0397ZM45.3749 34.9397C44.8749 34.9397 44.475 34.5397 44.375 34.0397C43.9751 30.3397 41.0756 27.4397 37.2762 26.9397C36.7763 26.8397 36.3492 26.4899 36.3492 25.8698C36.3492 25.1865 36.9664 24.8855 37.4762 24.9397C42.1754 25.4397 45.8053 29.0444 46.3052 33.7444C46.3667 34.3231 46.1724 34.7522 45.6177 34.9202C45.51 34.9528 45.3749 34.9397 45.3749 34.9397Z" fill="#8864BF"/>
</svg>
