<svg width="71" height="70" viewBox="0 0 71 70" fill="none" xmlns="http://www.w3.org/2000/svg">
<rect x="0.130371" width="70" height="69.9863" rx="20" fill="url(#paint0_linear)"/>
<g clip-path="url(#clip0)">
<path d="M43.1302 45.8908C43.0302 45.8908 42.9302 45.8908 42.8302 45.8908C39.6302 45.4908 36.4302 44.3911 33.7302 42.6914C31.2302 41.0917 29.0302 38.8921 27.4302 36.3926C25.6302 33.6932 24.5302 30.4938 24.2302 27.2944C24.2302 26.4946 24.4302 25.6947 24.9302 25.0948C25.4302 24.495 26.1302 24.095 26.9302 23.995C27.0302 23.995 27.1302 23.995 27.2302 23.995H30.2302C31.7302 23.995 33.0302 25.0948 33.2302 26.5945C33.3302 27.4944 33.5302 28.3942 33.8302 29.194C34.2302 30.2938 33.9302 31.4936 33.1302 32.3934L32.4302 33.0933C33.6302 34.8929 35.1302 36.4926 37.0302 37.6924L37.7302 36.9925C38.5302 36.1927 39.8302 35.8927 40.9302 36.2926C41.7302 36.5926 42.6302 36.7925 43.5302 36.8925C45.0302 37.0925 46.1302 38.3922 46.1302 39.8919V42.8914C46.1302 43.6912 45.8302 44.491 45.2302 44.9909C44.6302 45.4908 43.9302 45.8908 43.1302 45.8908ZM30.2302 25.9947H27.2302C26.9302 25.9947 26.6302 26.1946 26.4302 26.3946C26.3302 26.5945 26.2302 26.7945 26.2302 27.0944C26.5302 29.9939 27.5302 32.7933 29.1302 35.2928C30.6302 37.5924 32.5302 39.592 34.8302 40.9917C37.3302 42.5914 40.1302 43.5912 43.0302 43.8912C43.4302 43.8912 43.6302 43.7912 43.8302 43.5912C44.0302 43.3913 44.1302 43.1913 44.1302 42.8914V39.8919C44.1302 39.392 43.7302 38.9921 43.2302 38.8921C42.2302 38.7922 41.2302 38.4922 40.2302 38.0923C39.8302 37.9923 39.4302 37.9923 39.1302 38.2923L37.8302 39.592C37.5302 39.8919 37.0302 39.9919 36.6302 39.792C33.9302 38.2923 31.7302 36.0927 30.2302 33.3932C30.1302 32.9933 30.2302 32.4934 30.5302 32.1934L31.8302 30.8937C32.0302 30.6937 32.1302 30.1938 32.0302 29.8939C31.6302 28.8941 31.4302 27.8943 31.2302 26.8945C31.2302 26.3946 30.7302 25.9947 30.2302 25.9947ZM42.1302 32.9933C41.6302 32.9933 41.2302 32.6933 41.1302 32.1934C40.8302 30.5938 39.5302 29.394 37.9302 28.9941C37.4302 28.8941 37.0302 28.3942 37.1302 27.7943C37.2302 27.2944 37.7302 26.8945 38.3302 26.9945C40.7302 27.4944 42.6302 29.294 43.0302 31.6935C43.1302 32.1934 42.8302 32.7933 42.2302 32.8933C42.2302 32.8933 42.2302 32.9933 42.1302 32.9933ZM46.1302 32.8933C45.6302 32.8933 45.2302 32.4934 45.1302 31.9935C44.7302 28.2942 41.8302 25.3948 38.0302 24.8949C37.5302 24.7949 37.1302 24.295 37.1302 23.7951C37.1302 23.2952 37.7302 22.8953 38.2302 22.8953C42.9302 23.3952 46.5302 26.9945 47.0302 31.6935C47.1302 32.1934 46.7302 32.6933 46.1302 32.7933C46.2302 32.8933 46.1302 32.8933 46.1302 32.8933Z" fill="white"/>
</g>
<defs>
<linearGradient id="paint0_linear" x1="35.1304" y1="0" x2="35.1304" y2="69.9863" gradientUnits="userSpaceOnUse">
<stop stop-color="#AB8FD5"/>
<stop offset="1" stop-color="#987AC5"/>
</linearGradient>
<clipPath id="clip0">
<rect width="24" height="23.9953" fill="white" transform="translate(23.1301 22.9954)"/>
</clipPath>
</defs>
</svg>
