<svg width="71" height="70" viewBox="0 0 71 70" fill="none" xmlns="http://www.w3.org/2000/svg">
<rect x="0.0391846" width="70" height="70" rx="20" fill="url(#paint0_linear)"/>
<path fill-rule="evenodd" clip-rule="evenodd" d="M37.0392 26.9556C37.0392 26.4033 37.4869 25.9556 38.0392 25.9556H44.0392C44.5915 25.9556 45.0392 26.4033 45.0392 26.9556V32.9556C45.0392 33.5079 44.5915 33.9556 44.0392 33.9556C43.4869 33.9556 43.0392 33.5079 43.0392 32.9556V27.9556H38.0392C37.4869 27.9556 37.0392 27.5079 37.0392 26.9556Z" fill="white"/>
<path fill-rule="evenodd" clip-rule="evenodd" d="M26.0392 37.9556C26.5915 37.9556 27.0392 38.4033 27.0392 38.9556V43.9556H32.0392C32.5915 43.9556 33.0392 44.4033 33.0392 44.9556C33.0392 45.5079 32.5915 45.9556 32.0392 45.9556H26.0392C25.4869 45.9556 25.0392 45.5079 25.0392 44.9556V38.9556C25.0392 38.4033 25.4869 37.9556 26.0392 37.9556Z" fill="white"/>
<path fill-rule="evenodd" clip-rule="evenodd" d="M44.7463 26.2485C45.1368 26.639 45.1368 27.2721 44.7463 27.6627L37.7463 34.6627C37.3558 35.0532 36.7226 35.0532 36.3321 34.6627C35.9416 34.2721 35.9416 33.639 36.3321 33.2485L43.3321 26.2485C43.7226 25.8579 44.3558 25.8579 44.7463 26.2485Z" fill="white"/>
<path fill-rule="evenodd" clip-rule="evenodd" d="M33.7463 37.2485C34.1368 37.639 34.1368 38.2721 33.7463 38.6627L26.7463 45.6627C26.3558 46.0532 25.7226 46.0532 25.3321 45.6627C24.9416 45.2721 24.9416 44.639 25.3321 44.2485L32.3321 37.2485C32.7226 36.8579 33.3558 36.8579 33.7463 37.2485Z" fill="white"/>
<defs>
<linearGradient id="paint0_linear" x1="35.0392" y1="0" x2="35.0392" y2="70" gradientUnits="userSpaceOnUse">
<stop stop-color="#6DADE9"/>
<stop offset="1" stop-color="#4E9CE4"/>
</linearGradient>
</defs>
</svg>
