<svg width="71" height="71" viewBox="0 0 71 71" fill="none" xmlns="http://www.w3.org/2000/svg">
<rect x="0.0131836" y="0.952148" width="70" height="70" rx="20" fill="url(#paint0_linear)"/>
<path fill-rule="evenodd" clip-rule="evenodd" d="M29 35C28.4477 35 28 35.4477 28 36V43C28 43.5523 28.4477 44 29 44H43C43.5523 44 44 43.5523 44 43V36C44 35.4477 43.5523 35 43 35H29ZM26 36C26 34.3431 27.3431 33 29 33H43C44.6569 33 46 34.3431 46 36V43C46 44.6569 44.6569 46 43 46H29C27.3431 46 26 44.6569 26 43V36Z" fill="white"/>
<path fill-rule="evenodd" clip-rule="evenodd" d="M36 26C34.9391 26 33.9217 26.4214 33.1716 27.1716C32.4214 27.9217 32 28.9391 32 30V34C32 34.5523 31.5523 35 31 35C30.4477 35 30 34.5523 30 34V30C30 28.4087 30.6321 26.8826 31.7574 25.7574C32.8826 24.6321 34.4087 24 36 24C37.5913 24 39.1174 24.6321 40.2426 25.7574C41.3679 26.8826 42 28.4087 42 30V34C42 34.5523 41.5523 35 41 35C40.4477 35 40 34.5523 40 34V30C40 28.9391 39.5786 27.9217 38.8284 27.1716C38.0783 26.4214 37.0609 26 36 26Z" fill="white"/>
<path fill-rule="evenodd" clip-rule="evenodd" d="M20 39.0061C20 38.4538 20.4477 38.0061 21 38.0061H26.4932C27.0455 38.0061 27.4932 38.4538 27.4932 39.0061C27.4932 39.5584 27.0455 40.0061 26.4932 40.0061H21C20.4477 40.0061 20 39.5584 20 39.0061Z" fill="white"/>
<path fill-rule="evenodd" clip-rule="evenodd" d="M44.5143 38.9646C44.5143 38.4123 44.962 37.9646 45.5143 37.9646H51.0075C51.5598 37.9646 52.0075 38.4123 52.0075 38.9646C52.0075 39.5169 51.5598 39.9646 51.0075 39.9646H45.5143C44.962 39.9646 44.5143 39.5169 44.5143 38.9646Z" fill="white"/>
<defs>
<linearGradient id="paint0_linear" x1="35.0132" y1="0.952148" x2="35.0132" y2="70.9521" gradientUnits="userSpaceOnUse">
<stop stop-color="#475573"/>
<stop offset="1" stop-color="#394869"/>
</linearGradient>
</defs>
</svg>
