<?xml version="1.0" encoding="utf-8"?>
<!-- Generator: Adobe Illustrator 23.1.0, SVG Export Plug-In . SVG Version: 6.00 Build 0)  -->
<svg version="1.1" id="Слой_1" xmlns="http://www.w3.org/2000/svg" xmlns:xlink="http://www.w3.org/1999/xlink" x="0px" y="0px"
	 viewBox="0 0 71 71" style="enable-background:new 0 0 71 71;" xml:space="preserve">
<style type="text/css">
	.st0{fill:#FFFFFF;}
	.st1{fill:#357FE1;}
</style>
<path class="st0" d="M20.5,0.9h30c11,0,20,9,20,20v30c0,11-9,20-20,20h-30c-11,0-20-9-20-20v-30C0.5,9.9,9.5,0.9,20.5,0.9z"/>
<path class="st1" d="M40.8,47h-10c-1.7,0-3-1.3-3-3V28c0-1.7,1.3-3,3-3h10c1.7,0,3,1.3,3,3v16C43.8,45.7,42.5,47,40.8,47z M30.8,27
	c-0.6,0-1,0.4-1,1v16c0,0.6,0.4,1,1,1h10c0.6,0,1-0.4,1-1V28c0-0.6-0.4-1-1-1H30.8z"/>
<path class="st1" d="M35.8,43c-0.1,0-0.3,0-0.4-0.1c-0.1,0-0.2-0.1-0.3-0.2c-0.2-0.2-0.3-0.4-0.3-0.7c0-0.1,0-0.3,0.1-0.4
	c0.1-0.1,0.1-0.2,0.2-0.3c0.4-0.4,1-0.4,1.4,0c0.2,0.2,0.3,0.5,0.3,0.7c0,0.3-0.1,0.5-0.3,0.7S36.1,43,35.8,43z"/>
</svg>
