<svg width="71" height="71" viewBox="0 0 71 71" fill="none" xmlns="http://www.w3.org/2000/svg">
<rect x="0.995117" y="0.043335" width="70" height="69.9666" rx="20" fill="url(#paint0_linear)"/>
<path fill-rule="evenodd" clip-rule="evenodd" d="M27.998 27.0308C27.4458 27.0308 26.998 27.4783 26.998 28.0303V38.0253C26.998 38.5774 27.4458 39.0249 27.998 39.0249H43.998C44.5503 39.0249 44.998 38.5774 44.998 38.0253V28.0303C44.998 27.4783 44.5503 27.0308 43.998 27.0308H27.998ZM24.998 28.0303C24.998 26.3742 26.3412 25.0317 27.998 25.0317H43.998C45.6549 25.0317 46.998 26.3742 46.998 28.0303V38.0253C46.998 39.6814 45.6549 41.0239 43.998 41.0239H27.998C26.3412 41.0239 24.998 39.6814 24.998 38.0253V28.0303Z" fill="white"/>
<path fill-rule="evenodd" clip-rule="evenodd" d="M30.998 44.0224C30.998 43.4704 31.4458 43.0229 31.998 43.0229H39.998C40.5503 43.0229 40.998 43.4704 40.998 44.0224C40.998 44.5744 40.5503 45.0219 39.998 45.0219H31.998C31.4458 45.0219 30.998 44.5744 30.998 44.0224Z" fill="white"/>
<path fill-rule="evenodd" clip-rule="evenodd" d="M35.998 39.0248C36.5503 39.0248 36.998 39.4723 36.998 40.0243V44.0224C36.998 44.5744 36.5503 45.0219 35.998 45.0219C35.4458 45.0219 34.998 44.5744 34.998 44.0224V40.0243C34.998 39.4723 35.4458 39.0248 35.998 39.0248Z" fill="white"/>
<defs>
<linearGradient id="paint0_linear" x1="35.9951" y1="0.043335" x2="35.9951" y2="70.0099" gradientUnits="userSpaceOnUse">
<stop stop-color="#26ACD9"/>
<stop offset="1" stop-color="#0A8FC8"/>
</linearGradient>
</defs>
</svg>
