<svg width="71" height="71" viewBox="0 0 71 71" fill="none" xmlns="http://www.w3.org/2000/svg">
<rect x="0.119141" y="0.912842" width="70" height="70" rx="20" fill="url(#paint0_linear)"/>
<path fill-rule="evenodd" clip-rule="evenodd" d="M34.737 25.0637C34.9634 24.9788 35.2129 24.9788 35.4393 25.0637L43.4393 28.0637C43.8296 28.21 44.0881 28.5832 44.0881 29V36C44.0881 39.4464 41.8064 42.2003 39.7466 44.0026C38.6958 44.9221 37.6496 45.6408 36.8681 46.1292C36.4764 46.3741 36.1485 46.5627 35.9162 46.6913C35.8 46.7556 35.7076 46.805 35.6428 46.839C35.6104 46.856 35.585 46.8692 35.5669 46.8784L35.5454 46.8894L35.5389 46.8926L35.5368 46.8937C35.5364 46.8939 35.5353 46.8944 35.0881 46C34.6409 46.8944 34.6406 46.8943 34.6403 46.8941L34.6374 46.8926L34.6309 46.8894L34.6094 46.8784C34.5913 46.8692 34.5658 46.856 34.5335 46.839C34.4687 46.805 34.3763 46.7556 34.2601 46.6913C34.0278 46.5627 33.6999 46.3741 33.3081 46.1292C32.5267 45.6408 31.4805 44.9221 30.4296 44.0026C28.3699 42.2003 26.0881 39.4464 26.0881 36V29C26.0881 28.5832 26.3467 28.21 26.737 28.0637L34.737 25.0637ZM35.0881 46L34.6403 46.8941C34.9218 47.0349 35.2538 47.0352 35.5353 46.8944L35.0881 46ZM35.0881 44.8628C35.2798 44.7541 35.5248 44.6103 35.8081 44.4333C36.5267 43.9842 37.4805 43.3279 38.4296 42.4974C40.3699 40.7997 42.0881 38.5536 42.0881 36V29.693L35.0881 27.068L28.0881 29.693V36C28.0881 38.5536 29.8064 40.7997 31.7466 42.4974C32.6958 43.3279 33.6496 43.9842 34.3681 44.4333C34.6514 44.6103 34.8965 44.7541 35.0881 44.8628Z" fill="white"/>
<defs>
<linearGradient id="paint0_linear" x1="35.1191" y1="0.912842" x2="35.1191" y2="70.9128" gradientUnits="userSpaceOnUse">
<stop stop-color="#8D7FC7"/>
<stop offset="1" stop-color="#7868B7"/>
</linearGradient>
</defs>
</svg>
