<svg width="71" height="71" viewBox="0 0 71 71" fill="none" xmlns="http://www.w3.org/2000/svg">
<rect x="0.53125" y="0.777588" width="70" height="70" rx="20" fill="url(#paint0_linear)"/>
<path fill-rule="evenodd" clip-rule="evenodd" d="M36.1544 25.5097C37.286 24.4168 38.8016 23.812 40.3748 23.8257C41.948 23.8393 43.4529 24.4704 44.5653 25.5828C45.6778 26.6952 46.3088 28.2001 46.3224 29.7733C46.3361 31.3465 45.7313 32.8621 44.6384 33.9937L44.6262 34.0061L41.6263 37.006C41.0181 37.6145 40.2861 38.085 39.48 38.3857C38.6738 38.6864 37.8125 38.8102 36.9543 38.7488C36.0961 38.6873 35.2612 38.442 34.5062 38.0295C33.7512 37.617 33.0937 37.0469 32.5783 36.358C32.2475 35.9157 32.3379 35.289 32.7801 34.9582C33.2224 34.6274 33.8491 34.7178 34.1799 35.16C34.5234 35.6193 34.9618 35.9994 35.4651 36.2744C35.9685 36.5494 36.5251 36.7129 37.0972 36.7539C37.6693 36.7949 38.2435 36.7123 38.7809 36.5118C39.3184 36.3114 39.8064 35.9977 40.2119 35.592L43.2055 32.5984C43.9306 31.8446 44.3316 30.8367 44.3225 29.7907C44.3134 28.7419 43.8927 27.7386 43.1511 26.997C42.4095 26.2554 41.4062 25.8347 40.3574 25.8256C39.3109 25.8165 38.3026 26.2179 37.5487 26.9435L35.8341 28.6482C35.4425 29.0375 34.8093 29.0357 34.4199 28.644C34.0306 28.2524 34.0324 27.6192 34.4241 27.2298L36.1441 25.5198L36.1544 25.5097Z" fill="white"/>
<path fill-rule="evenodd" clip-rule="evenodd" d="M31.2783 31.1323C32.0844 30.8316 32.9457 30.7078 33.8039 30.7692C34.6621 30.8307 35.497 31.076 36.252 31.4885C37.007 31.901 37.6645 32.4711 38.1799 33.16C38.5107 33.6023 38.4203 34.229 37.9781 34.5598C37.5358 34.8906 36.9091 34.8002 36.5783 34.358C36.2348 33.8987 35.7965 33.5186 35.2931 33.2436C34.7897 32.9686 34.2331 32.8051 33.661 32.7641C33.0889 32.7231 32.5147 32.8057 31.9773 33.0062C31.4399 33.2066 30.9518 33.5203 30.5463 33.926L27.5527 36.9196C26.8277 37.6734 26.4266 38.6813 26.4357 39.7273C26.4448 40.7761 26.8655 41.7794 27.6071 42.521C28.3488 43.2626 29.352 43.6833 30.4008 43.6924C31.4468 43.7015 32.4547 43.3004 33.2085 42.5754L34.912 40.8719C35.3025 40.4814 35.9357 40.4814 36.3262 40.8719C36.7167 41.2624 36.7167 41.8956 36.3262 42.2861L34.6162 43.9961L34.6038 44.0083C33.4722 45.1012 31.9566 45.706 30.3834 45.6923C28.8102 45.6787 27.3054 45.0476 26.1929 43.9352C25.0805 42.8228 24.4494 41.3179 24.4358 39.7447C24.4221 38.1715 25.0269 36.6559 26.1198 35.5243L26.132 35.5119L29.1319 32.512C29.1318 32.5121 29.1319 32.512 29.1319 32.512C29.7401 31.9036 30.4722 31.433 31.2783 31.1323Z" fill="white"/>
<defs>
<linearGradient id="paint0_linear" x1="35.5312" y1="0.777588" x2="35.5313" y2="70.7776" gradientUnits="userSpaceOnUse">
<stop stop-color="#ADAFE1"/>
<stop offset="1" stop-color="#9699CE"/>
</linearGradient>
</defs>
</svg>
