<svg width="71" height="70" viewBox="0 0 71 70" fill="none" xmlns="http://www.w3.org/2000/svg">
<rect x="0.511841" y="0.5" width="69" height="69" rx="19.5" fill="white"/>
<path fill-rule="evenodd" clip-rule="evenodd" d="M34.445 27.0684C34.7915 27.2349 35.0118 27.5853 35.0118 27.9697V41.9697C35.0118 42.3541 34.7915 42.7045 34.445 42.871C34.0986 43.0376 33.6873 42.9907 33.3871 42.7506L28.6611 38.9697H25.0118C24.4596 38.9697 24.0118 38.522 24.0118 37.9697V31.9697C24.0118 31.4174 24.4596 30.9697 25.0118 30.9697H28.6611L33.3871 27.1889C33.6873 26.9487 34.0986 26.9019 34.445 27.0684ZM33.0118 30.0504L29.6365 32.7506C29.4592 32.8924 29.2389 32.9697 29.0118 32.9697H26.0118V36.9697H29.0118C29.2389 36.9697 29.4592 37.047 29.6365 37.1889L33.0118 39.8891V30.0504Z" fill="#5C9FF8"/>
<path fill-rule="evenodd" clip-rule="evenodd" d="M41.3748 27.1925C41.7654 26.802 42.3986 26.8021 42.7891 27.1927C44.8512 29.2555 46.0097 32.0529 46.0097 34.9697C46.0097 37.8865 44.8512 40.6839 42.7891 42.7467C42.3986 43.1373 41.7654 43.1374 41.3748 42.7469C40.9843 42.3565 40.9842 41.7233 41.3746 41.3327C43.0619 39.645 44.0097 37.3562 44.0097 34.9697C44.0097 32.5833 43.0619 30.2945 41.3746 28.6067C40.9842 28.2161 40.9843 27.583 41.3748 27.1925ZM37.8448 30.7225C38.2354 30.332 38.8686 30.3321 39.2591 30.7227C40.3839 31.8479 41.0158 33.3737 41.0158 34.9647C41.0158 36.5557 40.3839 38.0816 39.2591 39.2067C38.8686 39.5973 38.2354 39.5974 37.8448 39.2069C37.4543 38.8165 37.4542 38.1833 37.8446 37.7927C38.5945 37.0426 39.0158 36.0254 39.0158 34.9647C39.0158 33.9041 38.5945 32.8868 37.8446 32.1367C37.4542 31.7461 37.4543 31.113 37.8448 30.7225Z" fill="#5C9FF8"/>
</svg>
