<svg width="71" height="70" viewBox="0 0 71 70" fill="none" xmlns="http://www.w3.org/2000/svg">
<path d="M0.876953 20C0.876953 8.9543 9.83126 0 20.877 0H50.8428C61.8885 0 70.8428 8.95431 70.8428 20V50C70.8428 61.0457 61.8885 70 50.8428 70H20.877C9.83127 70 0.876953 61.0457 0.876953 50V20Z" fill="url(#paint0_linear)"/>
<path fill-rule="evenodd" clip-rule="evenodd" d="M29.3474 27.5C28.7951 27.5 28.3474 27.9477 28.3474 28.5V42.5C28.3474 43.0523 28.7951 43.5 29.3474 43.5H43.3474C43.8996 43.5 44.3474 43.0523 44.3474 42.5V28.5C44.3474 27.9477 43.8996 27.5 43.3474 27.5H29.3474ZM26.3474 28.5C26.3474 26.8431 27.6905 25.5 29.3474 25.5H43.3474C45.0042 25.5 46.3474 26.8431 46.3474 28.5V42.5C46.3474 44.1569 45.0042 45.5 43.3474 45.5H29.3474C27.6905 45.5 26.3474 44.1569 26.3474 42.5V28.5Z" fill="white"/>
<path fill-rule="evenodd" clip-rule="evenodd" d="M26.3474 32.5C26.3474 31.9477 26.7951 31.5 27.3474 31.5H45.3474C45.8996 31.5 46.3474 31.9477 46.3474 32.5C46.3474 33.0523 45.8996 33.5 45.3474 33.5H27.3474C26.7951 33.5 26.3474 33.0523 26.3474 32.5Z" fill="white"/>
<path fill-rule="evenodd" clip-rule="evenodd" d="M33.3474 31.5C33.8996 31.5 34.3474 31.9477 34.3474 32.5V44.5C34.3474 45.0523 33.8996 45.5 33.3474 45.5C32.7951 45.5 32.3474 45.0523 32.3474 44.5V32.5C32.3474 31.9477 32.7951 31.5 33.3474 31.5Z" fill="white"/>
<defs>
<linearGradient id="paint0_linear" x1="35.8599" y1="0" x2="35.8599" y2="70" gradientUnits="userSpaceOnUse">
<stop stop-color="#2FB87E"/>
<stop offset="1" stop-color="#13AA62"/>
</linearGradient>
</defs>
</svg>
