<svg width="71" height="71" viewBox="0 0 71 71" fill="none" xmlns="http://www.w3.org/2000/svg">
<rect x="0.996094" y="0.00634766" width="69.9678" height="70" rx="20" fill="white"/>
<path fill-rule="evenodd" clip-rule="evenodd" d="M38.4999 24.2949C36.0822 23.7307 33.5447 24.0009 31.3001 25.0617C29.0554 26.1225 27.2356 27.9113 26.1366 30.1375C25.0375 32.3636 24.7239 34.8961 25.2466 37.3231C25.7693 39.7501 27.0977 41.929 29.0157 43.5053C30.9337 45.0816 33.3286 45.9628 35.8109 46.0055C38.2932 46.0481 40.7169 45.2499 42.688 43.7404C43.1265 43.4046 43.2097 42.7769 42.874 42.3385C42.5382 41.9 41.9105 41.8167 41.472 42.1525C39.8593 43.3875 37.8762 44.0407 35.8453 44.0058C33.8143 43.9708 31.8549 43.2499 30.2856 41.9602C28.7163 40.6704 27.6294 38.8878 27.2018 36.902C26.7741 34.9163 27.0307 32.8443 27.9299 31.0229C28.8292 29.2015 30.3181 27.7378 32.1546 26.87C33.9912 26.0021 36.0673 25.781 38.0454 26.2426C40.0235 26.7042 41.7873 27.8215 43.05 29.4126C44.3126 31.0037 44.9999 32.9753 45 35.0065V36.0065C45 36.5369 44.7893 37.0456 44.4142 37.4207C44.0392 37.7957 43.5304 38.0065 43 38.0065C42.4696 38.0065 41.9609 37.7957 41.5858 37.4207C41.2107 37.0456 41 36.5369 41 36.0065V31.0065C41 30.4542 40.5523 30.0065 40 30.0065C39.4478 30.0065 39.0002 30.454 39 31.0061C38.1643 30.3784 37.1256 30.0065 36 30.0065C33.2386 30.0065 31 32.245 31 35.0065C31 37.7679 33.2386 40.0065 36 40.0065C37.4881 40.0065 38.8244 39.3564 39.7403 38.3247C39.8687 38.5053 40.0128 38.6761 40.1716 38.8349C40.9217 39.585 41.9391 40.0065 43 40.0065C44.0609 40.0065 45.0783 39.585 45.8284 38.8349C46.5786 38.0847 47 37.0673 47 36.0065V35.0064C46.9999 32.5237 46.1599 30.1141 44.6166 28.1694C43.0734 26.2246 40.9176 24.8591 38.4999 24.2949ZM33 35.0065C33 33.3496 34.3431 32.0065 36 32.0065C37.6569 32.0065 39 33.3496 39 35.0065C39 36.6633 37.6569 38.0065 36 38.0065C34.3431 38.0065 33 36.6633 33 35.0065Z" fill="#FF6B00"/>
</svg>
