<svg width="71" height="70" viewBox="0 0 71 70" fill="none" xmlns="http://www.w3.org/2000/svg">
<rect x="0.0910645" width="69.9678" height="70" rx="20" fill="url(#paint0_linear)"/>
<path fill-rule="evenodd" clip-rule="evenodd" d="M37.407 24.24C34.9893 23.6758 32.4518 23.946 30.2071 25.0068C27.9625 26.0675 26.1427 27.8564 25.0436 30.0826C23.9446 32.3087 23.6309 34.8412 24.1536 37.2682C24.6764 39.6952 26.0047 41.874 27.9227 43.4504C29.8408 45.0267 32.2356 45.9078 34.7179 45.9505C37.2002 45.9932 39.624 45.1949 41.5951 43.6855C42.0335 43.3497 42.1168 42.722 41.781 42.2835C41.4452 41.845 40.8175 41.7618 40.3791 42.0976C38.7664 43.3326 36.7833 43.9858 34.7523 43.9508C32.7213 43.9159 30.7619 43.195 29.1926 41.9052C27.6233 40.6155 26.5365 38.8328 26.1088 36.8471C25.6811 34.8614 25.9378 32.7893 26.837 30.9679C27.7362 29.1466 29.2251 27.6829 31.0617 26.815C32.8982 25.9471 34.9743 25.726 36.9524 26.1877C38.9306 26.6493 40.6943 27.7665 41.957 29.3577C43.2196 30.9488 43.9069 32.9203 43.9071 34.9516V35.9515C43.9071 36.482 43.6963 36.9907 43.3213 37.3657C42.9462 37.7408 42.4375 37.9515 41.9071 37.9515C41.3766 37.9515 40.8679 37.7408 40.4928 37.3657C40.1178 36.9907 39.9071 36.482 39.9071 35.9515V30.9515C39.9071 30.3992 39.4593 29.9515 38.9071 29.9515C38.3549 29.9515 37.9072 30.3991 37.9071 30.9512C37.0714 30.3235 36.0327 29.9515 34.907 29.9515C32.1456 29.9515 29.907 32.1901 29.907 34.9515C29.907 37.7129 32.1456 39.9515 34.907 39.9515C36.3951 39.9515 37.7314 39.3014 38.6473 38.2698C38.7758 38.4504 38.9198 38.6212 39.0786 38.78C39.8288 39.5301 40.8462 39.9515 41.9071 39.9515C42.9679 39.9515 43.9853 39.5301 44.7355 38.78C45.4856 38.0298 45.9071 37.0124 45.9071 35.9515V34.9515C45.9069 32.4688 45.0669 30.0592 43.5237 28.1145C41.9804 26.1697 39.8247 24.8042 37.407 24.24ZM31.907 34.9515C31.907 33.2947 33.2502 31.9515 34.907 31.9515C36.5639 31.9515 37.907 33.2947 37.907 34.9515C37.907 36.6084 36.5639 37.9515 34.907 37.9515C33.2502 37.9515 31.907 36.6084 31.907 34.9515Z" fill="white"/>
<defs>
<linearGradient id="paint0_linear" x1="35.0749" y1="0" x2="35.0749" y2="70" gradientUnits="userSpaceOnUse">
<stop stop-color="#FF8A01"/>
<stop offset="1" stop-color="#FF6B00"/>
</linearGradient>
</defs>
</svg>
