<?xml version="1.0" encoding="UTF-8"?>
<!DOCTYPE svg PUBLIC "-//W3C//DTD SVG 1.1//EN" "http://www.w3.org/Graphics/SVG/1.1/DTD/svg11.dtd">
<!-- Creator: CorelDRAW 2019 (64-Bit) -->
<svg xmlns="http://www.w3.org/2000/svg" xml:space="preserve" width="18.5209mm" height="18.5208mm" version="1.1" style="shape-rendering:geometricPrecision; text-rendering:geometricPrecision; image-rendering:optimizeQuality; fill-rule:evenodd; clip-rule:evenodd"
viewBox="0 0 1852.1 1852.09"
 xmlns:xlink="http://www.w3.org/1999/xlink"
 xmlns:xodm="http://www.corel.com/coreldraw/odm/2003">
 <defs>
  <style type="text/css">
   <![CDATA[
    .fil1 {fill:#3072D4}
    .fil0 {fill:#FEFEFE;fill-rule:nonzero}
   ]]>
  </style>
 </defs>
 <g id="Слой_x0020_1">
  <metadata id="CorelCorpID_0Corel-Layer"/>
  <path class="fil0" d="M529.16 0l793.76 0c292.2,0 529.17,236.97 529.17,529.17l-0.01 793.75c0.01,292.19 -236.96,529.16 -529.16,529.16l-793.76 0c-292.19,0 -529.16,-236.97 -529.16,-529.17l0 -793.74c0,-292.2 236.97,-529.17 529.17,-529.17z"/>
  <path class="fil1" d="M714.37 740.98c-14.49,0 -26.46,11.97 -26.46,26.46l0 317.5c0,14.49 11.97,26.46 26.46,26.46l423.34 0c14.49,0 26.46,-11.97 26.46,-26.46l0 -317.5c0,-14.49 -11.97,-26.46 -26.46,-26.46l-423.34 0zm-79.37 26.46c0,-43.72 35.66,-79.38 79.37,-79.38l423.34 0c43.71,0 79.37,35.66 79.37,79.38l0 317.5c0,43.72 -35.66,79.37 -79.37,79.37l-423.34 0c-43.71,0 -79.37,-35.65 -79.37,-79.37l0 -317.5z"/>
  <path class="fil1" d="M639.78 752.27c8.38,-11.97 24.88,-14.88 36.85,-6.5l249.41 174.58 249.41 -174.58c11.97,-8.38 28.47,-5.47 36.85,6.5 8.38,11.97 5.47,28.47 -6.5,36.85l-264.59 185.21c-9.11,6.37 -21.23,6.37 -30.34,0l-264.58 -185.21c-11.97,-8.38 -14.89,-24.88 -6.51,-36.85z"/>
 </g>
</svg>
