<svg width="70" height="71" viewBox="0 0 70 71" fill="none" xmlns="http://www.w3.org/2000/svg">
<rect y="0.00341797" width="70" height="70" rx="20" fill="url(#paint0_linear)"/>
<path fill-rule="evenodd" clip-rule="evenodd" d="M27 28.009C26.4523 28.009 26 28.4613 26 29.009V41.009C26 41.5567 26.4523 42.009 27 42.009H43C43.5477 42.009 44 41.5567 44 41.009V29.009C44 28.4613 43.5477 28.009 43 28.009H27ZM24 29.009C24 27.3567 25.3477 26.009 27 26.009H43C44.6523 26.009 46 27.3567 46 29.009V41.009C46 42.6613 44.6523 44.009 43 44.009H27C25.3477 44.009 24 42.6613 24 41.009V29.009Z" fill="white"/>
<path fill-rule="evenodd" clip-rule="evenodd" d="M24.1809 28.4357C24.4976 27.9832 25.1211 27.8732 25.5735 28.1899L35.0001 34.7885L44.4266 28.1899C44.8791 27.8732 45.5026 27.9832 45.8193 28.4357C46.136 28.8881 46.026 29.5116 45.5735 29.8284L35.5735 36.8284C35.2292 37.0694 34.7709 37.0694 34.4266 36.8284L24.4266 29.8284C23.9742 29.5116 23.8641 28.8881 24.1809 28.4357Z" fill="white"/>
<defs>
<linearGradient id="paint0_linear" x1="35" y1="0.00341797" x2="35" y2="70.0034" gradientUnits="userSpaceOnUse">
<stop stop-color="#4286ED"/>
<stop offset="1" stop-color="#2D6ECF"/>
</linearGradient>
</defs>
</svg>
