<svg width="71" height="70" viewBox="0 0 71 70" fill="none" xmlns="http://www.w3.org/2000/svg">
<rect x="0.0144043" width="70" height="70" rx="20" fill="url(#paint0_linear)"/>
<path fill-rule="evenodd" clip-rule="evenodd" d="M28.0144 27C27.7492 27 27.4948 27.1054 27.3073 27.2929C27.1198 27.4804 27.0144 27.7348 27.0144 28V41.5858L29.3073 39.2929C29.4948 39.1054 29.7492 39 30.0144 39H42.0144C42.2796 39 42.534 38.8946 42.7215 38.7071C42.909 38.5196 43.0144 38.2652 43.0144 38V28C43.0144 27.7348 42.909 27.4804 42.7215 27.2929C42.534 27.1054 42.2796 27 42.0144 27H28.0144ZM25.8931 25.8787C26.4557 25.3161 27.2188 25 28.0144 25H42.0144C42.8101 25 43.5731 25.3161 44.1357 25.8787C44.6983 26.4413 45.0144 27.2043 45.0144 28V38C45.0144 38.7957 44.6983 39.5587 44.1357 40.1213C43.5731 40.6839 42.8101 41 42.0144 41H30.4286L26.7215 44.7071C26.4355 44.9931 26.0054 45.0787 25.6317 44.9239C25.258 44.7691 25.0144 44.4045 25.0144 44V28C25.0144 27.2044 25.3305 26.4413 25.8931 25.8787Z" fill="white"/>
<defs>
<linearGradient id="paint0_linear" x1="35.0144" y1="0" x2="35.0144" y2="70" gradientUnits="userSpaceOnUse">
<stop stop-color="#606572"/>
<stop offset="1" stop-color="#53565F"/>
</linearGradient>
</defs>
</svg>
