<svg width="71" height="71" viewBox="0 0 71 71" fill="none" xmlns="http://www.w3.org/2000/svg">
<rect x="0.163452" y="0.982422" width="70" height="70" rx="20" fill="url(#paint0_linear)"/>
<path fill-rule="evenodd" clip-rule="evenodd" d="M35.1635 26.9824C33.5722 26.9824 32.046 27.6146 30.9208 28.7398C29.7956 29.865 29.1635 31.3911 29.1635 32.9824V37.9824C29.1635 38.6907 28.9756 39.3795 28.6276 39.9824H41.6993C41.3513 39.3795 41.1635 38.6907 41.1635 37.9824V32.9824C41.1635 31.3911 40.5313 29.865 39.4061 28.7398C38.2809 27.6146 36.7548 26.9824 35.1635 26.9824ZM45.1635 39.9824C44.633 39.9824 44.1243 39.7717 43.7492 39.3966C43.3742 39.0216 43.1635 38.5129 43.1635 37.9824V32.9824C43.1635 30.8607 42.3206 28.8259 40.8203 27.3256C39.32 25.8253 37.2852 24.9824 35.1635 24.9824C33.0417 24.9824 31.0069 25.8253 29.5066 27.3256C28.0063 28.8259 27.1635 30.8607 27.1635 32.9824V37.9824C27.1635 38.5129 26.9527 39.0216 26.5777 39.3966C26.2026 39.7717 25.6939 39.9824 25.1635 39.9824C24.6112 39.9824 24.1635 40.4301 24.1635 40.9824C24.1635 41.5347 24.6112 41.9824 25.1635 41.9824H45.1635V39.9824ZM32.9317 44.1174C33.4094 43.8403 34.0213 44.0029 34.2985 44.4806C34.3864 44.6322 34.5125 44.758 34.6643 44.8454C34.8161 44.9329 34.9883 44.9789 35.1635 44.9789C35.3386 44.9789 35.5108 44.9329 35.6626 44.8454C35.8144 44.758 35.9405 44.6322 36.0285 44.4806C36.3056 44.0029 36.9175 43.8403 37.3952 44.1174C37.8729 44.3945 38.0356 45.0065 37.7585 45.4842C37.4947 45.9388 37.1162 46.3162 36.6608 46.5785C36.2054 46.8408 35.689 46.9789 35.1635 46.9789C34.6379 46.9789 34.1215 46.8408 33.6661 46.5785C33.2107 46.3162 32.8322 45.9388 32.5685 45.4842C32.2913 45.0065 32.454 44.3945 32.9317 44.1174Z" fill="white"/>
<defs>
<linearGradient id="paint0_linear" x1="35.1635" y1="0.982422" x2="35.1635" y2="70.9824" gradientUnits="userSpaceOnUse">
<stop stop-color="#FF608F"/>
<stop offset="1" stop-color="#EC4B71"/>
</linearGradient>
</defs>
</svg>
