<svg width="71" height="71" viewBox="0 0 71 71" fill="none" xmlns="http://www.w3.org/2000/svg">
<rect x="0.0136719" y="0.996826" width="70" height="70" rx="20" fill="white"/>
<path d="M41.9503 47.8867C41.8503 47.8867 41.7503 47.8867 41.6503 47.8867C38.4503 47.4867 35.2503 46.3867 32.5503 44.6867C30.0503 43.0867 27.8503 40.8867 26.2503 38.3867C24.4503 35.6867 23.3503 32.4867 23.0503 29.2867C23.0503 28.4867 23.2503 27.6867 23.7503 27.0867C24.2503 26.4867 24.9503 26.0867 25.7503 25.9867C25.8503 25.9867 25.9503 25.9867 26.0503 25.9867H29.0503C30.5503 25.9867 31.8503 27.0867 32.0503 28.5867C32.1503 29.4867 32.3503 30.3867 32.6503 31.1867C33.0503 32.2867 32.7503 33.4867 31.9503 34.3867L31.2503 35.0867C32.4503 36.8867 33.9503 38.4867 35.8503 39.6867L36.5503 38.9867C37.3503 38.1867 38.6503 37.8867 39.7503 38.2867C40.5503 38.5867 41.4503 38.7867 42.3503 38.8867C43.8503 39.0867 44.9503 40.3867 44.9503 41.8867V44.8867C44.9503 45.6867 44.6503 46.4867 44.0503 46.9867C43.4503 47.4867 42.7503 47.8867 41.9503 47.8867ZM29.0503 27.9867H26.0503C25.7503 27.9867 25.4503 28.1867 25.2503 28.3867C25.1503 28.5867 25.0503 28.7867 25.0503 29.0867C25.3503 31.9867 26.3503 34.7867 27.9503 37.2867C29.4503 39.5867 31.3503 41.5867 33.6503 42.9867C36.1503 44.5867 38.9503 45.5867 41.8503 45.8867C42.2503 45.8867 42.4503 45.7867 42.6503 45.5867C42.8503 45.3867 42.9503 45.1867 42.9503 44.8867V41.8867C42.9503 41.3867 42.5503 40.9867 42.0503 40.8867C41.0503 40.7867 40.0503 40.4867 39.0503 40.0867C38.6503 39.9867 38.2503 39.9867 37.9503 40.2867L36.6503 41.5867C36.3503 41.8867 35.8503 41.9867 35.4503 41.7867C32.7503 40.2867 30.5503 38.0867 29.0503 35.3867C28.9503 34.9867 29.0503 34.4867 29.3503 34.1867L30.6503 32.8867C30.8503 32.6867 30.9503 32.1867 30.8503 31.8867C30.4503 30.8867 30.2503 29.8867 30.0503 28.8867C30.0503 28.3867 29.5503 27.9867 29.0503 27.9867Z" fill="#717BB1"/>
<rect x="36.9805" y="23.984" width="1.99235" height="9.00578" rx="0.996176" fill="#717BB1"/>
<rect x="39.9966" y="23.984" width="1.97514" height="9.00578" rx="0.987569" fill="#717BB1"/>
<path fill-rule="evenodd" clip-rule="evenodd" d="M41.2729 23.969C41.9187 23.9677 43.501 23.9663 43.9961 23.9663V23.9718C44.0544 23.9718 44.1136 23.9718 44.1739 23.9718H44.2049L44.236 23.9737C44.8747 24.0135 45.5786 24.2231 46.132 24.7462C46.7045 25.2873 47.0001 26.0543 47.0001 26.9703C47.0001 27.3029 46.9568 28.0287 46.5403 28.6996C46.0743 29.4504 45.2392 29.9763 43.9961 29.9763H41.0071L41.0069 27.9763H43.9961C44.323 27.9763 44.5117 27.9118 44.6172 27.8555C44.7199 27.8006 44.7883 27.7298 44.8411 27.6448C44.9649 27.4454 45.0001 27.1682 45.0001 26.9703C45.0001 26.4985 44.8601 26.296 44.7582 26.1996C44.6407 26.0886 44.4401 25.9952 44.1393 25.9718C42.5354 25.9718 41.6585 25.9714 41.2618 25.9709L41.0479 25.9705L40.9976 25.9702C40.9945 25.9702 40.9812 25.9701 40.9682 25.9697C40.9656 25.9696 40.9493 25.9692 40.9297 25.9678C40.9143 25.9667 40.859 25.9605 40.8193 25.9542C40.5244 25.8512 40.0326 24.7065 40.7279 24.0071C40.8008 23.9896 40.8965 23.9752 40.9182 23.9732C40.9286 23.9725 40.9451 23.9715 40.9512 23.9712C40.9619 23.9707 40.9704 23.9704 40.973 23.9704C41.0011 23.9697 41.1236 23.9694 41.2729 23.969Z" fill="#717BB1"/>
</svg>
