<svg width="71" height="71" viewBox="0 0 71 71" fill="none" xmlns="http://www.w3.org/2000/svg">
<rect x="0.347412" y="0.912598" width="70" height="70" rx="20" fill="url(#paint0_linear)"/>
<path d="M28.0544 37.3267C27.419 37.9985 26.6768 38.3345 25.8279 38.3345C24.8279 38.3345 24.031 37.9855 23.4373 37.2876C22.8435 36.5845 22.5466 35.6626 22.5466 34.522C22.5466 33.772 22.6977 33.0923 22.9998 32.4829C23.3018 31.8735 23.7315 31.3996 24.2888 31.061C24.8461 30.7225 25.4919 30.5532 26.2263 30.5532C27.3722 30.5532 28.281 30.9803 28.9529 31.8345C29.6248 32.6886 29.9607 33.8319 29.9607 35.2642V35.7954C29.9607 37.8475 29.4972 39.4126 28.5701 40.4907C27.643 41.5688 26.2602 42.1157 24.4216 42.1313H24.1951V40.561H24.4685C25.5883 40.5454 26.4477 40.2772 27.0466 39.7563C27.6456 39.2303 27.9815 38.4204 28.0544 37.3267ZM26.2263 36.8501C26.6065 36.8501 26.9633 36.7407 27.2966 36.522C27.63 36.3032 27.8878 36.0011 28.0701 35.6157V34.8735C28.0701 34.035 27.8982 33.3605 27.5544 32.8501C27.2107 32.3397 26.7654 32.0845 26.2185 32.0845C25.6716 32.0845 25.2341 32.311 24.906 32.7642C24.5831 33.2121 24.4216 33.7798 24.4216 34.4673C24.4216 35.1808 24.5857 35.7563 24.9138 36.1938C25.2419 36.6313 25.6794 36.8501 26.2263 36.8501Z" fill="white"/>
<path d="M37.1482 37.3267C36.5128 37.9985 35.7706 38.3345 34.9216 38.3345C33.9216 38.3345 33.1248 37.9855 32.531 37.2876C31.9373 36.5845 31.6404 35.6626 31.6404 34.522C31.6404 33.772 31.7914 33.0923 32.0935 32.4829C32.3956 31.8735 32.8253 31.3996 33.3826 31.061C33.9399 30.7225 34.5857 30.5532 35.3201 30.5532C36.4659 30.5532 37.3748 30.9803 38.0466 31.8345C38.7185 32.6886 39.0544 33.8319 39.0544 35.2642V35.7954C39.0544 37.8475 38.5909 39.4126 37.6638 40.4907C36.7367 41.5688 35.3539 42.1157 33.5154 42.1313H33.2888V40.561H33.5623C34.682 40.5454 35.5414 40.2772 36.1404 39.7563C36.7393 39.2303 37.0753 38.4204 37.1482 37.3267ZM35.3201 36.8501C35.7003 36.8501 36.057 36.7407 36.3904 36.522C36.7237 36.3032 36.9815 36.0011 37.1638 35.6157V34.8735C37.1638 34.035 36.9919 33.3605 36.6482 32.8501C36.3044 32.3397 35.8591 32.0845 35.3123 32.0845C34.7654 32.0845 34.3279 32.311 33.9998 32.7642C33.6768 33.2121 33.5154 33.7798 33.5154 34.4673C33.5154 35.1808 33.6794 35.7563 34.0076 36.1938C34.3357 36.6313 34.7732 36.8501 35.3201 36.8501Z" fill="white"/>
<path d="M46.2419 37.3267C45.6065 37.9985 44.8643 38.3345 44.0154 38.3345C43.0154 38.3345 42.2185 37.9855 41.6248 37.2876C41.031 36.5845 40.7341 35.6626 40.7341 34.522C40.7341 33.772 40.8852 33.0923 41.1873 32.4829C41.4893 31.8735 41.919 31.3996 42.4763 31.061C43.0336 30.7225 43.6794 30.5532 44.4138 30.5532C45.5597 30.5532 46.4685 30.9803 47.1404 31.8345C47.8123 32.6886 48.1482 33.8319 48.1482 35.2642V35.7954C48.1482 37.8475 47.6847 39.4126 46.7576 40.4907C45.8305 41.5688 44.4477 42.1157 42.6091 42.1313H42.3826V40.561H42.656C43.7758 40.5454 44.6352 40.2772 45.2341 39.7563C45.8331 39.2303 46.169 38.4204 46.2419 37.3267ZM44.4138 36.8501C44.794 36.8501 45.1508 36.7407 45.4841 36.522C45.8175 36.3032 46.0753 36.0011 46.2576 35.6157V34.8735C46.2576 34.035 46.0857 33.3605 45.7419 32.8501C45.3982 32.3397 44.9529 32.0845 44.406 32.0845C43.8591 32.0845 43.4216 32.311 43.0935 32.7642C42.7706 33.2121 42.6091 33.7798 42.6091 34.4673C42.6091 35.1808 42.7732 35.7563 43.1013 36.1938C43.4294 36.6313 43.8669 36.8501 44.4138 36.8501Z" fill="white"/>
<path d="M25.0059 41.3402C25.0059 41.7746 24.6538 42.1268 24.2193 42.1268C23.7849 42.1268 23.4327 41.7746 23.4327 41.3402C23.4327 40.9058 23.7849 40.5536 24.2193 40.5536C24.6538 40.5536 25.0059 40.9058 25.0059 41.3402Z" fill="white"/>
<path d="M34.1196 41.3402C34.1196 41.7746 33.7674 42.1268 33.333 42.1268C32.8986 42.1268 32.5464 41.7746 32.5464 41.3402C32.5464 40.9058 32.8986 40.5536 33.333 40.5536C33.7674 40.5536 34.1196 40.9058 34.1196 41.3402Z" fill="white"/>
<path d="M43.2328 41.3402C43.2328 41.7746 42.8806 42.1268 42.4462 42.1268C42.0118 42.1268 41.6596 41.7746 41.6596 41.3402C41.6596 40.9058 42.0118 40.5536 42.4462 40.5536C42.8806 40.5536 43.2328 40.9058 43.2328 41.3402Z" fill="white"/>
<defs>
<linearGradient id="paint0_linear" x1="35.3474" y1="0.912598" x2="35.3474" y2="70.9126" gradientUnits="userSpaceOnUse">
<stop stop-color="#3689F8"/>
<stop offset="1" stop-color="#2A7FF1"/>
</linearGradient>
</defs>
</svg>
