<?xml version="1.0" encoding="UTF-8"?>
<!DOCTYPE svg PUBLIC "-//W3C//DTD SVG 1.1//EN" "http://www.w3.org/Graphics/SVG/1.1/DTD/svg11.dtd">
<!-- Creator: CorelDRAW 2019 (64-Bit) -->
<svg xmlns="http://www.w3.org/2000/svg" xml:space="preserve" width="18.5208mm" height="18.5209mm" version="1.1" style="shape-rendering:geometricPrecision; text-rendering:geometricPrecision; image-rendering:optimizeQuality; fill-rule:evenodd; clip-rule:evenodd"
viewBox="0 0 1852.86 1852.87"
 xmlns:xlink="http://www.w3.org/1999/xlink"
 xmlns:xodm="http://www.corel.com/coreldraw/odm/2003">
 <defs>
  <style type="text/css">
   <![CDATA[
    .fil1 {fill:#3AC260}
    .fil0 {fill:#FEFEFE;fill-rule:nonzero}
   ]]>
  </style>
 </defs>
 <g id="Слой_x0020_1">
  <metadata id="CorelCorpID_0Corel-Layer"/>
  <path class="fil0" d="M529.38 0l794.08 0c292.32,0 529.39,237.07 529.39,529.39l0 794.08c0,292.31 -237.07,529.38 -529.39,529.38l-794.08 0.01c-292.31,-0.01 -529.38,-237.08 -529.38,-529.4l0 -794.07c0,-292.32 237.07,-529.39 529.39,-529.39z"/>
  <path class="fil1" d="M1153.02 915.51c0,-143.73 -157.07,-243.25 -287.17,-177.53l-0.1 0.05 0 0c-95.78,47.87 -137.4,169.91 -88.79,266.14 3.18,6.29 3.71,13.61 1.48,20.3l-33.55 100.65 100.65 -33.55c6.7,-2.23 14.01,-1.69 20.31,1.49 128.55,64.93 287.54,-36.17 287.17,-177.47l0 -0.07zm52.94 -0.03c-0.02,-182.25 -197.82,-308.64 -363.93,-224.78 -118.23,59.12 -171.39,206.18 -117.18,327.14l-46.92 140.77c-3.17,9.51 -0.7,20 6.39,27.08 7.09,7.09 17.58,9.57 27.08,6.4l140.76 -46.92c162.45,72.95 354.23,-53.38 353.8,-229.69z"/>
 </g>
</svg>
