<svg width="71" height="71" viewBox="0 0 71 71" fill="none" xmlns="http://www.w3.org/2000/svg">
<rect x="0.514648" y="0.912598" width="70" height="70" rx="20" fill="url(#paint0_linear)"/>
<path fill-rule="evenodd" clip-rule="evenodd" d="M44.075 35.4997C44.075 30.0695 38.1412 26.3096 33.2258 28.7923L33.222 28.7942L33.222 28.7942C29.6036 30.6027 28.0314 35.2137 29.8676 38.8489C29.9878 39.0869 30.008 39.363 29.9237 39.6159L28.6561 43.4186L32.4588 42.151C32.7117 42.0667 32.9878 42.0869 33.2258 42.2071C38.0824 44.6602 44.0889 40.8407 44.075 35.5023L44.075 35.4997ZM46.075 35.4986C46.0742 28.6135 38.6013 23.8382 32.326 27.0062C27.8593 29.2399 25.851 34.7954 27.899 39.3655L26.1263 44.6835C26.0065 45.0428 26.1 45.439 26.3679 45.7068C26.6357 45.9747 27.0319 46.0682 27.3912 45.9484L32.7089 44.1758C38.8462 46.932 46.0913 42.1593 46.075 35.4986Z" fill="white"/>
<defs>
<linearGradient id="paint0_linear" x1="35.5146" y1="0.912598" x2="35.5146" y2="70.9126" gradientUnits="userSpaceOnUse">
<stop stop-color="#3CC863"/>
<stop offset="1" stop-color="#33AD55"/>
</linearGradient>
</defs>
</svg>
