<svg width="71" height="71" viewBox="0 0 71 71" fill="none" xmlns="http://www.w3.org/2000/svg">
<rect x="0.17041" y="0.0231934" width="70" height="70" rx="20" fill="url(#paint0_linear)"/>
<path d="M23.987 25.0159C23.987 24.4636 24.4347 24.0159 24.987 24.0159H46.0394C46.5917 24.0159 47.0394 24.4636 47.0394 25.0159V28.0062C47.0394 28.5585 46.5917 29.0062 46.0394 29.0062H24.987C24.4347 29.0062 23.987 28.5585 23.987 28.0062V25.0159ZM33.025 34.0232C33.025 33.4709 33.4727 33.0232 34.025 33.0232H37.022C37.5743 33.0232 38.022 33.4709 38.022 34.0232V37.0074C38.022 37.5597 37.5743 38.0074 37.022 38.0074H34.025C33.4727 38.0074 33.025 37.5597 33.025 37.0074V34.0232ZM41.986 34.0232C41.986 33.4709 42.4337 33.0232 42.986 33.0232H46.0394C46.5917 33.0232 47.0394 33.4709 47.0394 34.0232V37.0074C47.0394 37.5597 46.5917 38.0074 46.0394 38.0074H42.986C42.4337 38.0074 41.986 37.5597 41.986 37.0074V34.0232ZM24.041 33.9797C24.041 33.4275 24.4887 32.9797 25.041 32.9797H28.0267C28.579 32.9797 29.0267 33.4275 29.0267 33.9797V37.0074C29.0267 37.5597 28.579 38.0074 28.0267 38.0074H25.041C24.4887 38.0074 24.041 37.5597 24.041 37.0074V33.9797ZM33.025 43.0305C33.025 42.4782 33.4727 42.0305 34.025 42.0305H37.022C37.5743 42.0305 38.022 42.4782 38.022 43.0305V46C38.022 46.5523 37.5743 47 37.022 47H34.025C33.4727 47 33.025 46.5523 33.025 46V43.0305ZM41.986 43.0305C41.986 42.4782 42.4337 42.0305 42.986 42.0305H46.0394C46.5917 42.0305 47.0394 42.4782 47.0394 43.0305V46.1018C47.0394 46.654 46.5917 47.1018 46.0394 47.1018H42.986C42.4337 47.1018 41.986 46.654 41.986 46.1018V43.0305ZM23.987 43.0039C23.987 42.4516 24.4347 42.0039 24.987 42.0039H28.0267C28.5789 42.0039 29.0267 42.4516 29.0267 43.0039V46C29.0267 46.5523 28.5789 47 28.0267 47H24.987C24.4347 47 23.987 46.5523 23.987 46V43.0039Z" stroke="white" stroke-width="2"/>
<defs>
<linearGradient id="paint0_linear" x1="35.1704" y1="0.0231934" x2="35.1704" y2="70.0232" gradientUnits="userSpaceOnUse">
<stop stop-color="#60A4FF"/>
<stop offset="1" stop-color="#3180E9"/>
</linearGradient>
</defs>
</svg>
