<svg width="71" height="70" viewBox="0 0 71 70" fill="none" xmlns="http://www.w3.org/2000/svg">
<path d="M0.00860596 20C0.00860596 8.9543 8.96291 0 20.0086 0H50.0072C61.0529 0 70.0072 8.95431 70.0072 20V50C70.0072 61.0457 61.0529 70 50.0072 70H20.0086C8.96292 70 0.00860596 61.0457 0.00860596 50V20Z" fill="url(#paint0_linear)"/>
<path fill-rule="evenodd" clip-rule="evenodd" d="M35.0052 25.9277C30.0346 25.9277 26.0052 29.9572 26.0052 34.9277C26.0052 39.8983 30.0346 43.9277 35.0052 43.9277C39.9758 43.9277 44.0052 39.8983 44.0052 34.9277C44.0052 29.9572 39.9758 25.9277 35.0052 25.9277ZM24.0052 34.9277C24.0052 28.8526 28.9301 23.9277 35.0052 23.9277C41.0803 23.9277 46.0052 28.8526 46.0052 34.9277C46.0052 41.0029 41.0803 45.9277 35.0052 45.9277C28.9301 45.9277 24.0052 41.0029 24.0052 34.9277Z" fill="white"/>
<path fill-rule="evenodd" clip-rule="evenodd" d="M35.0052 29.9277C32.2438 29.9277 30.0052 32.1663 30.0052 34.9277C30.0052 37.6892 32.2438 39.9277 35.0052 39.9277C37.7666 39.9277 40.0052 37.6892 40.0052 34.9277C40.0052 32.1663 37.7666 29.9277 35.0052 29.9277ZM28.0052 34.9277C28.0052 31.0617 31.1392 27.9277 35.0052 27.9277C38.8712 27.9277 42.0052 31.0617 42.0052 34.9277C42.0052 38.7937 38.8712 41.9277 35.0052 41.9277C31.1392 41.9277 28.0052 38.7937 28.0052 34.9277Z" fill="white"/>
<path fill-rule="evenodd" clip-rule="evenodd" d="M35.0052 33.9277C34.4529 33.9277 34.0052 34.3755 34.0052 34.9277C34.0052 35.48 34.4529 35.9277 35.0052 35.9277C35.5575 35.9277 36.0052 35.48 36.0052 34.9277C36.0052 34.3755 35.5575 33.9277 35.0052 33.9277ZM32.0052 34.9277C32.0052 33.2709 33.3483 31.9277 35.0052 31.9277C36.662 31.9277 38.0052 33.2709 38.0052 34.9277C38.0052 36.5846 36.662 37.9277 35.0052 37.9277C33.3483 37.9277 32.0052 36.5846 32.0052 34.9277Z" fill="white"/>
<defs>
<linearGradient id="paint0_linear" x1="35.0079" y1="0" x2="35.0079" y2="70" gradientUnits="userSpaceOnUse">
<stop stop-color="#2FB87E"/>
<stop offset="1" stop-color="#13AA62"/>
</linearGradient>
</defs>
</svg>
