<svg width="71" height="71" viewBox="0 0 71 71" fill="none" xmlns="http://www.w3.org/2000/svg">
<rect x="0.00445557" y="0.980225" width="70" height="70" rx="20" fill="url(#paint0_linear)"/>
<path fill-rule="evenodd" clip-rule="evenodd" d="M44.4622 31.0742C44.5794 30.6053 44.4622 30.2537 43.7589 30.2537H41.5318C40.9457 30.2537 40.7113 30.4881 40.5941 30.8397C40.5941 30.8397 39.5391 33.5357 37.8981 35.2939C37.4293 35.7628 37.1948 35.9972 36.8432 35.9972C36.726 35.9972 36.4915 35.88 36.4915 35.4111V31.0742C36.4915 30.4881 36.3743 30.2537 35.9055 30.2537H32.6234C32.2718 30.2537 32.0374 30.4881 32.0374 30.7225C32.0374 31.1914 32.8579 31.3086 32.8579 32.8324V35.9972C32.8579 36.7005 32.7407 36.8177 32.5062 36.8177C31.8029 36.8177 29.9275 34.1218 28.8726 31.0742C28.6381 30.4881 28.4037 30.2537 27.9348 30.2537H25.7077C25.1217 30.2537 25.0045 30.4881 25.0045 30.8397C25.0045 31.4258 25.7077 34.239 28.4037 37.9899C30.1619 40.5686 32.7407 41.9752 35.085 41.9752C36.4915 41.9752 36.6088 41.6235 36.6088 41.1547V39.162C36.6088 38.5759 36.726 38.4587 37.1948 38.4587C37.5465 38.4587 38.0153 38.5759 39.4219 39.8653C40.9457 41.3891 41.1801 41.9752 42.0006 41.9752H44.2277C44.8138 41.9752 45.1655 41.6235 44.931 41.0375C44.6966 40.4514 43.9933 39.5137 43.0556 38.4587C42.5867 37.8726 41.7662 37.1694 41.5318 36.9349C41.1801 36.4661 41.2974 36.3488 41.5318 35.9972C41.5318 35.9972 44.2277 32.3635 44.4622 31.0742Z" fill="white"/>
<defs>
<linearGradient id="paint0_linear" x1="35.0045" y1="0.980225" x2="35.0045" y2="70.9802" gradientUnits="userSpaceOnUse">
<stop stop-color="#5A72F2"/>
<stop offset="1" stop-color="#445DDE"/>
</linearGradient>
</defs>
</svg>
