<?xml version="1.0" encoding="utf-8"?>
<!-- Generator: Adobe Illustrator 23.1.0, SVG Export Plug-In . SVG Version: 6.00 Build 0)  -->
<svg version="1.1" id="Слой_1" xmlns="http://www.w3.org/2000/svg" xmlns:xlink="http://www.w3.org/1999/xlink" x="0px" y="0px"
	 viewBox="0 0 254 56" style="enable-background:new 0 0 254 56;" xml:space="preserve">
<style type="text/css">
	.st0{clip-path:url(#SVGID_2_);}
	.st1{fill:#DCE2F2;}
	.st2{fill:#AFBBDB;}
</style>
<g>
	<defs>
		<rect id="SVGID_1_" y="1" width="254" height="55"/>
	</defs>
	<clipPath id="SVGID_2_">
		<use xlink:href="#SVGID_1_"  style="overflow:visible;"/>
	</clipPath>
	<g class="st0">
		<path class="st1" d="M26.4,25.6C20,33.3,14.7,46.6,13.1,52c-2,6.8,11.3,3.9,13.3-1.1c1.6-4.2,2.8-15.7,3-23.3
			C29.6,22.5,28.3,23.3,26.4,25.6z"/>
		<path class="st1" d="M28.5,17.5c2.3-7.2-6.3-14.8-11.6-16.2C4.1-2.3,25.5,26.8,28.5,17.5z"/>
		<path class="st1" d="M19.8,20.4C9.7,19.1-3.6,30.7,0.9,31.5C13.3,33.6,34.1,22.1,19.8,20.4z"/>
		<path class="st1" d="M53.8,4.9c-6.4-2.3-29.8,15.2-21.1,15C46.2,19.6,57.6,6.3,53.8,4.9z"/>
		<path class="st1" d="M33.3,22.5c-3.2,0.5-2.8,8,11.9,12.1C53.2,36.7,40.8,21.3,33.3,22.5z"/>
		<path class="st2" d="M69.1,41.4c-0.8,0.1-1.6-0.1-2.3-0.6c-0.3-0.3-0.5-0.6-0.7-1c-0.1-0.4-0.2-0.8-0.2-1.2V23.1
			c-0.1-0.9,0.2-1.8,0.7-2.5c0.3-0.3,0.6-0.6,1-0.7c0.4-0.2,0.8-0.2,1.2-0.2h8.1c1.1-0.1,2.3,0.2,3.4,0.6c1.1,0.4,2,1.1,2.8,2
			c2.1,2.3,2.2,5.4,2.2,8c0,2.4-0.1,6.1-1.9,8.5c-0.8,1.1-2.6,2.7-5.9,2.7L69.1,41.4z M69.9,36.6c-0.1,0.4,0,0.8,0.3,1.2
			c0.1,0.1,0.3,0.2,0.5,0.3c0.2,0.1,0.4,0.1,0.5,0h4.6c2.2,0,3.6-0.5,4.5-2c0.5-0.8,1-2.5,1-6.2c0-1.9-0.1-4-1.5-5.5
			c-1.3-1.4-3.1-1.6-4.5-1.6h-4.1c-0.3,0-0.7,0-0.9,0.2c-0.1,0.1-0.3,0.3-0.3,0.5c-0.1,0.2-0.1,0.4-0.1,0.6L69.9,36.6z"/>
		<path class="st2" d="M94.1,21.8c0.7-1.8,1.6-2.5,3.5-2.5c1.9,0,2.7,0.6,3.4,2.5l7.9,19.6h-4.2l-2.2-5.5H92.5l-2.1,5.5h-4.2
			L94.1,21.8z M93.5,33h8.1l-3.4-8.9c-0.1-0.3-0.3-0.9-0.6-0.9c-0.3,0-0.5,0.6-0.6,0.9L93.5,33z"/>
		<path class="st2" d="M131,38.6c0,2.2-1.4,3.1-3.1,3.1c-0.7,0.1-1.4-0.1-2-0.4c-0.6-0.3-1.1-0.8-1.4-1.4l-8.8-14.5
			c-0.3-0.5-0.4-0.5-0.5-0.5c-0.1,0-0.4,0.2-0.4,0.6v16h-3.8V22.3c0-1.9,1.2-3,3.2-3c0.7-0.1,1.3,0.1,1.9,0.4
			c0.6,0.3,1.1,0.8,1.4,1.3l8.9,14.6c0.2,0.2,0.2,0.5,0.5,0.5c0.3,0,0.3-0.4,0.3-0.5V19.6h3.8V38.6z"/>
		<path class="st2" d="M150.5,19.6h4.3l-8.9,15.1v6.7h-4v-6.7L133,19.6h4.3l6.6,11.4L150.5,19.6z"/>
		<path class="st2" d="M164.4,41.4c-2,0-4.7-0.3-6.7-2.5c-1.9-2.2-2.1-5.6-2.1-8c0-3.1,0.3-6.3,2-8.5c2.1-2.5,5.4-2.7,6.9-2.7h8.4
			v3.3h-6.6c-2.3,0-4.3,0.2-5.5,2c-0.6,1-1.2,2.6-1.2,5.9c0,3.2,0.6,4.6,1,5.3c1.1,1.7,3,2.1,5.5,2.1h7.1v3.3L164.4,41.4z"/>
		<path class="st2" d="M195.6,21.7c2.2,2.2,2.4,6,2.4,8.9s-0.2,6.7-2.4,8.8c-2.2,2.2-5.9,2.3-8.3,2.3c-2.4,0-6.1,0-8.3-2.3
			c-2.4-2.4-2.4-6.4-2.4-8.8c0-3,0.1-6.6,2.4-8.9c2.3-2.2,5.8-2.3,8.3-2.3S193.3,19.4,195.6,21.7z M181.8,36.6
			c1.2,1.7,3.2,1.8,5.4,1.8c2.2,0,4.2-0.2,5.4-1.8c0.7-0.9,1.3-2.5,1.3-6.1c0-3.8-0.6-5.3-1.3-6.1c-1.2-1.6-3.3-1.8-5.4-1.8
			c-2.1,0-4.2,0.2-5.4,1.8c-0.8,1.1-1.3,2.8-1.3,6.1C180.5,34.1,181.1,35.7,181.8,36.6z"/>
		<path class="st2" d="M251.6,21.7c2.2,2.2,2.4,6,2.4,8.9s-0.2,6.7-2.4,8.8c-2.3,2.3-5.9,2.3-8.4,2.3c-2.4,0-6.1,0-8.4-2.3
			c-2.3-2.3-2.4-6.4-2.4-8.8c0-3,0.1-6.6,2.4-8.9c2.3-2.2,5.8-2.3,8.4-2.3C245.8,19.4,249.3,19.4,251.6,21.7z M237.8,36.6
			c1.2,1.7,3.2,1.8,5.4,1.8c2.2,0,4.2-0.2,5.4-1.8c0.7-0.9,1.3-2.5,1.3-6.1c0-3.8-0.6-5.3-1.3-6.1c-1.2-1.6-3.3-1.8-5.4-1.8
			c-2.1,0-4.2,0.2-5.4,1.8c-0.8,1.1-1.3,2.8-1.3,6.1C236.5,34.1,237.1,35.7,237.8,36.6z"/>
		<path class="st2" d="M218.2,39c-0.6,1.7-1.1,2.6-3,2.6c-2,0-2.5-1.2-3-2.6l-5.4-14.5c-0.1-0.2-0.3-0.7-0.5-0.7
			c-0.3,0-0.3,0.6-0.3,0.7l0.1,17h-4V22.2c0-2.8,2.8-2.9,3.4-2.9c2.4,0,3.1,1.3,3.7,2.8l5.4,14.5c0.2,0.5,0.4,0.8,0.6,0.8
			c0.2,0,0.4-0.3,0.6-0.8l5.4-14.5c0.9-2.5,2.2-2.8,3.7-2.8c2,0,3.4,0.8,3.4,2.9v19.2h-4l0.1-17c0-0.6-0.2-0.7-0.4-0.7
			c-0.1,0-0.4,0.5-0.5,0.7L218.2,39z"/>
	</g>
</g>
</svg>
