<svg xmlns="http://www.w3.org/2000/svg" width="41" height="42" viewBox="0 0 41 42"><g><g><path fill="#fff" d="M32.81 36.821a2.25 2.25 0 0 1-.982-.227l-13.262-6.427v7.493l2.741-4.349a.967.967 0 0 1 1.341-.3c.452.29.586.896.298 1.353l-4.526 7.18a.97.97 0 0 1-.824.462h-.001a.958.958 0 0 1-.734-.339.98.98 0 0 1-.162-.264l-6.33-15.335-9.437-4.484a1.621 1.621 0 0 1-.93-1.47 1.62 1.62 0 0 1 .914-1.48L38.683.185a1.599 1.599 0 0 1 1.683.17c.488.373.723.984.614 1.592l-5.942 32.994a2.27 2.27 0 0 1-2.229 1.88zm-16.186-8.195a.988.988 0 0 1 .218-.636l9.964-12.345-11.897 8.257a.965.965 0 0 1-1.35-.252.987.987 0 0 1 .25-1.363l17.478-12.13a.963.963 0 0 1 1.264.142.988.988 0 0 1 .039 1.284L19.127 28.264l13.542 6.562a.322.322 0 0 0 .458-.236l5.828-32.36L2.372 20.1l9.163 4.354a.973.973 0 0 1 .483.51l4.606 11.16z"/></g></g></svg>