<?xml version="1.0" standalone="no"?>
<!DOCTYPE svg PUBLIC "-//W3C//DTD SVG 20010904//EN"
 "http://www.w3.org/TR/2001/REC-SVG-20010904/DTD/svg10.dtd">
<svg version="1.0" xmlns="http://www.w3.org/2000/svg"
 width="260.000000pt" height="260.000000pt" viewBox="0 0 260.000000 260.000000"
 preserveAspectRatio="xMidYMid meet">
<metadata>
Created by potrace 1.11, written by Peter Selinger 2001-2013
</metadata>
<g transform="translate(0.000000,260.000000) scale(0.100000,-0.100000)"
fill="#000000" stroke="none">
<path d="M0 1290 l0 -1060 315 0 315 0 0 1060 0 1060 -315 0 -315 0 0 -1060z"/>
<path d="M890 1290 l0 -1060 315 0 315 0 0 740 c0 407 3 740 8 740 4 0 105
-98 225 -218 l217 -217 0 -520 0 -520 315 315 315 315 0 440 0 440 -303 303
-302 302 -553 0 -552 0 0 -1060z"/>
</g>
</svg>
