<svg xmlns="http://www.w3.org/2000/svg" width="30" height="30" viewBox="0 0 447.727 447.727"><path fill="#6a4a2a" d="M447.601 263.733c-1.785-25.984-23.127-46.862-49.142-48.123-9.942-.482-19.306 1.84-27.373 6.24-1.075-51.745-43.328-93.368-95.33-93.368-13.755 0-26.82 2.923-38.627 8.168-2.541 1.129-4.16 3.673-4.16 6.454v169.067a7.073 7.073 0 0 0 7.073 7.073h155.837c29.846-.001 53.802-25.22 51.722-55.511zM219.182 139.431a7.12 7.12 0 0 0-7.12 7.12v165.387a7.121 7.121 0 0 0 14.241 0V146.551a7.121 7.121 0 0 0-7.121-7.12zm-23.562 17.588a7.12 7.12 0 0 0-7.12 7.12v147.799a7.12 7.12 0 1 0 14.24 0V164.139a7.12 7.12 0 0 0-7.12-7.12zm-23.563 8.014a7.12 7.12 0 0 0-7.12 7.12v139.785a7.12 7.12 0 1 0 14.24 0V172.153a7.118 7.118 0 0 0-7.12-7.12zm-23.562-10.685a7.12 7.12 0 0 0-7.12 7.12v150.47a7.12 7.12 0 1 0 14.24 0v-150.47a7.12 7.12 0 0 0-7.12-7.12zm-23.563 7.123a7.12 7.12 0 0 0-7.12 7.12v143.347a7.12 7.12 0 1 0 14.24 0V168.591a7.12 7.12 0 0 0-7.12-7.12zm-23.562 14.247a7.12 7.12 0 0 0-7.12 7.12v129.1a7.12 7.12 0 1 0 14.24 0v-129.1a7.118 7.118 0 0 0-7.12-7.12zM77.808 203.32a7.12 7.12 0 0 0-7.12 7.12v101.498a7.12 7.12 0 1 0 14.24 0V210.44a7.12 7.12 0 0 0-7.12-7.12zm-23.563 11.575a7.12 7.12 0 0 0-7.12 7.12v89.923a7.12 7.12 0 1 0 14.24 0v-89.923a7.12 7.12 0 0 0-7.12-7.12zm-23.562 2.656a7.12 7.12 0 0 0-7.12 7.12v84.611a7.12 7.12 0 1 0 14.24 0v-84.611a7.12 7.12 0 0 0-7.12-7.12zM7.12 236.143a7.12 7.12 0 0 0-7.12 7.12v48.756a7.12 7.12 0 1 0 14.24 0v-48.756a7.12 7.12 0 0 0-7.12-7.12z"/></svg>