<?xml version="1.0" encoding="iso-8859-1"?>
<svg version="1.1" id="Layer_1" xmlns="http://www.w3.org/2000/svg" xmlns:xlink="http://www.w3.org/1999/xlink" x="0px" y="0px" width="30px" height="30px" viewBox="0 0 447.727 447.727" xml:space="preserve">
	<path fill="#6a4a2a" d="M447.601,263.733c-1.785-25.984-23.127-46.862-49.142-48.123
		c-9.942-0.482-19.306,1.84-27.373,6.24c-1.075-51.745-43.328-93.368-95.33-93.368c-13.755,0-26.82,2.923-38.627,8.168
		c-2.541,1.129-4.16,3.673-4.16,6.454v169.067c0,3.906,3.167,7.073,7.073,7.073h155.837
		C425.725,319.243,449.681,294.024,447.601,263.733z"/>
	<path fill="#6a4a2a" d="M219.182,139.431c-3.933,0-7.12,3.188-7.12,7.12v165.387c0,3.933,3.188,7.12,7.12,7.12
		c3.932,0,7.121-3.188,7.121-7.12V146.551C226.303,142.619,223.114,139.431,219.182,139.431z"/>
	<path fill="#6a4a2a" d="M195.62,157.019c-3.933,0-7.12,3.188-7.12,7.12v147.799c0,3.933,3.188,7.12,7.12,7.12
		s7.12-3.188,7.12-7.12V164.139C202.74,160.207,199.552,157.019,195.62,157.019z"/>
	<path fill="#6a4a2a" d="M172.057,165.033c-3.933,0-7.12,3.188-7.12,7.12v139.785c0,3.933,3.188,7.12,7.12,7.12
		c3.933,0,7.12-3.188,7.12-7.12V172.153C179.178,168.22,175.99,165.033,172.057,165.033z"/>
	<path fill="#6a4a2a" d="M148.495,154.348c-3.933,0-7.12,3.188-7.12,7.12v150.47c0,3.933,3.188,7.12,7.12,7.12
		s7.12-3.188,7.12-7.12v-150.47C155.615,157.536,152.427,154.348,148.495,154.348z"/>
	<path fill="#6a4a2a" d="M124.932,161.471c-3.933,0-7.12,3.188-7.12,7.12v143.347c0,3.933,3.188,7.12,7.12,7.12
		s7.12-3.188,7.12-7.12V168.591C132.052,164.659,128.865,161.471,124.932,161.471z"/>
	<path fill="#6a4a2a" d="M101.37,175.718c-3.933,0-7.12,3.188-7.12,7.12v129.1c0,3.933,3.188,7.12,7.12,7.12
		s7.12-3.188,7.12-7.12v-129.1C108.491,178.905,105.303,175.718,101.37,175.718z"/>
	<path fill="#6a4a2a" d="M77.808,203.32c-3.933,0-7.12,3.188-7.12,7.12v101.498c0,3.933,3.188,7.12,7.12,7.12
		c3.933,0,7.12-3.188,7.12-7.12V210.44C84.928,206.508,81.74,203.32,77.808,203.32z"/>
	<path fill="#6a4a2a" d="M54.245,214.895c-3.933,0-7.12,3.188-7.12,7.12v89.923c0,3.933,3.188,7.12,7.12,7.12
		s7.12-3.188,7.12-7.12v-89.923C61.365,218.083,58.178,214.895,54.245,214.895z"/>
	<path fill="#6a4a2a" d="M30.683,217.551c-3.933,0-7.12,3.188-7.12,7.12v84.611c0,3.933,3.188,7.12,7.12,7.12
		s7.12-3.188,7.12-7.12v-84.611C37.803,220.739,34.615,217.551,30.683,217.551z"/>
	<path fill="#6a4a2a" d="M7.12,236.143c-3.933,0-7.12,3.188-7.12,7.12v48.756c0,3.933,3.188,7.12,7.12,7.12
		s7.12-3.188,7.12-7.12v-48.756C14.24,239.33,11.053,236.143,7.12,236.143z"/>
</svg>
