<svg width="377" height="169" viewBox="0 0 377 169" fill="none" xmlns="http://www.w3.org/2000/svg">
<path d="M0.0195312 20.98C0.0195312 9.9343 8.97384 0.97998 20.0195 0.97998H356.043C367.089 0.97998 376.043 9.93429 376.043 20.98V168.977H0.0195312V20.98Z" fill="url(#paint0_linear)"/>
<path d="M303.476 0.980225H356.043C367.089 0.980225 376.043 9.93453 376.043 20.9802V118.679C376.043 118.679 351.899 66.5338 316.773 37.9671C281.647 9.40034 253.372 0.980225 253.372 0.980225H303.476Z" fill="url(#paint1_linear)" fill-opacity="0.3"/>
<path d="M0.0195313 66.7251C0.0195313 66.7251 40.6259 60.7155 91.0519 112.572C141.478 164.428 185.861 168.977 185.861 168.977H0.0195312L0.0195313 66.7251Z" fill="url(#paint2_linear)" fill-opacity="0.5"/>
<path d="M274.932 0.964966H356.016C367.061 0.964966 376.016 9.91927 376.016 20.965V53.5548C376.016 53.5548 346.578 59.6711 313.6 55.4245C280.623 51.178 255.349 44.26 230.431 30.0319C203.545 14.6804 189.866 0.964966 189.866 0.964966H274.932Z" fill="url(#paint3_linear)" fill-opacity="0.3"/>
<defs>
<linearGradient id="paint0_linear" x1="255.992" y1="-16.017" x2="23.7348" y2="195.615" gradientUnits="userSpaceOnUse">
<stop stop-color="#485CC2"/>
<stop offset="1" stop-color="#3734B4"/>
</linearGradient>
<linearGradient id="paint1_linear" x1="948.354" y1="-129.943" x2="196.384" y2="39.2653" gradientUnits="userSpaceOnUse">
<stop stop-color="#445BCA"/>
<stop offset="1" stop-color="#5369D2"/>
</linearGradient>
<linearGradient id="paint2_linear" x1="197.9" y1="153.432" x2="83.393" y2="260.953" gradientUnits="userSpaceOnUse">
<stop stop-color="#3B51BF"/>
<stop offset="1" stop-color="#4844C5"/>
</linearGradient>
<linearGradient id="paint3_linear" x1="294.993" y1="126.046" x2="254.808" y2="-50.2437" gradientUnits="userSpaceOnUse">
<stop stop-color="#6153FF"/>
<stop offset="1" stop-color="#359BE4" stop-opacity="0"/>
</linearGradient>
</defs>
</svg>
