<svg width="376" height="169" viewBox="0 0 376 169" fill="none" xmlns="http://www.w3.org/2000/svg">
<path d="M0 20.0833C0 9.03756 8.95431 0.083252 20 0.083252H356C367.046 0.083252 376 9.03756 376 20.0833V168.083H0V20.0833Z" fill="url(#paint0_linear)"/>
<path d="M0 42.0859C0 42.0859 13.9991 55.2096 25.2538 106.826C36.5086 158.443 64.6049 168.083 64.6049 168.083H0V42.0859Z" fill="url(#paint1_linear)" fill-opacity="0.23"/>
<path d="M0 93.086C0 93.086 31.7077 90.086 77.9681 131.086C124.229 172.086 150.604 168.041 150.604 168.041H0V93.086Z" fill="url(#paint2_linear)" fill-opacity="0.3"/>
<path d="M274.838 0.083252H355.999C367.045 0.083252 375.999 9.03756 375.999 20.0833V52.6902C375.999 52.6902 355.648 61.2675 323.919 55.5178C292.189 49.7681 279.808 44.2075 239.478 21.5962C201.373 0.23279 131.362 0.083252 131.362 0.083252H274.838Z" fill="url(#paint3_linear)" fill-opacity="0.3"/>
<defs>
<linearGradient id="paint0_linear" x1="308.956" y1="17.0859" x2="158.956" y2="185.193" gradientUnits="userSpaceOnUse">
<stop stop-color="#2A7EE1"/>
<stop offset="1" stop-color="#3F91F2"/>
</linearGradient>
<linearGradient id="paint1_linear" x1="92.156" y1="134.504" x2="-4.24198" y2="154.02" gradientUnits="userSpaceOnUse">
<stop stop-color="#2A67DD"/>
<stop offset="1" stop-color="#1C70D2"/>
</linearGradient>
<linearGradient id="paint2_linear" x1="146.405" y1="147.372" x2="21.1766" y2="212.806" gradientUnits="userSpaceOnUse">
<stop stop-color="#49A4F8"/>
<stop offset="1" stop-color="#3F9DF3"/>
</linearGradient>
<linearGradient id="paint3_linear" x1="294.914" y1="125.205" x2="254.732" y2="-51.1497" gradientUnits="userSpaceOnUse">
<stop stop-color="#53ACFF"/>
<stop offset="1" stop-color="#359BE4" stop-opacity="0"/>
</linearGradient>
</defs>
</svg>
