<svg width="377" height="169" viewBox="0 0 377 169" fill="none" xmlns="http://www.w3.org/2000/svg">
<path d="M0.0175781 20.9988C0.0175781 9.95309 8.97188 0.998779 20.0176 0.998779H356.018C367.063 0.998779 376.018 9.95308 376.018 20.9988V168.991H0.0175781V20.9988Z" fill="url(#paint0_linear)"/>
<path d="M0.0175781 114.363C0.0175781 114.363 19.0219 130.661 51.1968 137.53C97.6489 147.446 136.176 142.88 191.055 95.4183C245.933 47.9564 318.894 17.6305 376.018 30.4405V168.991H0.0175781V114.363Z" fill="url(#paint1_linear)" fill-opacity="0.3"/>
<path d="M274.702 0.998657H356.017C367.063 0.998657 376.017 9.95296 376.017 20.9987V102.065C376.017 102.065 346.664 94.7256 320.331 70.996C293.998 47.2664 279.434 26.734 250.705 13.8468C226.438 2.96121 201.94 0.998657 201.94 0.998657H274.702Z" fill="url(#paint2_linear)" fill-opacity="0.1"/>
<defs>
<linearGradient id="paint0_linear" x1="130.51" y1="-20.9677" x2="98.5502" y2="121.956" gradientUnits="userSpaceOnUse">
<stop stop-color="#23773B"/>
<stop offset="1" stop-color="#3B9B56"/>
</linearGradient>
<linearGradient id="paint1_linear" x1="386.269" y1="65.5368" x2="-11.9117" y2="197.846" gradientUnits="userSpaceOnUse">
<stop stop-color="#2C9349"/>
<stop offset="1" stop-color="#3D8751"/>
</linearGradient>
<linearGradient id="paint2_linear" x1="294.809" y1="126.158" x2="254.659" y2="-50.2707" gradientUnits="userSpaceOnUse">
<stop stop-color="#56C675"/>
<stop offset="1" stop-color="#197734"/>
</linearGradient>
</defs>
</svg>
