<svg width="377" height="170" viewBox="0 0 377 170" fill="none" xmlns="http://www.w3.org/2000/svg">
<path d="M0 21.0138C0 9.96813 8.95431 1.01379 20 1.01379H356.027C367.073 1.01379 376.027 9.9681 376.027 21.0138V169.008H0V21.0138Z" fill="url(#paint0_linear)"/>
<path d="M3.35074e-05 66.7803C3.35074e-05 66.7803 3.91245 78.0672 72.2109 95.5127C140.509 112.958 185.83 169.008 185.83 169.008H3.35074e-05L3.80374e-05 117.357L3.35074e-05 66.7803Z" fill="url(#paint1_linear)" fill-opacity="0.2"/>
<path d="M274.908 0.998779H356C367.046 0.998779 376 9.95309 376 20.9988V53.6899C376 53.6899 343.711 68.6558 309.345 65.6072C274.978 62.5586 258.115 58.2771 227.309 39.5555C200.849 23.4744 189.835 0.998779 189.835 0.998779H274.908Z" fill="url(#paint2_linear)" fill-opacity="0.4"/>
<defs>
<linearGradient id="paint0_linear" x1="255.975" y1="-15.9829" x2="23.7206" y2="195.652" gradientUnits="userSpaceOnUse">
<stop stop-color="#8FBBF5"/>
<stop offset="1" stop-color="#6EA3EB"/>
</linearGradient>
<linearGradient id="paint1_linear" x1="197.867" y1="153.467" x2="83.3861" y2="260.983" gradientUnits="userSpaceOnUse">
<stop stop-color="#4892ED"/>
<stop offset="1" stop-color="#88B6F3"/>
</linearGradient>
<linearGradient id="paint2_linear" x1="294.971" y1="126.121" x2="254.764" y2="-50.2223" gradientUnits="userSpaceOnUse">
<stop stop-color="#E2EFFF"/>
<stop offset="1" stop-color="#359BE4" stop-opacity="0"/>
</linearGradient>
</defs>
</svg>
