<svg width="376" height="169" viewBox="0 0 376 169" fill="none" xmlns="http://www.w3.org/2000/svg">
<path d="M0.0136719 20.9981C0.0136719 9.95238 8.96798 0.998047 20.0137 0.998047H355.999C367.045 0.998047 375.999 9.95235 375.999 20.998V168.997H0.0136719V20.9981Z" fill="url(#paint0_linear)"/>
<path d="M0.0136719 102.564C0.0136719 102.564 46.0627 98.6596 103.247 132.351C160.432 166.042 210.764 168.997 210.764 168.997H0.0136719L0.0136719 102.564Z" fill="url(#paint1_linear)" fill-opacity="0.2"/>
<path d="M274.711 1.01434H355.999C367.045 1.01434 375.999 9.96865 375.999 21.0143V49.6832C375.999 49.6832 342.13 51.9018 313.937 47.0629C285.743 42.224 261.182 34.6199 237.14 22.6954C212.636 10.542 199.856 1.01441 199.856 1.01441L274.711 1.01434Z" fill="url(#paint2_linear)" fill-opacity="0.2"/>
<path d="M303.342 1.01492H355.965C367.01 1.01492 375.965 9.96922 375.965 21.0149V84.7377C375.965 84.7377 346.434 78.9208 311.952 39.6398C277.469 0.358851 207.346 1.01497 207.346 1.01497L303.342 1.01492Z" fill="url(#paint3_linear)" fill-opacity="0.1"/>
<defs>
<linearGradient id="paint0_linear" x1="-16.0711" y1="84.9974" x2="130.061" y2="373.942" gradientUnits="userSpaceOnUse">
<stop stop-color="#007EB4"/>
<stop offset="1" stop-color="#024C76"/>
</linearGradient>
<linearGradient id="paint1_linear" x1="224.416" y1="158.897" x2="158.131" y2="267.539" gradientUnits="userSpaceOnUse">
<stop stop-color="#239DD6"/>
<stop offset="1" stop-color="#066EA0"/>
</linearGradient>
<linearGradient id="paint2_linear" x1="396.929" y1="56.0288" x2="123.211" y2="-43.9361" gradientUnits="userSpaceOnUse">
<stop stop-color="#2091CB"/>
<stop offset="1" stop-color="#015E8D"/>
</linearGradient>
<linearGradient id="paint3_linear" x1="370.876" y1="-9.49602" x2="253.407" y2="80.601" gradientUnits="userSpaceOnUse">
<stop stop-color="#0586BC"/>
<stop offset="1" stop-color="#0A8BBF"/>
</linearGradient>
</defs>
</svg>
