<svg width="377" height="169" viewBox="0 0 377 169" fill="none" xmlns="http://www.w3.org/2000/svg">
<path d="M0.896484 20.9175C0.896484 9.87176 9.85079 0.91748 20.8965 0.91748H356.896C367.942 0.91748 376.896 9.87179 376.896 20.9175V168.941H0.896484V20.9175Z" fill="url(#paint0_linear)"/>
<path d="M0.896484 102.848C0.896484 102.848 46.9455 98.9632 104.13 132.481C161.315 165.998 211.647 168.938 211.647 168.938H0.896484L0.896484 102.848Z" fill="url(#paint1_linear)" fill-opacity="0.15"/>
<path d="M291.655 1.08117H356.897C367.942 1.08117 376.897 10.0355 376.897 21.0812V69.3889C376.897 69.3889 355.135 68.4646 334.883 61.7787C314.631 55.0928 298.502 45.1461 283.846 33.3795C259.664 13.9649 258.392 1.08078 258.392 1.08078L291.655 1.08117Z" fill="#8575C7" fill-opacity="0.5"/>
<path d="M304.273 1.08093H356.896C367.942 1.08093 376.896 10.0352 376.896 21.0809V42.2695C376.896 42.2695 337.701 49.0669 290.165 36.1559C242.629 23.245 212.387 1.08093 212.387 1.08093H304.273Z" fill="url(#paint2_linear)" fill-opacity="0.3"/>
<defs>
<linearGradient id="paint0_linear" x1="131.389" y1="-21.053" x2="99.4179" y2="121.894" gradientUnits="userSpaceOnUse">
<stop stop-color="#7B6DB4"/>
<stop offset="1" stop-color="#6757A2"/>
</linearGradient>
<linearGradient id="paint1_linear" x1="225.299" y1="158.89" x2="159.512" y2="267.275" gradientUnits="userSpaceOnUse">
<stop stop-color="#7E71B0"/>
<stop offset="1" stop-color="#7A6BB8"/>
</linearGradient>
<linearGradient id="paint2_linear" x1="326.873" y1="19.0025" x2="-111.756" y2="489.627" gradientUnits="userSpaceOnUse">
<stop stop-color="#6657A1"/>
<stop offset="1" stop-color="#7B6BB9"/>
</linearGradient>
</defs>
</svg>
