<svg width="377" height="169" viewBox="0 0 377 169" fill="none" xmlns="http://www.w3.org/2000/svg">
<path d="M0.0175781 20.0811C0.0175781 9.03539 8.97188 0.0810547 20.0176 0.0810547H356.045C367.091 0.0810547 376.045 9.03536 376.045 20.0811V168.075H0.0175781V20.0811Z" fill="url(#paint0_linear)"/>
<path d="M65.514 0.0812378H20.023C8.97729 0.0812378 0.022995 9.03554 0.022995 20.0812V114.001C0.022995 114.001 22.2859 106.849 47.062 68.5785C71.8381 30.308 89.8637 19.2827 112.288 9.38365C128.75 2.11716 161.225 0.0812378 161.225 0.0812378H65.514Z" fill="url(#paint1_linear)" fill-opacity="0.1"/>
<path d="M376.018 67.4959C376.018 67.4959 331.264 65.3892 271.228 117.741C211.193 170.093 167.308 168.063 167.308 168.063H376.018V67.4959Z" fill="url(#paint2_linear)" fill-opacity="0.2"/>
<path d="M376.017 33.6284C376.017 33.6284 327.671 47.6006 304.338 97.133C281.005 146.665 250.308 168.063 250.308 168.063H376.018L376.017 33.6284Z" fill="url(#paint3_linear)" fill-opacity="0.15"/>
<defs>
<linearGradient id="paint0_linear" x1="255.992" y1="-16.9157" x2="23.7382" y2="194.719" gradientUnits="userSpaceOnUse">
<stop stop-color="#6668A0"/>
<stop offset="0.979167" stop-color="#989AD0"/>
</linearGradient>
<linearGradient id="paint1_linear" x1="60.2332" y1="82.0715" x2="-3.3631" y2="45.4116" gradientUnits="userSpaceOnUse">
<stop stop-color="#BFC9E7"/>
<stop offset="1" stop-color="#A4B0DB"/>
</linearGradient>
<linearGradient id="paint2_linear" x1="253.847" y1="156.526" x2="313.797" y2="200.701" gradientUnits="userSpaceOnUse">
<stop stop-color="#8693C2"/>
<stop offset="1" stop-color="#B2BFE7" stop-opacity="0"/>
</linearGradient>
<linearGradient id="paint3_linear" x1="243.407" y1="153.655" x2="342.244" y2="220.762" gradientUnits="userSpaceOnUse">
<stop stop-color="#50528C"/>
<stop offset="1" stop-color="#6668A0"/>
</linearGradient>
</defs>
</svg>
