<svg width="378" height="169" viewBox="0 0 378 169" fill="none" xmlns="http://www.w3.org/2000/svg">
<path d="M1 20.0007C1 8.95504 9.95431 0.000732422 21 0.000732422H357C368.046 0.000732422 377 8.95504 377 20.0007V168.001H1V20.0007Z" fill="url(#paint0_linear)"/>
<path d="M304.377 0.000879495H357C368.045 0.000879495 377 8.95519 377 20.0009V83.7625C377 83.7625 347.469 77.9429 312.987 38.6437C278.505 -0.655491 208.381 0.000930099 208.381 0.000930099L304.377 0.000879495Z" fill="url(#paint1_linear)"/>
<path fill-rule="evenodd" clip-rule="evenodd" d="M234.562 3.23972C226.277 1.71961 205.636 0.225247 200.267 0.0600633L219.993 0.060123C219.993 0.060123 226.489 -0.274867 234.922 1.27256C236.305 1.52624 237.603 1.76221 238.831 1.98549C250.188 4.05029 255.575 5.0297 266.76 8.89233C279.534 13.3038 293.783 19.3416 305.125 29.3452C310.884 34.4254 315.154 38.9542 319.313 43.3653C319.63 43.7014 319.946 44.0368 320.262 44.3718C324.728 49.1022 329.196 53.7441 335.425 58.9037C348.049 69.359 353.933 72.4792 362.586 76.9295C369.506 80.4882 374.994 82.686 377.004 83.3291V85.4256C374.871 84.7431 368.671 82.3078 361.672 78.7081C352.926 74.2101 346.912 71.0141 334.15 60.444C327.822 55.2031 323.286 50.4876 318.808 45.7447C318.493 45.4115 318.179 45.0781 317.864 44.7444C313.702 40.3299 309.49 35.8624 303.802 30.8452C292.761 21.1072 278.816 15.1718 266.107 10.7828C255.07 6.9711 249.815 6.01551 238.469 3.95258C237.243 3.72957 235.945 3.49362 234.562 3.23972Z" fill="#F79A4D"/>
<path d="M1 123.9C1 123.9 27.3916 120.974 80.932 141.376C134.472 161.778 171.718 168.008 171.718 168.008H1V123.9Z" fill="url(#paint2_linear)" fill-opacity="0.7"/>
<path d="M0.996094 125.301V123.297C3.75251 123.352 7.20587 123.5 10.9169 123.726C18.3348 124.179 25.9378 125.243 32.4768 126.214C47.3197 128.419 61.0915 133.377 74.6544 138.647C100.18 148.566 115.75 154.24 135.391 159.477C151.087 163.663 158.043 165.061 162.967 166.05C164.212 166.3 165.328 166.525 166.422 166.761C168.53 167.217 169.868 167.4 174.537 168.003L180.568 168.003C180.261 167.956 181.957 168.003 181.957 168.003H180.568C180.568 168.003 180.568 168.003 180.568 168.003L174.537 168.003L173.197 168.003C172.909 167.958 168.478 168.003 168.478 168.003H163.349C158.425 167.013 150.636 165.612 134.876 161.41C115.124 156.142 99.47 150.436 73.93 140.512C60.4251 135.264 46.8123 130.365 32.1829 128.193C25.7229 127.233 18.1828 126.173 10.7951 125.722C7.10325 125.497 3.71798 125.355 0.996094 125.301Z" fill="#FAA05C"/>
<defs>
<linearGradient id="paint0_linear" x1="326.977" y1="17.9199" x2="-111.587" y2="488.54" gradientUnits="userSpaceOnUse">
<stop stop-color="#FAA34D"/>
<stop offset="1" stop-color="#FFC279"/>
</linearGradient>
<linearGradient id="paint1_linear" x1="371.912" y1="-10.5149" x2="254.401" y2="79.5712" gradientUnits="userSpaceOnUse">
<stop stop-color="#F9A24E"/>
<stop offset="1" stop-color="#F6924D"/>
</linearGradient>
<linearGradient id="paint2_linear" x1="129.817" y1="136.139" x2="1.00003" y2="174.548" gradientUnits="userSpaceOnUse">
<stop stop-color="#F79954"/>
<stop offset="1" stop-color="#FC9967"/>
</linearGradient>
</defs>
</svg>
