<?xml version="1.0" encoding="utf-8"?>
<!-- Generator: Adobe Illustrator 23.1.0, SVG Export Plug-In . SVG Version: 6.00 Build 0)  -->
<svg version="1.1" id="Слой_1" xmlns="http://www.w3.org/2000/svg" xmlns:xlink="http://www.w3.org/1999/xlink" x="0px" y="0px"
	 viewBox="0 0 376 169" style="enable-background:new 0 0 376 169;" xml:space="preserve">
<style type="text/css">
	.st0{fill:url(#SVGID_1_);}
	.st1{fill:url(#SVGID_2_);fill-opacity:0.4;}
	.st2{fill:url(#SVGID_3_);fill-opacity:0.8;}
	.st3{fill:url(#SVGID_4_);fill-opacity:0.5;}
</style>
<linearGradient id="SVGID_1_" gradientUnits="userSpaceOnUse" x1="342.555" y1="196.1197" x2="58.9443" y2="-15.0923" gradientTransform="matrix(1 0 0 -1 0 170)">
	<stop  offset="0" style="stop-color:#2E60AF"/>
	<stop  offset="1" style="stop-color:#234C99"/>
</linearGradient>
<path class="st0" d="M0,20C0,9,9,0,20,0h336c11,0,20,9,20,20v148H0V20z"/>
<linearGradient id="SVGID_2_" gradientUnits="userSpaceOnUse" x1="133.8773" y1="58.0436" x2="-0.7577" y2="-1.3544" gradientTransform="matrix(1 0 0 -1 0 170)">
	<stop  offset="0" style="stop-color:#2958A5"/>
	<stop  offset="1" style="stop-color:#2B5CA8"/>
</linearGradient>
<path class="st1" d="M0,94.2c0,0,29.9,0,72.4,34.8c42.5,34.8,108.6,39,108.6,39H0V94.2z"/>
<linearGradient id="SVGID_3_" gradientUnits="userSpaceOnUse" x1="950.708" y1="292.2687" x2="198.1929" y2="122.8631" gradientTransform="matrix(1 0 0 -1 0 170)">
	<stop  offset="0" style="stop-color:#27529D"/>
	<stop  offset="1" style="stop-color:#2A57A4"/>
</linearGradient>
<path class="st2" d="M303.4,0H356c11,0,20,9,20,20v34.5c0,0-38.3,0.8-98.3-16.3C217.7,21.1,197.2,0,197.2,0H303.4z"/>
<linearGradient id="SVGID_4_" gradientUnits="userSpaceOnUse" x1="954.11" y1="276.9933" x2="201.595" y2="107.5874" gradientTransform="matrix(1 0 0 -1 0 170)">
	<stop  offset="0" style="stop-color:#132F5F"/>
	<stop  offset="1" style="stop-color:#2A57A4"/>
</linearGradient>
<path class="st3" d="M324.9,0.2l31.1,0c11,0,20,9,20,20v54.3c0,0-23.9-4-54.2-34.6C291.4,9.3,250.4,0.2,250.4,0.2H324.9z"/>
</svg>
