<svg width="377" height="169" viewBox="0 0 377 169" fill="none" xmlns="http://www.w3.org/2000/svg">
<path d="M0 20.9937C0 9.94798 8.95431 0.993652 20 0.993652H356.027C367.073 0.993652 376.027 9.94796 376.027 20.9937V168.988H0V20.9937Z" fill="url(#paint0_linear)"/>
<path d="M375.025 113.785C375.025 113.785 315.397 80.9118 267.896 126.118C220.395 171.324 159.982 168.978 159.982 168.978H375.025V113.785Z" fill="url(#paint1_linear)" fill-opacity="0.2"/>
<path d="M375.025 78.9764C375.025 78.9764 334.954 84.1142 312.031 122.482C289.108 160.85 247.12 168.978 247.12 168.978H375.025V78.9764Z" fill="url(#paint2_linear)" fill-opacity="0.23"/>
<path d="M101.966 0.993896H19.9997C8.95406 0.993896 -0.000259399 9.9482 -0.000259399 20.9939V114.913C-0.000259399 114.913 34.6618 107.762 73.2368 69.4912C111.812 31.2207 139.877 20.1954 174.791 10.2963C200.42 3.02982 250.981 0.993896 250.981 0.993896H101.966Z" fill="url(#paint3_linear)" fill-opacity="0.25"/>
<defs>
<linearGradient id="paint0_linear" x1="255.975" y1="-16.0031" x2="23.7206" y2="195.632" gradientUnits="userSpaceOnUse">
<stop stop-color="#AEBBDB"/>
<stop offset="1" stop-color="#97A4D5"/>
</linearGradient>
<linearGradient id="paint1_linear" x1="267.504" y1="149.771" x2="338.188" y2="177.307" gradientUnits="userSpaceOnUse">
<stop stop-color="#8693C2"/>
<stop offset="1" stop-color="#B2BFE7" stop-opacity="0"/>
</linearGradient>
<linearGradient id="paint2_linear" x1="258.315" y1="144.992" x2="370.897" y2="185.402" gradientUnits="userSpaceOnUse">
<stop stop-color="#D0D9F5"/>
<stop offset="1" stop-color="#A2AFD7"/>
</linearGradient>
<linearGradient id="paint3_linear" x1="93.7436" y1="82.9841" x2="20.679" y2="17.409" gradientUnits="userSpaceOnUse">
<stop stop-color="#BFC9E7"/>
<stop offset="1" stop-color="#A4B0DB"/>
</linearGradient>
</defs>
</svg>
