<?xml version="1.0" encoding="utf-8"?>
<!-- Generator: Adobe Illustrator 23.1.0, SVG Export Plug-In . SVG Version: 6.00 Build 0)  -->
<svg version="1.1" id="Слой_1" xmlns="http://www.w3.org/2000/svg" xmlns:xlink="http://www.w3.org/1999/xlink" x="0px" y="0px"
	 viewBox="0 0 376 169" style="enable-background:new 0 0 376 169;" xml:space="preserve">
<style type="text/css">
	.st0{fill:url(#SVGID_1_);}
	.st1{fill:url(#SVGID_2_);fill-opacity:0.6;}
	.st2{fill:url(#SVGID_3_);fill-opacity:0.6;}
	.st3{fill:url(#SVGID_4_);fill-opacity:0.7;}
</style>
<linearGradient id="SVGID_1_" gradientUnits="userSpaceOnUse" x1="187.9982" y1="169.005" x2="187.9982" y2="-323.005" gradientTransform="matrix(1 0 0 -1 0 170)">
	<stop  offset="0" style="stop-color:#30333B"/>
	<stop  offset="1" style="stop-color:#31353F"/>
</linearGradient>
<path class="st0" d="M20,1h336c11,0,20,9,20,20v452c0,11-9,20-20,20H20c-11,0-20-9-20-20V21C0,9.9,9,1,20,1z"/>
<linearGradient id="SVGID_2_" gradientUnits="userSpaceOnUse" x1="267.841" y1="73.5196" x2="-318.58" y2="182.5228" gradientTransform="matrix(1 0 0 -1 0 170)">
	<stop  offset="0" style="stop-color:#343842"/>
	<stop  offset="1" style="stop-color:#373A43"/>
</linearGradient>
<path class="st1" d="M0,26.4c0,0,21.6,54.4,56.6,93.3c35,38.9,86.6,66.4,145.4,75.5c90.6,14.1,173.9-15.3,173.9-15.3V22
	c0-11-9-20-20-20H20C9,2,0,10.9,0,22V26.4z"/>
<linearGradient id="SVGID_3_" gradientUnits="userSpaceOnUse" x1="428.1886" y1="196.8907" x2="24.2079" y2="-377.4188" gradientTransform="matrix(1 0 0 -1 0 170)">
	<stop  offset="0" style="stop-color:#353840"/>
	<stop  offset="1" style="stop-color:#202227;stop-opacity:0"/>
</linearGradient>
<path class="st2" d="M376,401c0,0-64.7,20.4-135.8-35.7s-70.1-92.5-139-155.6C48.6,161.5,0,149.1,0,149.1v324.7c0,11,9,20,20,20h336
	c11,0,20-9,20-20V401z"/>
<linearGradient id="SVGID_4_" gradientUnits="userSpaceOnUse" x1="323.8156" y1="22.4539" x2="273.4055" y2="243.4287" gradientTransform="matrix(1 0 0 -1 0 170)">
	<stop  offset="0" style="stop-color:#2D313D"/>
	<stop  offset="1" style="stop-color:#33363B"/>
</linearGradient>
<path class="st3" d="M269.4,2H356c11,0,20,9,20,20v65.6c0,0-6.2-17.2-22.3-36.3c-16.2-19.1-40-30.5-64.2-37.6
	C255.4,3.7,209.3,2,209.3,2L269.4,2z"/>
</svg>
