<svg width="376" height="169" viewBox="0 0 376 169" fill="none" xmlns="http://www.w3.org/2000/svg">
<path d="M0 20.0636C0 9.01791 8.95431 0.0635986 20 0.0635986H355.986C367.031 0.0635986 375.986 9.0179 375.986 20.0636V168.061H0V20.0636Z" fill="url(#paint0_linear)"/>
<path d="M375.973 20.0608C375.973 9.01508 367.018 0.0607712 355.973 0.0607712H341.459C341.298 0.0607712 341.157 0.0590564 340.995 0.0579835C337.022 0.0315601 280.289 0.611972 219.571 53.869C156.604 109.097 147.313 168.061 147.313 168.061H375.973V20.0608Z" fill="url(#paint1_linear)" fill-opacity="0.3"/>
<path d="M274.842 0.0638428H355.989C367.035 0.0638428 375.989 9.01815 375.989 20.0638V52.6708C375.989 52.6708 351.202 61.0777 319.477 55.328C287.752 49.5783 279.811 44.188 239.487 21.5768C201.388 0.213381 131.387 0.0638428 131.387 0.0638428H274.842Z" fill="url(#paint2_linear)" fill-opacity="0.2"/>
<path d="M375.985 99.3442C375.985 99.3442 367.761 113.418 327.859 135.718C287.958 158.018 215.075 168.055 215.075 168.055H375.985V99.3442Z" fill="url(#paint3_linear)" fill-opacity="0.6"/>
<defs>
<linearGradient id="paint0_linear" x1="-16.0848" y1="84.0622" x2="22.622" y2="278.226" gradientUnits="userSpaceOnUse">
<stop stop-color="#346AD3"/>
<stop offset="1" stop-color="#0B55B7"/>
</linearGradient>
<linearGradient id="paint1_linear" x1="72.981" y1="137.056" x2="336.234" y2="299.186" gradientUnits="userSpaceOnUse">
<stop offset="0.0262699" stop-color="#1E4EC9"/>
<stop offset="1" stop-color="#3970DC"/>
</linearGradient>
<linearGradient id="paint2_linear" x1="294.916" y1="125.186" x2="254.728" y2="-51.1666" gradientUnits="userSpaceOnUse">
<stop stop-color="#53ACFF"/>
<stop offset="1" stop-color="#359BE4" stop-opacity="0"/>
</linearGradient>
<linearGradient id="paint3_linear" x1="331.933" y1="54.2439" x2="426.753" y2="86.3855" gradientUnits="userSpaceOnUse">
<stop stop-color="#225FC9"/>
<stop offset="1" stop-color="#1F49B6"/>
</linearGradient>
</defs>
</svg>
