<svg width="1565" height="315" viewBox="0 0 1565 315" fill="none" xmlns="http://www.w3.org/2000/svg">
<path d="M280.126 462.187C274.821 450.604 283.184 438.357 295.913 437.289C937.498 383.435 1441.78 80.6294 1279.21 -44.761C944.83 -302.653 2087.38 -78.3373 2165.16 161.901C2242.95 402.139 1920.73 706.574 1445.45 841.877C985.213 972.9 388.07 697.872 280.126 462.187Z" fill="#1A31A6" fill-opacity="0.03"/>
<path d="M986.361 414.167C974.287 406.517 976.661 389.601 989.207 382.346C1365.93 164.511 748.945 -39.5907 466.061 -26.6209C446.567 -25.7271 434.8 -46.5574 450.282 -57.8989C757.285 -282.81 1960.97 -439.659 2157.63 -289.458C2365.23 -130.898 2361.24 195.961 2148.73 440.603C1943.83 676.472 1223.79 564.601 986.361 414.167Z" fill="url(#paint0_linear)" fill-opacity="0.05"/>
<path d="M84.7216 -60.7676C94.8916 -51.1904 89.5903 -35.4513 76.3197 -30.5889C-352.239 126.434 190.86 415.58 473.746 447.581C493.72 449.84 501.998 473.629 484.201 482.176C121.307 656.46 -1095.67 633.128 -1248.63 457.312C-1410.42 271.347 -1320.44 -48.5409 -1047.65 -257.177C-784.792 -458.222 -108.882 -243.085 84.7216 -60.7676Z" fill="#1A31A6" fill-opacity="0.02"/>
<path d="M695.755 445.758C675.799 444.061 590.354 419.086 573.066 409.781C515.44 378.768 473.095 331.25 783.024 302.417C1133.52 269.81 1421.23 37.6191 1464.86 -156.392C1467.67 -168.862 1481.36 -177.066 1493.77 -172.981C1782.38 -77.9813 1807.14 -39.0549 1796.25 4.65484C1792.53 19.5918 1771.9 22.3485 1757.76 15.7142C1674.21 -23.4759 1901.72 548.324 695.755 445.758Z" fill="url(#paint1_linear)" fill-opacity="0.05"/>
<defs>
<linearGradient id="paint0_linear" x1="676.774" y1="-51.761" x2="1988.68" y2="366.869" gradientUnits="userSpaceOnUse">
<stop stop-color="#1A31A6"/>
<stop offset="1" stop-color="#1A31A6" stop-opacity="0"/>
</linearGradient>
<linearGradient id="paint1_linear" x1="1137.3" y1="88.2389" x2="943.739" y2="594.823" gradientUnits="userSpaceOnUse">
<stop stop-color="#1A31A6"/>
<stop offset="1" stop-color="#1A31A6" stop-opacity="0"/>
</linearGradient>
</defs>
</svg>
